<?xml version="1.0" encoding="UTF-8" standalone="no"?>
<!-- Created with Inkscape (http://www.inkscape.org/) -->

<svg
   width="19.678535mm"
   height="2.6085mm"
   viewBox="0 0 19.678535 2.6085"
   version="1.1"
   id="svg1"
   xmlns="http://www.w3.org/2000/svg"
   xmlns:svg="http://www.w3.org/2000/svg">
  <defs
     id="defs1" />
  <g
     id="layer1"
     transform="translate(-94.985405,-147.10833)">
    <path
       style="fill:#4d0000;fill-opacity:1;stroke:none;stroke-width:6.00001;stroke-linecap:square;paint-order:markers stroke fill"
       d="m 95.3822,148.87419 c 0,0 12.63342,-1.09945 13.80218,-1.14308 1.16876,-0.0436 3.37854,-0.11179 3.37854,-0.11179 l -0.0762,-0.51099 c 0,0 1.60911,0.28251 2.17722,0.58958 -0.56257,0.60619 -1.56551,0.88626 -1.56551,0.88626 l -0.31261,-0.34516 c 0,0 -2.63109,-0.13019 -3.43565,-0.27144 -0.80457,-0.14125 -6.57221,0.58781 -7.83064,0.90595 -1.25842,0.31815 -4.41955,0.13638 -5.16699,0.37837 -0.74743,0.24199 -1.36713,0.46494 -1.36713,0.46494 0,0 -0.006,-0.91327 0.39675,-0.84264 z"
       id="path6-2-4-0" />
  </g>
</svg>
