<?xml version="1.0" encoding="UTF-8" standalone="no"?>
<!-- Created with Inkscape (http://www.inkscape.org/) -->

<svg
   width="61.155384mm"
   height="29.671057mm"
   viewBox="0 0 61.155384 29.671057"
   version="1.1"
   id="svg1"
   xmlns:xlink="http://www.w3.org/1999/xlink"
   xmlns="http://www.w3.org/2000/svg"
   xmlns:svg="http://www.w3.org/2000/svg">
  <defs
     id="defs1">
    <linearGradient
       id="linearGradient12">
      <stop
         style="stop-color:#dabb90;stop-opacity:1;"
         offset="0"
         id="stop12" />
      <stop
         style="stop-color:#a65e36;stop-opacity:1;"
         offset="0.46862555"
         id="stop11" />
      <stop
         style="stop-color:#58271a;stop-opacity:1;"
         offset="1"
         id="stop10" />
    </linearGradient>
    <linearGradient
       id="linearGradient1">
      <stop
         style="stop-color:#58271a;stop-opacity:1;"
         offset="0.08000492"
         id="stop1" />
      <stop
         style="stop-color:#ae6439;stop-opacity:1;"
         offset="0.53455281"
         id="stop3" />
      <stop
         style="stop-color:#c6996f;stop-opacity:1;"
         offset="0.85067111"
         id="stop2" />
    </linearGradient>
    <linearGradient
       id="linearGradient6">
      <stop
         style="stop-color:#58271a;stop-opacity:1;"
         offset="0"
         id="stop6" />
      <stop
         style="stop-color:#a65e36;stop-opacity:1;"
         offset="0.4105691"
         id="stop8" />
      <stop
         style="stop-color:#dabb90;stop-opacity:1;"
         offset="1"
         id="stop7" />
    </linearGradient>
    <linearGradient
       xlink:href="#linearGradient12"
       id="linearGradient18"
       gradientUnits="userSpaceOnUse"
       gradientTransform="matrix(0.70812818,0,0,0.70812818,100.09594,23.385708)"
       x1="120.61116"
       y1="101.56605"
       x2="121.19238"
       y2="83.823471"
       spreadMethod="pad" />
    <linearGradient
       xlink:href="#linearGradient1"
       id="linearGradient19"
       gradientUnits="userSpaceOnUse"
       gradientTransform="matrix(0.70752579,-0.02920233,0.02920233,0.70752579,97.795335,26.992307)"
       x1="99.654007"
       y1="80.162796"
       x2="99.654007"
       y2="105.13877" />
    <linearGradient
       xlink:href="#linearGradient6"
       id="linearGradient20"
       gradientUnits="userSpaceOnUse"
       x1="18.601461"
       y1="79.088303"
       x2="18.601461"
       y2="104.09682"
       gradientTransform="rotate(-7.04491,118.97571,-1000.3464)" />
  </defs>
  <g
     id="layer1"
     transform="translate(-81.423176,-134.96298)">
    <g
       id="g23"
       transform="translate(-66.701733,57.055537)">
      <path
         style="fill:url(#linearGradient18);stroke-width:0.708128;stroke-linecap:square;paint-order:markers stroke fill"
         d="m 184.78823,82.652008 c 1.00606,0.36584 1.73775,1.006059 4.20717,0.09146 2.46943,-0.914597 4.66448,-1.920663 5.48762,-1.920663 -0.64022,-0.365841 -1.53359,-0.844386 -2.17936,-1.495702 -0.50294,-0.50726 0.64023,-0.12475 0.64023,-0.12475 0,0 -0.26883,0.350155 0.46285,0.350155 0.73168,0 1.16774,0.995918 1.71651,1.087373 0.64021,-0.73168 0.65131,-0.570001 1.10861,-0.796354 0.45731,-0.73168 0.90351,-1.307233 1.26935,-1.398695 0.36584,-0.09145 -0.0915,0.365848 -0.27438,0.82315 -0.18292,0.457295 -0.4573,0.823142 -0.4573,0.823142 1.46336,0.36584 2.10359,1.554823 2.65235,2.195049 1.28045,0.914597 2.46943,1.920663 2.74381,2.377965 0.27438,0.457302 -0.45731,0.914604 -0.91461,1.188983 -0.4573,0.274385 -1.64628,-0.274379 -2.10358,-0.548757 -0.45731,-0.274386 -1.37191,-0.640226 -2.01213,-0.548764 -0.64022,0.09146 -1.37191,-0.09146 -1.55483,0 -0.18292,0.09146 -1.46336,1.737746 -1.8292,2.469427 -0.36584,0.731681 -3.20112,2.926729 -3.9328,3.658417 -0.73168,0.73168 -1.92067,2.012125 -2.19504,2.926729 -0.27438,0.914603 -1.37191,3.292569 -4.02426,3.932794 0.13409,-3.566954 0.64022,-9.146034 0.4573,-11.158159 -0.18292,-2.012132 0.36584,-4.20718 0.73169,-3.932795 z"
         id="path3-8-4" />
      <path
         style="fill:url(#linearGradient19);stroke-width:0.708128;stroke-linecap:square;paint-order:markers stroke fill"
         d="m 158.96768,94.128061 c -1.24455,-1.321707 -0.62439,-0.665643 -1.47494,-1.571813 -0.3063,-0.326328 1.19743,-3.156765 1.0614,-5.634968 -0.14661,-2.670709 -1.34105,-4.254615 -0.23315,-4.025726 l 1.10791,0.228887 c 0,0 7.1467,0.162719 9.61025,-0.0305 2.46356,-0.193219 5.84095,-0.424155 7.09013,-1.20802 1.24918,-0.783863 4.04432,-1.814611 5.34253,-1.410502 1.29821,0.404109 2.80937,1.531732 3.28137,1.878407 0.472,0.346671 1.7486,2.445127 1.41702,3.282656 -0.33158,0.837529 0.2131,5.163112 -0.0233,6.088255 -0.23642,0.925139 -0.34374,2.760332 -0.58772,3.502713 -0.24398,0.742372 -1.16621,2.794275 -2.72348,2.767009 -1.55728,-0.02725 -3.4914,-0.313587 -5.8363,-1.681412 -2.34492,-1.36783 -4.11977,-0.01304 -6.66338,0.458097 -2.54363,0.471144 -8.12174,0.609834 -11.3683,-2.643083 z"
         id="path1-1-8" />
      <path
         style="fill:#20200d;fill-opacity:1;stroke-width:0.708128;stroke-linecap:square;paint-order:markers stroke fill"
         d="m 196.26355,79.74755 c -0.0646,-0.194018 -0.38803,-0.388033 -0.51738,-0.517379 -0.12934,-0.129343 -1.45512,-0.873074 -1.64914,-1.002419 -0.19402,-0.129344 -0.64672,-0.194016 -0.84074,-0.291024 -0.19402,-0.09701 -0.25869,0.06467 0.0647,0.226352 0.32336,0.161681 1.19644,0.549714 1.45513,0.808403 0.25869,0.258688 0.61439,0.743731 0.8084,0.937749 0.19402,0.194015 0.67906,-0.161682 0.67906,-0.161682 z"
         id="path4-6-0" />
      <path
         style="fill:#20200d;fill-opacity:1;stroke-width:0.708128;stroke-linecap:square;paint-order:markers stroke fill"
         d="m 195.58449,80.135583 c 0,0 -0.97008,-0.808403 -1.35812,-0.970082 -0.38803,-0.161681 -1.29344,-0.67906 -1.55213,-0.743731 -0.25869,-0.06467 -0.32336,0.03233 -0.48504,0.03233 -0.16168,0 0.0647,0.06467 0.32336,0.25869 0.25869,0.194016 1.03476,0.355698 1.22877,0.614385 0.19402,0.258689 1.00242,0.970084 1.13177,1.131765 0.12935,0.161681 0.32336,0.09701 0.32336,0.09701 z"
         id="path5-4-0" />
      <path
         style="fill:#d9bd91;fill-opacity:1;stroke:none;stroke-width:1;stroke-linecap:square;stroke-opacity:1;paint-order:markers stroke fill"
         d="m 159.74548,104.5533 c -0.12916,0.3229 -0.45206,0.71037 -0.96869,0.64579 -0.51663,-0.0646 -0.32289,-0.9041 -0.64579,-0.83952 -0.32289,0.0646 -0.71036,0 -0.83952,-0.19374 -0.12916,-0.19374 -3.03521,-4.391369 -3.74558,-4.714264 -0.71037,-0.322895 -0.58121,-1.227 -0.51663,-1.679051 0.0646,-0.452054 -0.64579,-2.453999 -0.58121,-2.906053 0.0646,-0.452051 3.61642,-2.324841 4.13305,-2.518577 0.51663,-0.193739 -0.45205,0.774946 -0.90411,1.549892 -0.45205,0.774949 -1.09784,4.133053 -0.9041,4.778843 0.19374,0.64579 1.09784,2.19568 1.61447,2.90605 0.51663,0.71037 1.5499,1.87279 2.13111,2.13111 0.58121,0.25831 1.227,0.83952 1.227,0.83952 z"
         id="path22" />
      <path
         style="fill:url(#linearGradient20);stroke:none;stroke-width:1;stroke-linecap:square;stroke-opacity:1;paint-order:markers stroke fill"
         d="m 157.72613,82.973132 c -1.50624,-0.273975 -5.44851,-0.154879 -6.2317,0.954162 -0.78317,1.109039 -1.77209,3.531827 -1.6611,5.174528 0.11101,1.642699 0.41444,3.353642 0.38998,4.644986 -0.0245,1.291349 -0.81986,3.046063 -1.39833,3.577666 -0.57847,0.531602 -0.82798,0.746483 -0.63654,1.551033 0.19142,0.804554 2.03518,2.800883 2.57321,3.912213 0.39995,0.82612 0.7066,0.0317 0.67197,0.49609 -0.0346,0.46439 -0.0122,0.64567 0.31569,1.06526 0.32792,0.41959 0.31832,0.89873 0.37433,1.35193 0.056,0.45319 0.63219,-0.251 0.80089,-0.38647 0.35135,-0.13541 -0.51732,-1.59892 -0.58452,-2.14275 -0.0672,-0.54384 -2.13717,-2.88882 -1.99966,-4.010088 0.1375,-1.12127 4.1287,-3.82306 4.77541,-4.54714 0.64669,-0.724082 1.57754,-2.127441 2.74362,-1.627382 0.18334,-1.495028 2.01555,-7.518913 -0.13326,-10.014058 z"
         id="path15-4" />
      <path
         style="fill:#c5aa7b;fill-opacity:1;stroke:none;stroke-width:1;stroke-linecap:square;stroke-opacity:1;paint-order:markers stroke fill"
         d="m 184.72511,96.442804 c 0.45664,1.004612 0.6393,1.735238 0.91328,2.648524 0.27399,0.913282 -2.10055,2.648522 -2.9225,4.018452 -0.82196,1.36992 -1.64392,2.64852 -2.28321,2.64852 -0.6393,0 -1.82657,-0.73063 -1.2786,-1.00461 0.54797,-0.27399 1.2786,-0.6393 1.73524,-0.82196 0.45664,-0.18265 1.82657,-1.82656 2.10055,-2.19188 0.27399,-0.36531 0.54797,-1.73524 0.54797,-2.100551 0,-0.365316 -1.82657,-2.009228 -1.82657,-2.465869 0,-0.456642 2.64853,-1.095942 3.01384,-0.730626 z"
         id="path20" />
      <path
         style="fill:#c5aa7b;fill-opacity:1;stroke:none;stroke-width:1;stroke-linecap:square;stroke-opacity:1;paint-order:markers stroke fill"
         d="m 181.71127,97.17343 c 0,1.18727 0.18266,1.369927 0,2.37454 -0.18265,1.00461 -4.65775,2.46587 -5.29704,2.5572 -0.6393,0.0913 -1.16511,-0.95112 -1.55259,-0.82196 0,0 0.54797,-0.73063 0.91329,-0.73063 0.36531,0 0.27499,0.77584 1.09594,0.36532 0.54797,-0.27401 1.9179,-0.82197 2.92251,-1.278601 0.83143,-0.377916 0.45664,-0.273987 0.54797,-0.730629 0.0913,-0.456641 -0.91329,-1.461254 -1.09594,-2.191882 -0.18266,-0.730626 2.46586,0.456642 2.46586,0.456642 z"
         id="path21" />
    </g>
  </g>
</svg>
