<?xml version="1.0" encoding="UTF-8" standalone="no"?>
<!-- Created with Inkscape (http://www.inkscape.org/) -->

<svg
   width="61.021313mm"
   height="27.160149mm"
   viewBox="0 0 61.021313 27.160149"
   version="1.1"
   id="svg1"
   xmlns:xlink="http://www.w3.org/1999/xlink"
   xmlns="http://www.w3.org/2000/svg"
   xmlns:svg="http://www.w3.org/2000/svg">
  <defs
     id="defs1">
    <linearGradient
       id="linearGradient12">
      <stop
         style="stop-color:#dabb90;stop-opacity:1;"
         offset="0"
         id="stop12" />
      <stop
         style="stop-color:#a65e36;stop-opacity:1;"
         offset="0.46862555"
         id="stop11" />
      <stop
         style="stop-color:#58271a;stop-opacity:1;"
         offset="1"
         id="stop10" />
    </linearGradient>
    <linearGradient
       id="linearGradient1">
      <stop
         style="stop-color:#58271a;stop-opacity:1;"
         offset="0.08000492"
         id="stop1" />
      <stop
         style="stop-color:#ae6439;stop-opacity:1;"
         offset="0.53455281"
         id="stop3" />
      <stop
         style="stop-color:#c6996f;stop-opacity:1;"
         offset="0.85067111"
         id="stop2" />
    </linearGradient>
    <linearGradient
       id="linearGradient6">
      <stop
         style="stop-color:#58271a;stop-opacity:1;"
         offset="0"
         id="stop6" />
      <stop
         style="stop-color:#a65e36;stop-opacity:1;"
         offset="0.4105691"
         id="stop8" />
      <stop
         style="stop-color:#dabb90;stop-opacity:1;"
         offset="1"
         id="stop7" />
    </linearGradient>
    <linearGradient
       xlink:href="#linearGradient12"
       id="linearGradient10"
       x1="120.61116"
       y1="101.56605"
       x2="121.19238"
       y2="83.823471"
       gradientUnits="userSpaceOnUse"
       spreadMethod="pad"
       gradientTransform="matrix(0.70812818,0,0,0.70812818,33.531933,23.385708)" />
    <linearGradient
       xlink:href="#linearGradient6"
       id="linearGradient7"
       x1="76.412773"
       y1="79.239136"
       x2="62.818272"
       y2="114.74736"
       gradientUnits="userSpaceOnUse"
       gradientTransform="matrix(0.70812818,0,0,0.70812818,33.531933,23.385708)" />
    <linearGradient
       xlink:href="#linearGradient1"
       id="linearGradient2"
       x1="99.654007"
       y1="80.162796"
       x2="99.654007"
       y2="105.13877"
       gradientUnits="userSpaceOnUse"
       gradientTransform="matrix(0.70812818,0,0,0.70812818,33.531933,23.385708)" />
  </defs>
  <g
     id="layer1"
     transform="translate(-74.394956,-135.04625)">
    <g
       id="g22"
       transform="translate(-0.11120736,57.13881)">
      <path
         style="fill:#c5aa7b;fill-opacity:1;stroke-width:0.708128;stroke-linecap:square;paint-order:markers stroke fill"
         d="m 117.62971,96.782627 c 0.18292,0.731681 0.82314,2.057856 1.0518,2.97246 0.22864,0.914603 0.50302,2.057853 0.82314,2.789533 0.32011,0.73169 1.00606,2.46944 1.3719,2.78955 0.36585,0.32011 1.14326,0.73168 1.3719,1.23471 0.22866,0.50303 0.1372,1.09753 -0.3201,0.91461 -0.45731,-0.18293 -1.37191,-0.41158 -1.60056,-0.5945 -0.82314,-0.86887 0.36584,-1.00606 -1.32617,-3.29257 -1.69202,-2.28651 -2.05786,-2.881 -2.46943,-3.47549 -0.41157,-0.59449 -1.0518,-2.743808 -0.96034,-2.51516 0.0915,0.228654 1.55483,-0.960335 2.05786,-0.823143 z"
         id="path12" />
      <path
         style="fill:#c5aa7b;fill-opacity:1;stroke-width:0.708128;stroke-linecap:square;paint-order:markers stroke fill"
         d="m 118.68151,96.736896 c 0,0 1.09752,1.371907 1.50909,1.737747 0.41157,0.36584 2.19505,2.286507 2.74381,2.789537 0.54876,0.50303 1.28045,1.55483 1.32618,2.01213 0.0457,0.4573 0.50302,0.77741 0.82314,0.86887 0.32011,0.0915 1.23471,0.0915 1.50909,0.18292 0.27438,0.0915 0.36584,-0.0457 -0.18292,-0.59449 -0.54876,-0.54876 -1.73774,-2.01213 -2.24077,-2.51515 -0.50304,-0.50304 -1.09753,-1.371911 -1.5091,-2.057867 -0.41158,-0.68595 -0.91461,-1.646285 -1.28045,-2.195049 -0.36584,-0.548757 -1.05179,-1.188983 -1.28044,-1.371899 -0.22865,-0.182924 -1.23472,0.228647 -1.23472,0.228647 z"
         id="path13" />
      <path
         style="fill:url(#linearGradient10);stroke-width:0.708128;stroke-linecap:square;paint-order:markers stroke fill"
         d="m 118.2242,82.652008 c 1.00606,0.36584 1.73775,1.006059 4.20718,0.09146 2.46943,-0.914597 4.66447,-1.920663 5.48762,-1.920663 -0.64022,-0.365841 -1.53359,-0.844386 -2.17936,-1.495702 -0.50294,-0.50726 0.64023,-0.12475 0.64023,-0.12475 0,0 -0.26884,0.350155 0.46284,0.350155 0.73168,0 1.16775,0.995918 1.71651,1.087373 0.64022,-0.73168 0.65132,-0.570001 1.10862,-0.796354 0.4573,-0.73168 0.90351,-1.307233 1.26935,-1.398695 0.36584,-0.09145 -0.0915,0.365848 -0.27438,0.82315 -0.18292,0.457295 -0.4573,0.823142 -0.4573,0.823142 1.46336,0.36584 2.10358,1.554823 2.65235,2.195049 1.28044,0.914597 2.46942,1.920663 2.7438,2.377965 0.27439,0.457302 -0.4573,0.914604 -0.9146,1.188983 -0.4573,0.274385 -1.64629,-0.274379 -2.10359,-0.548757 -0.4573,-0.274386 -1.3719,-0.640226 -2.01212,-0.548764 -0.64023,0.09146 -1.37191,-0.09146 -1.55483,0 -0.18292,0.09146 -1.46336,1.737746 -1.8292,2.469427 -0.36584,0.731681 -3.20112,2.926729 -3.9328,3.658417 -0.73168,0.73168 -1.92067,2.012125 -2.19505,2.926729 -0.27438,0.914603 -1.3719,3.292569 -4.02425,3.932794 1.55483,-3.566954 0.64022,-9.146034 0.4573,-11.158159 -0.18292,-2.012132 0.36584,-4.20718 0.73168,-3.932795 z"
         id="path3" />
      <path
         style="fill:#d9bd91;fill-opacity:1;stroke-width:0.708128;stroke-linecap:square;paint-order:markers stroke fill"
         d="m 83.011973,91.295006 c 0,0 -0.503032,1.097524 -0.914603,1.463365 -0.411571,0.365841 -1.554825,2.103586 -1.829206,2.423703 -0.274382,0.320109 -0.960334,0.594487 -1.188985,0.73168 -0.228651,0.137193 -0.228651,0.548764 -0.457302,1.188983 -0.228649,0.640225 -1.966396,3.704143 -2.195047,4.161443 -0.22865,0.4573 -1.051795,2.24078 -1.417636,2.51516 -0.365841,0.27438 -0.365841,0.36584 -0.274382,0.68595 0.09146,0.32011 0.503033,0.82315 0.365843,1.0518 -0.137192,0.22865 -0.594492,0.13719 -0.594492,0.41157 0,0.27438 0.503031,0.36584 0.777413,0.59449 0.274381,0.22865 0.823143,0.18292 0.777412,-0.36584 -0.04573,-0.54876 0.457302,-2.83527 0.731683,-3.42976 0.274381,-0.5945 1.783477,-2.926732 2.012128,-3.384034 0.228651,-0.457302 0.823143,-1.051797 1.554824,-1.92067 0.731684,-0.868873 2.057859,-2.103587 2.46943,-2.240772 0.411571,-0.137193 1.188986,-1.966401 1.280445,-2.195052 0.09146,-0.228651 -1.097525,-1.692016 -1.097525,-1.692016 z"
         id="path8" />
      <path
         style="fill:#9d7b67;fill-opacity:1;stroke-width:0.708128;stroke-linecap:square;paint-order:markers stroke fill"
         d="m 84.841181,83.017846 c -0.548763,0.228651 -1.509096,0.594491 -2.46943,1.143254 -0.960332,0.548761 -1.920667,2.012128 -2.83527,2.377969 -0.914604,0.36584 -2.469429,0.32011 -3.109651,0.04573 -0.640222,-0.274381 -1.371906,-0.960335 -1.371906,-0.960335 0,0 -0.18292,0 -0.411571,-0.04573 -0.228651,-0.04573 0.503033,1.051796 0.960333,1.280445 0.457302,0.228651 2.51516,0.548763 2.83527,0.548763 0.320113,0 2.46943,-0.960334 3.018191,-1.646285 0.548763,-0.685953 1.783477,-1.326176 2.103589,-1.463367 0.32011,-0.13719 0.594492,-0.09146 0.685951,0.18292 0.09146,0.274381 0.594494,-1.463364 0.594494,-1.463364 z"
         id="path9" />
      <path
         style="fill:url(#linearGradient7);fill-opacity:1;stroke-width:0.708128;stroke-linecap:square;paint-order:markers stroke fill"
         d="m 91.472054,81.69167 c -1.646285,-0.411571 -4.823093,0.171946 -5.762,0.411571 -1.893585,0.483276 -1.783477,2.789542 -2.103589,3.475493 -0.32011,0.685953 -0.823143,4.024256 -0.685951,5.076049 0.13719,1.051795 0.13719,3.749872 0,4.390098 -0.137192,0.640218 -0.777414,2.057856 -1.188985,2.28651 -0.411571,0.228648 -0.823143,0.457302 -0.823143,0.457302 0,0 -0.13719,0.960328 -0.411571,1.783471 -0.274382,0.823146 -1.554826,3.521226 -1.829207,4.161446 -0.27438,0.64022 -0.731682,1.09752 -0.960333,1.28045 -0.228651,0.18291 0.274379,0.64022 0.457302,0.77741 0.18292,0.13719 0.18292,0.13719 0.18292,0.41157 0,0.27438 -0.411571,1.00607 -0.411571,1.00607 0,0 0.594492,0.41157 0.914602,0.36584 0.320112,-0.0457 0.274381,-0.41157 0.320112,-0.73169 0.04573,-0.32011 0.228651,-0.96033 0.411571,-1.92066 0.18292,-0.96034 1.417634,-3.79561 2.012128,-4.75594 0.594492,-0.960336 2.652348,-3.292571 3.475493,-4.161444 0.823142,-0.868873 1.920667,-2.195052 3.155381,-3.246845 1.234713,-1.051793 1.966397,-1.280444 2.332238,-1.006063 0.365842,0.274382 2.149317,-7.179637 2.012128,-8.002779 -0.13719,-0.823143 -1.097525,-2.057859 -1.097525,-2.057859 z"
         id="path6" />
      <path
         style="fill:url(#linearGradient2);stroke-width:0.708128;stroke-linecap:square;paint-order:markers stroke fill"
         d="m 91.883626,92.987022 c -1.188984,-1.371906 -0.59641,-0.690826 -1.408866,-1.631301 -0.29258,-0.338682 1.326595,-3.104699 1.292878,-5.586404 -0.03634,-2.674482 -1.164457,-4.306298 -0.06693,-4.031916 l 1.097525,0.274381 c 0,0 7.133906,0.457302 9.603327,0.365841 2.46944,-0.09146 5.85347,-0.182921 7.13391,-0.914604 1.28045,-0.731681 4.11571,-1.646285 5.39616,-1.188983 1.28044,0.457302 2.74381,1.646285 3.20111,2.012128 0.45731,0.365841 1.64629,2.515158 1.28045,3.3383 -0.36584,0.823144 0,5.167509 -0.27439,6.082114 -0.27438,0.914603 -0.45729,2.743808 -0.73168,3.475496 -0.27438,0.73168 -1.28044,2.743805 -2.83527,2.652343 -1.55483,-0.09145 -3.47549,-0.457302 -5.762,-1.920663 -2.28651,-1.463368 -4.11571,-0.182924 -6.6766,0.182917 -2.56089,0.365847 -8.139969,0.274385 -11.249621,-3.109649 z"
         id="path1" />
      <path
         style="fill:#20200d;fill-opacity:1;stroke-width:0.708128;stroke-linecap:square;paint-order:markers stroke fill"
         d="m 129.69953,79.74755 c -0.0647,-0.194018 -0.38803,-0.388033 -0.51738,-0.517379 -0.12935,-0.129343 -1.45513,-0.873074 -1.64914,-1.002419 -0.19402,-0.129344 -0.64673,-0.194016 -0.84074,-0.291024 -0.19402,-0.09701 -0.25869,0.06467 0.0647,0.226352 0.32336,0.161681 1.19644,0.549714 1.45513,0.808403 0.25868,0.258688 0.61438,0.743731 0.8084,0.937749 0.19402,0.194015 0.67906,-0.161682 0.67906,-0.161682 z"
         id="path4" />
      <path
         style="fill:#20200d;fill-opacity:1;stroke-width:0.708128;stroke-linecap:square;paint-order:markers stroke fill"
         d="m 129.02047,80.135583 c 0,0 -0.97009,-0.808403 -1.35812,-0.970082 -0.38803,-0.161681 -1.29344,-0.67906 -1.55213,-0.743731 -0.25869,-0.06467 -0.32336,0.03233 -0.48504,0.03233 -0.16168,0 0.0647,0.06467 0.32336,0.25869 0.25868,0.194016 1.03476,0.355698 1.22877,0.614385 0.19402,0.258689 1.00242,0.970084 1.13177,1.131765 0.12934,0.161681 0.32336,0.09701 0.32336,0.09701 z"
         id="path5" />
    </g>
  </g>
</svg>
