<?xml version="1.0" encoding="UTF-8" standalone="no"?>
<!-- Created with Inkscape (http://www.inkscape.org/) -->

<svg
   width="61.021313mm"
   height="27.160147mm"
   viewBox="0 0 61.021313 27.160147"
   version="1.1"
   id="svg1"
   xmlns:xlink="http://www.w3.org/1999/xlink"
   xmlns="http://www.w3.org/2000/svg"
   xmlns:svg="http://www.w3.org/2000/svg">
  <defs
     id="defs1">
    <linearGradient
       xlink:href="#linearGradient12"
       id="linearGradient10-6"
       x1="120.61116"
       y1="101.56605"
       x2="121.19238"
       y2="83.823471"
       gradientUnits="userSpaceOnUse"
       spreadMethod="pad"
       gradientTransform="matrix(0.70812818,0,0,0.70812818,33.23961,80.415767)" />
    <linearGradient
       id="linearGradient12">
      <stop
         style="stop-color:#dabb90;stop-opacity:1;"
         offset="0"
         id="stop12" />
      <stop
         style="stop-color:#a65e36;stop-opacity:1;"
         offset="0.46862555"
         id="stop11" />
      <stop
         style="stop-color:#58271a;stop-opacity:1;"
         offset="1"
         id="stop10" />
    </linearGradient>
    <linearGradient
       xlink:href="#linearGradient1"
       id="linearGradient2-1"
       x1="99.654007"
       y1="80.162796"
       x2="99.654007"
       y2="105.13877"
       gradientUnits="userSpaceOnUse"
       gradientTransform="matrix(0.70576578,0.05779426,-0.05779426,0.70576578,38.495855,73.668571)" />
    <linearGradient
       id="linearGradient1">
      <stop
         style="stop-color:#58271a;stop-opacity:1;"
         offset="0.08000492"
         id="stop1" />
      <stop
         style="stop-color:#ae6439;stop-opacity:1;"
         offset="0.53455281"
         id="stop3" />
      <stop
         style="stop-color:#c6996f;stop-opacity:1;"
         offset="0.85067111"
         id="stop2" />
    </linearGradient>
    <linearGradient
       xlink:href="#linearGradient6"
       id="linearGradient17"
       x1="18.601461"
       y1="79.088303"
       x2="18.601461"
       y2="104.09682"
       gradientUnits="userSpaceOnUse"
       gradientTransform="translate(66.540926,57.030059)" />
    <linearGradient
       id="linearGradient6">
      <stop
         style="stop-color:#58271a;stop-opacity:1;"
         offset="0"
         id="stop6" />
      <stop
         style="stop-color:#a65e36;stop-opacity:1;"
         offset="0.4105691"
         id="stop8" />
      <stop
         style="stop-color:#dabb90;stop-opacity:1;"
         offset="1"
         id="stop7" />
    </linearGradient>
  </defs>
  <g
     id="layer1"
     transform="translate(-74.347916,-134.93751)">
    <path
       style="fill:#c5aa7b;fill-opacity:1;stroke-width:0.708128;stroke-linecap:square;paint-order:markers stroke fill"
       d="m 117.1657,153.49286 c 0.42314,0.62432 1.47995,1.64987 2.00887,2.43028 0.52891,0.7804 1.17931,1.75984 1.73129,2.33703 0.55197,0.5772 1.79311,1.97358 2.24665,2.14854 0.45355,0.17496 1.32503,0.29443 1.71256,0.68831 0.38754,0.39388 0.50586,0.98362 0.0135,0.96892 -0.49231,-0.0147 -1.4298,0.0847 -1.70737,-0.009 -1.07152,-0.53324 -0.002,-1.07051 -2.37651,-2.63666 -2.37449,-1.56615 -2.92229,-1.99879 -3.51303,-2.41573 -0.59074,-0.41693 -1.93032,-2.21554 -1.76588,-2.03222 0.16444,0.18332 1.13033,-1.436 1.64988,-1.47995 z"
       id="path12-7" />
    <path
       style="fill:#c5aa7b;fill-opacity:1;stroke-width:0.708128;stroke-linecap:square;paint-order:markers stroke fill"
       d="m 117.00023,152.14449 c 0,0 -1.46053,0.9765 -1.86014,1.35536 -0.39961,0.37887 -2.46541,1.99201 -3.01342,2.49587 -0.548,0.50384 -1.65839,1.14314 -2.11792,1.1497 -0.45954,0.007 -0.81748,0.43488 -0.93592,0.74602 -0.11847,0.31114 -0.19649,1.22241 -0.31098,1.48799 -0.11457,0.26558 0.0143,0.36841 0.60793,-0.13154 0.59357,-0.49995 2.15302,-1.55977 2.69712,-2.01806 0.54412,-0.45829 1.46053,-0.9765 2.17909,-1.32806 0.71856,-0.35156 1.7183,-0.77084 2.29627,-1.08854 0.57797,-0.3177 1.27437,-0.94653 1.47613,-1.15875 0.20176,-0.21221 -0.12249,-1.24972 -0.12249,-1.24972 z"
       id="path13-3" />
    <path
       style="fill:url(#linearGradient10-6);stroke-width:0.708128;stroke-linecap:square;paint-order:markers stroke fill"
       d="m 117.93188,139.68207 c 1.00606,0.36584 1.73775,1.00606 4.20718,0.0915 2.46942,-0.9146 4.66447,-1.92067 5.48761,-1.92067 -0.64021,-0.36584 -1.53358,-0.84438 -2.17935,-1.4957 -0.50294,-0.50726 0.64022,-0.12475 0.64022,-0.12475 0,0 -0.26883,0.35016 0.46285,0.35016 0.73168,0 1.16775,0.99591 1.71651,1.08737 0.64022,-0.73168 0.65131,-0.57 1.10862,-0.79635 0.4573,-0.73168 0.9035,-1.30724 1.26934,-1.3987 0.36584,-0.0914 -0.0915,0.36585 -0.27437,0.82315 -0.18293,0.4573 -0.45731,0.82314 -0.45731,0.82314 1.46336,0.36584 2.10359,1.55483 2.65235,2.19505 1.28045,0.9146 2.46943,1.92066 2.74381,2.37797 0.27439,0.4573 -0.4573,0.9146 -0.9146,1.18898 -0.45731,0.27438 -1.64629,-0.27438 -2.10359,-0.54876 -0.4573,-0.27438 -1.37191,-0.64022 -2.01213,-0.54876 -0.64022,0.0915 -1.3719,-0.0915 -1.55483,0 -0.18291,0.0915 -1.46336,1.73774 -1.8292,2.46943 -0.36584,0.73168 -3.20111,2.92672 -3.93279,3.65841 -0.73168,0.73168 -1.92067,2.01213 -2.19505,2.92673 -0.27438,0.9146 -1.37191,3.29257 -4.02426,3.9328 0.13409,-3.56696 0.64023,-9.14604 0.4573,-11.15816 -0.18291,-2.01214 0.36585,-4.20718 0.73169,-3.9328 z"
       id="path3-8" />
    <path
       style="fill:#9d7b67;fill-opacity:1;stroke-width:0.708128;stroke-linecap:square;paint-order:markers stroke fill"
       d="m 84.767021,137.2894 c -0.565594,0.1831 -1.552582,0.46934 -2.554499,0.9379 -1.001916,0.46855 -2.078481,1.84866 -3.019891,2.13863 -0.941411,0.28997 -2.487317,0.1175 -3.103009,-0.20822 -0.615693,-0.32572 -1.28895,-1.0691 -1.28895,-1.0691 0,0 -0.18231,-0.0149 -0.406466,-0.0792 -0.224156,-0.0642 0.415511,1.08934 0.852624,1.35455 0.437115,0.26521 2.461982,0.75221 2.781024,0.77834 0.319045,0.0261 2.53957,-0.75559 3.142484,-1.39446 0.602917,-0.63888 1.885764,-1.1762 2.216005,-1.2868 0.330239,-0.11061 0.599973,-0.0426 0.668734,0.23829 0.06876,0.28093 0.711944,-1.40996 0.711944,-1.40996 z"
       id="path9-2" />
    <path
       style="fill:url(#linearGradient2-1);stroke-width:0.708128;stroke-linecap:square;paint-order:markers stroke fill"
       d="m 90.972331,147.80009 c -1.073048,-1.46437 -0.538038,-0.7372 -1.271026,-1.74084 -0.263962,-0.36143 1.575561,-2.98607 1.744502,-5.46225 0.182061,-2.66853 -0.809111,-4.38697 0.262361,-4.02393 l 1.071469,0.36304 c 0,0 7.072784,1.03802 9.541443,1.1484 2.46865,0.11039 5.84886,0.29543 7.18475,-0.32931 1.33589,-0.62474 4.23634,-1.30489 5.47519,-0.74461 1.23885,0.56028 2.6003,1.86473 3.02622,2.26668 0.42592,0.40194 1.43552,2.64113 1.00371,3.43167 -0.4318,0.79054 -0.42175,5.15027 -0.76986,6.03943 -0.34811,0.88915 -0.67971,2.69733 -1.01289,3.40418 -0.33318,0.70685 -1.50012,2.63015 -3.04229,2.41209 -1.54218,-0.21804 -3.42657,-0.73943 -5.58602,-2.38452 -2.15945,-1.6451 -4.08705,-0.51822 -6.66926,-0.36261 -2.582205,0.15562 -8.135207,-0.39088 -10.958296,-4.01742 z"
       id="path1-1" />
    <path
       style="fill:#20200d;fill-opacity:1;stroke-width:0.708128;stroke-linecap:square;paint-order:markers stroke fill"
       d="m 129.4072,136.77761 c -0.0647,-0.19402 -0.38803,-0.38803 -0.51737,-0.51738 -0.12935,-0.12934 -1.45513,-0.87307 -1.64914,-1.00242 -0.19402,-0.12934 -0.64673,-0.19402 -0.84074,-0.29102 -0.19402,-0.097 -0.2587,0.0647 0.0647,0.22635 0.32336,0.16168 1.19643,0.54971 1.45512,0.8084 0.25869,0.25869 0.61439,0.74373 0.8084,0.93775 0.19402,0.19402 0.67906,-0.16168 0.67906,-0.16168 z"
       id="path4-6" />
    <path
       style="fill:#20200d;fill-opacity:1;stroke-width:0.708128;stroke-linecap:square;paint-order:markers stroke fill"
       d="m 128.72815,137.16564 c 0,0 -0.97009,-0.8084 -1.35812,-0.97008 -0.38804,-0.16168 -1.29344,-0.67906 -1.55214,-0.74373 -0.25868,-0.0647 -0.32335,0.0323 -0.48504,0.0323 -0.16167,0 0.0647,0.0647 0.32337,0.25869 0.25868,0.19401 1.03475,0.3557 1.22877,0.61438 0.19402,0.25869 1.00242,0.97009 1.13176,1.13177 0.12935,0.16168 0.32336,0.097 0.32336,0.097 z"
       id="path5-4" />
    <path
       style="fill:#d9bd91;fill-opacity:1;stroke:none;stroke-width:1;stroke-linecap:square;stroke-opacity:1;paint-order:markers stroke fill"
       d="m 81.884099,145.80127 c -0.730627,0.54797 -1.461254,1.2786 -2.100553,1.2786 -0.639299,0 -0.913284,0.18266 -0.730628,0.73063 0.182657,0.54797 1.004613,1.73524 1.461255,2.5572 0.456642,0.82195 1.917897,3.83579 2.009225,4.65775 0.09133,0.82195 0.639299,0.36531 1.004613,0.73062 0.365313,0.36532 0.09133,0.91329 0.182657,1.2786 0.09133,0.36531 1.187269,-0.45664 1.278597,-0.82195 0.09133,-0.36532 -1.552583,-1.82657 -2.100553,-2.5572 -0.547971,-0.73063 -0.182657,-4.65775 -0.182657,-5.11439 0,-0.45664 0.273986,-3.74447 -0.821956,-2.73986 z"
       id="path16" />
    <path
       style="fill:url(#linearGradient17);stroke:none;stroke-width:1;stroke-linecap:square;stroke-opacity:1;paint-order:markers stroke fill"
       d="m 91.108269,136.57711 c -1.461255,-0.45665 -5.388376,-0.82196 -6.301661,0.18265 -0.913284,1.00462 -2.191881,3.28782 -2.28321,4.93174 -0.09133,1.64391 0,3.37915 -0.182657,4.65774 -0.182656,1.2786 -1.187269,2.92252 -1.826568,3.37916 -0.639299,0.45664 -0.913284,0.6393 -0.821956,1.46125 0.09133,0.82196 0.09133,3.74447 0,4.65775 -0.09133,0.91328 -0.639299,1.36993 -0.730627,1.82657 -0.09133,0.45664 -0.09133,0.6393 0.182657,1.09594 0.273985,0.45664 0.182657,1.64391 0.182657,2.10056 0,0.45664 0.365313,0.18265 0.730627,0.0913 0.365314,-0.0913 -0.182657,-2.73985 -0.182657,-3.28782 0,-0.54797 1.643912,-4.84041 1.917897,-5.93635 0.273985,-1.09594 4.56642,-3.28782 5.297048,-3.92712 0.730627,-0.6393 1.826568,-1.9179 2.922509,-1.2786 0.365314,-1.46125 2.922509,-7.21494 1.095941,-9.95479 z"
       id="path15" />
  </g>
</svg>
