<?xml version="1.0" encoding="UTF-8" standalone="no"?>
<!-- Created with Inkscape (http://www.inkscape.org/) -->

<svg
   width="100mm"
   height="100mm"
   viewBox="0 0 100 100"
   version="1.1"
   id="svg1"
   xmlns="http://www.w3.org/2000/svg"
   xmlns:svg="http://www.w3.org/2000/svg">
  <defs
     id="defs1" />
  <g
     id="layer1"
     transform="translate(-73.81875,-108.47916)">
    <path
       style="fill:#4d0000;fill-opacity:1;stroke:none;stroke-width:6.00001;stroke-linecap:square;paint-order:markers stroke fill"
       d="m 121.46956,132.96683 c -0.0351,-1.03267 0.0764,-1.55339 1.10031,-1.84666 1.02389,-0.29327 2.04339,-0.71563 2.40431,-1.50329 0.36092,-0.78767 0.26877,-3.49842 -0.0157,-4.26414 -0.28449,-0.76572 -3.07423,-2.99707 -4.21843,-2.44124 -1.1442,0.55582 -2.98829,3.3324 -2.69502,4.35629 0.29327,1.02388 0.99134,2.55095 1.51646,2.79156 0.52511,0.24061 -0.16163,2.84861 -0.16163,2.84861 l -0.13347,-0.12469 c 0,0 -1.03705,-0.094 -1.53144,0.56899 -0.49439,0.66297 -1.9688,2.91004 -1.9688,2.91004 l -2.45698,-0.0457 c 0,0 -0.80522,-0.87725 -1.2144,-1.5095 -0.40919,-0.63226 -1.059,-0.7394 -1.059,-0.7394 0,0 -2.58788,3.70648 -2.95758,4.23598 -0.3697,0.52951 1.50329,2.40431 1.50329,2.40431 0,0 -0.34336,1.304 -0.30826,2.33667 0.0351,1.03267 0.91932,4.23342 1.47514,5.37762 0.55583,1.1442 2.31289,3.41065 3.19893,2.8636 0.88603,-0.54705 0.73501,-1.18808 0.73501,-1.18808 0,0 -0.0984,0.90797 0.0614,1.80717 0.15979,0.89919 0.38981,3.86371 0.0377,4.90955 -0.35214,1.04583 -1.32337,2.8881 -1.15479,4.04546 0.16858,1.15736 0.23001,2.96453 1.02206,3.45453 l 4.56619,1.26636 4.30546,-2.60177 c 0,0 2.31654,-4.08496 2.53083,-5.38457 0.21428,-1.2996 -1.58208,-6.29698 -1.62158,-7.45873 -0.0395,-1.16174 -0.36382,-3.48071 -0.67025,-4.89185 -0.30643,-1.41114 0.6596,-2.95849 0.31022,-4.12381 -0.41208,-1.37447 -0.80338,-4.62505 -1.23014,-5.77365 -0.42674,-1.14858 -1.36981,-2.27961 -1.36981,-2.27961 z"
       id="path1-6-6-6-8-9" />
    <path
       style="fill:#4d0000;fill-opacity:1;stroke:none;stroke-width:6.00001;stroke-linecap:square;paint-order:markers stroke fill"
       d="m 121.01661,135.66525 c 0,0 2.56895,0.65082 4.64868,0.54132 2.07972,-0.1095 4.24535,1.108 5.14545,0.83601 0.90001,-0.27222 2.6691,-1.10305 2.6691,-1.10305 0,0 4.25205,-1.50725 5.22961,-2.13624 0.97755,-0.62897 3.51445,-2.41491 4.27476,-2.90411 0.76032,-0.48922 1.31853,-1.76991 1.86162,-2.11935 0.54308,-0.34939 1.19477,-0.76876 1.19477,-0.76876 l 0.40417,1.58295 c 0,0 -0.23238,1.07103 -0.99268,1.56024 -0.76033,0.48922 -1.89366,-0.3174 -2.01743,0.68374 -0.12375,1.00114 -4.4221,3.15251 -5.57815,3.74277 -1.15605,0.59027 -3.50688,1.94928 -4.51558,2.29115 -1.00869,0.34192 0.7376,0.90766 -1.87008,0.43534 -2.60766,-0.47232 -5.4477,0.12639 -6.59619,0.25102 -1.14847,0.12464 -2.18076,-0.28624 -2.46032,-0.7207 -0.27959,-0.43444 -1.39775,-2.17232 -1.39775,-2.17232 z"
       id="path2-2-5-9-3-6" />
    <path
       style="fill:#4d0000;fill-opacity:1;stroke:none;stroke-width:6.00001;stroke-linecap:square;paint-order:markers stroke fill"
       d="m 127.06939,115.9515 c 0,0 2.65396,-0.17181 4.78844,0.75856 2.13448,0.93036 5.36355,2.84586 6.28724,3.32662 0.92367,0.48077 2.80976,1.26378 3.40758,1.9542 0.59784,0.69045 3.10533,2.91663 3.30744,3.7081 0.20175,0.79157 1.02561,3.02611 1.19652,3.53046 0.17096,0.50434 0.59114,3.30567 0.89428,4.49287 0.3031,1.18722 -0.60363,4.07443 -0.72738,5.07557 -0.12377,1.00114 -1.59633,5.63467 -1.99964,6.20133 -0.4033,0.56667 -0.91524,1.20323 -1.48948,1.26555 -0.57423,0.0623 -1.02472,-0.8765 -0.40417,-1.58295 0.62054,-0.70643 2.25735,-2.22037 3.11696,-6.61309 0.85959,-4.3927 0.28448,-6.48001 -0.38412,-9.42866 -0.6686,-2.94865 -1.94173,-3.97251 -3.49437,-5.4308 -1.55268,-1.45832 -4.71187,-3.26519 -6.41188,-4.4751 -1.70002,-1.20992 -3.91951,-1.31766 -4.71098,-1.11556 -0.79158,0.20175 -1.35815,-0.20122 -1.35815,-0.20122 z"
       id="path4-1-3-7-8-4" />
    <path
       style="fill:#4d0000;fill-opacity:1;stroke:none;stroke-width:6.00001;stroke-linecap:square;paint-order:markers stroke fill"
       d="m 111.38642,134.25605 c 0,0 -1.2114,-0.68987 -1.58892,-1.04256 -0.37751,-0.35269 -0.37751,-0.35269 -0.37751,-0.35269 l -0.25211,0.64824 c 0,0 1.76217,0.76253 1.96024,1.2127 0.19806,0.45017 0.2583,-0.46569 0.2583,-0.46569 z"
       id="path7-7-3-9-3-5" />
    <path
       style="fill:#4d0000;fill-opacity:1;stroke:none;stroke-width:6.00001;stroke-linecap:square;paint-order:markers stroke fill"
       d="m 110.61149,135.65311 -1.51936,-1.6846 -0.25211,0.64824 c 0,0 1.13254,1.05808 1.42189,1.50515 0.28933,0.44707 0.34958,-0.46879 0.34958,-0.46879 z"
       id="path8-6-3-8-3-7" />
    <path
       style="fill:#4d0000;fill-opacity:1;stroke:none;stroke-width:6.00001;stroke-linecap:square;paint-order:markers stroke fill"
       d="m 109.82724,136.77634 -1.74225,-2.86496 -0.0788,0.3682 1.48705,3.42193 z"
       id="path9-5-4-9-5-9" />
    <path
       style="fill:#4d0000;fill-opacity:1;stroke:none;stroke-width:6.00001;stroke-linecap:square;paint-order:markers stroke fill"
       d="m 109.57514,137.42458 -1.99126,-2.12545 -0.0695,0.64203 z"
       id="path10-2-2-7-3-0" />
    <path
       style="fill:#4d0000;fill-opacity:1;stroke:none;stroke-width:1;stroke-linecap:square;stroke-dasharray:none;stroke-opacity:1;paint-order:markers stroke fill"
       d="m 123.64699,162.15703 c -1.03326,2.32484 -4.64968,12.39915 -7.49116,13.69073 -2.84147,1.29158 -0.77494,3.61642 -2.58315,3.61642 -1.80822,0 -15.757257,7.74948 -17.048847,9.29937 -1.29156,1.54989 -0.77494,2.84147 -0.25831,4.64968 0.51664,1.80821 1.29157,2.32485 1.29157,2.32485 0,0 -1.54987,0.25832 -2.06651,-1.5499 -0.51664,-1.80821 -1.291587,-5.68295 -1.291587,-5.68295 -0.73063,-2.19188 -0.2583,-2.58315 1.808207,-2.58315 2.06653,0 9.557687,-6.19958 11.107577,-7.23284 1.5499,-1.03327 1.80821,-1.29158 3.61642,-1.03327 1.80821,0.25832 1.80821,-0.77495 1.80821,-0.77495 0,0 1.5499,-1.03326 2.58316,-3.3581 1.03326,-2.32484 3.87474,-9.816 5.16632,-10.84926 1.29157,-1.03327 3.3581,-0.51663 3.3581,-0.51663 z"
       id="path17-1-3" />
    <path
       style="fill:#4d0000;fill-opacity:1;stroke:none;stroke-width:1;stroke-linecap:square;stroke-dasharray:none;stroke-opacity:1;paint-order:markers stroke fill"
       d="m 122.87204,162.15703 c 0,0 6.4579,3.3581 8.78274,4.908 2.32484,1.54989 5.16631,3.09978 5.42463,3.87473 0.25832,0.77495 -1.29158,3.09979 -1.80821,4.64969 -0.51663,1.54989 -1.80821,7.23284 -2.32484,8.52442 -0.51663,1.29157 -1.29158,4.13305 -1.03327,5.68294 0.25832,1.5499 2.58316,2.58316 4.13306,4.13306 1.54989,1.54989 3.61642,2.06652 1.29158,1.80821 -2.32485,-0.25832 -3.87474,-2.06653 -5.68295,-3.61643 -1.80821,-1.54989 -1.03326,-1.80821 -1.03326,-3.09978 0,-1.29158 0.51663,-14.20737 1.54989,-15.24063 1.03326,-1.03327 2.06653,-1.80822 2.06653,-1.80822 0,0 0.77494,-0.77494 -1.5499,-1.29157 -2.32484,-0.51664 -9.816,-4.39137 -11.10758,-5.94127 -1.29158,-1.54989 1.29158,-2.58315 1.29158,-2.58315 z"
       id="path18-9-6" />
    <path
       style="fill:#4d0000;fill-opacity:1;stroke-width:1;stroke-linecap:square;paint-order:markers stroke fill"
       d="m 129.48421,117.49617 1.37805,4.95713 1.21501,3.48029 0.66376,1.6865 3.01303,5.54531 2.06313,3.87404 0.88833,2.41731 2.39013,3.99168 1.29244,1.12973 0.45989,0.0768 -0.49553,-0.42941 -1.26166,-1.50274 -0.73536,-1.44637 -1.50667,-2.29999 -0.57173,-1.8602 -0.77098,-1.79898 -1.52708,-2.36644 -0.70972,-1.59966 -1.16928,-2.62182 -0.98556,-2.02386 -1.251,-2.88754 -0.79624,-2.59104 -0.53572,-2.45295 -0.33673,-1.56888 z"
       id="path3-7-1-5" />
  </g>
</svg>
