<?xml version="1.0" encoding="UTF-8" standalone="no"?>
<!-- Created with Inkscape (http://www.inkscape.org/) -->

<svg
   width="100mm"
   height="100mm"
   viewBox="0 0 100 100"
   version="1.1"
   id="svg1"
   xmlns="http://www.w3.org/2000/svg"
   xmlns:svg="http://www.w3.org/2000/svg">
  <defs
     id="defs1" />
  <g
     id="layer1"
     transform="translate(-73.81875,-108.47916)">
    <path
       style="fill:#4d0000;fill-opacity:1;stroke:none;stroke-width:6.00001;stroke-linecap:square;paint-order:markers stroke fill"
       d="m 125.56864,133.63614 c 0.10426,-1.02799 0.28488,-1.52895 1.33894,-1.68169 1.05406,-0.15273 2.12114,-0.43398 2.58484,-1.16586 0.46369,-0.7319 0.73737,-3.43038 0.55856,-4.22743 -0.17879,-0.79706 -2.64268,-3.38371 -3.8513,-2.98701 -1.20862,0.3967 -3.40978,2.89968 -3.25704,3.95373 0.15273,1.05406 0.63883,2.66121 1.12677,2.97033 0.48793,0.30913 -0.54372,2.80091 -0.54372,2.80091 l -0.11547,-0.14153 c 0,0 -1.01495,-0.23276 -1.59411,0.3576 -0.57915,0.59037 -2.3427,2.61845 -2.3427,2.61845 l -2.42844,-0.37612 c 0,0 -0.67976,-0.97768 -1.00009,-1.65928 -0.32033,-0.68159 -0.94979,-0.87525 -0.94979,-0.87525 0,0 -3.06339,3.32428 -3.50101,3.79917 -0.43764,0.47491 1.16586,2.58484 1.16586,2.58484 0,0 -0.51582,1.24589 -0.62008,2.27388 -0.10426,1.02799 0.34091,4.31865 0.73761,5.52727 0.3967,1.20862 1.8326,3.69102 2.78422,3.26825 0.95162,-0.42276 0.88829,-1.07829 0.88829,-1.07829 0,0 -0.21973,0.88645 -0.18246,1.79898 0.0373,0.91252 -0.13398,3.88102 -0.62374,4.86992 -0.48975,0.98889 -1.7002,2.68361 -1.68899,3.85313 0.0112,1.16952 -0.17125,2.9685 0.54761,3.56069 l 4.35409,1.86966 4.61658,-1.99836 c 0,0 2.84548,-3.73585 3.23281,-4.99477 0.38731,-1.25891 -0.71981,-6.45265 -0.60251,-7.60914 0.11729,-1.15649 0.10817,-3.49801 -0.005,-4.93755 -0.11364,-1.43955 1.05194,-2.84273 0.86266,-4.04449 -0.22327,-1.41744 -0.17332,-4.69111 -0.44153,-5.8867 -0.2682,-1.19559 -1.05039,-2.4433 -1.05039,-2.4433 z"
       id="path1-6-6-7-6" />
    <path
       style="fill:#4d0000;fill-opacity:1;stroke:none;stroke-width:6.00001;stroke-linecap:square;paint-order:markers stroke fill"
       d="m 124.41235,136.3464 c 0,0 2.45791,0.99079 4.53344,1.16232 2.07554,0.17153 4.05752,1.66954 4.98603,1.52122 0.92849,-0.14847 2.79331,-0.73366 2.79331,-0.73366 0,0 4.41628,-0.92099 5.46963,-1.41258 1.05334,-0.49163 3.80762,-1.91971 4.62687,-2.30208 0.81926,-0.38238 1.54484,-1.57625 2.13003,-1.84938 0.58519,-0.27309 1.28741,-0.60089 1.28741,-0.60089 l 0.18733,1.62296 c 0,0 -0.37447,1.02998 -1.19372,1.41237 -0.81927,0.38238 -1.83368,-0.56949 -2.09111,0.40588 -0.25743,0.97535 -4.80632,2.52836 -6.03132,2.95758 -1.22499,0.42928 -3.73741,1.45933 -4.78296,1.66227 -1.04556,0.20293 0.60868,0.99872 -1.91166,0.17959 -2.52031,-0.81914 -5.41511,-0.6083 -6.56992,-0.63944 -1.1548,-0.0311 -2.12237,-0.57726 -2.34088,-1.04542 -0.21851,-0.46813 -1.09252,-2.34074 -1.09252,-2.34074 z"
       id="path2-2-5-98-8" />
    <path
       style="fill:#4d0000;fill-opacity:1;stroke:none;stroke-width:6.00001;stroke-linecap:square;paint-order:markers stroke fill"
       d="m 133.06442,117.62716 c 0,0 2.65293,0.18711 4.6427,1.39641 1.98976,1.20929 4.93152,3.54213 5.78205,4.14289 0.85053,0.60076 2.61401,1.63061 3.11343,2.39523 0.49943,0.76465 2.68433,3.30819 2.77802,4.11967 0.0937,0.81149 0.60881,3.13666 0.71026,3.65942 0.10146,0.52277 0.14065,3.35516 0.28118,4.57238 0.1405,1.21721 -1.14675,3.95604 -1.40418,4.9314 -0.25744,0.97535 -2.34048,5.3684 -2.81642,5.87561 -0.47593,0.50721 -1.06891,1.06904 -1.64631,1.05347 -0.57741,-0.0156 -0.89737,-1.0065 -0.18735,-1.62296 0.71001,-0.61645 2.53576,-1.8962 3.97901,-6.13317 1.44324,-4.23697 1.15441,-6.3827 0.88894,-9.39453 -0.26548,-3.01181 -1.38916,-4.19777 -2.7313,-5.85186 -1.34217,-1.65409 -4.2293,-3.86989 -5.75093,-5.29769 -1.52162,-1.4278 -3.7064,-1.83341 -4.51787,-1.73973 -0.81149,0.0937 -1.31869,-0.38225 -1.31869,-0.38225 z"
       id="path4-1-3-2-7" />
    <path
       style="fill:#4d0000;fill-opacity:1;stroke:none;stroke-width:6.00001;stroke-linecap:square;paint-order:markers stroke fill"
       d="m 115.40375,133.55594 c 0,0 -1.10748,-0.8467 -1.43407,-1.247 -0.32659,-0.40032 -0.32659,-0.40032 -0.32659,-0.40032 l -0.3371,0.60839 c 0,0 1.64345,0.99286 1.7791,1.4656 0.13565,0.47274 0.31866,-0.42667 0.31866,-0.42667 z"
       id="path7-7-3-1-3" />
    <path
       style="fill:#4d0000;fill-opacity:1;stroke:none;stroke-width:6.00001;stroke-linecap:square;paint-order:markers stroke fill"
       d="m 114.44776,134.83593 -1.2787,-1.87383 -0.3371,0.60839 c 0,0 0.97976,1.20094 1.20628,1.6829 0.2265,0.48196 0.40952,-0.41746 0.40952,-0.41746 z"
       id="path8-6-3-7-0" />
    <path
       style="fill:#4d0000;fill-opacity:1;stroke:none;stroke-width:6.00001;stroke-linecap:square;paint-order:markers stroke fill"
       d="m 113.51941,135.84334 -1.34063,-3.07346 -0.12769,0.35423 1.01275,3.591 z"
       id="path9-5-4-0-0" />
    <path
       style="fill:#4d0000;fill-opacity:1;stroke:none;stroke-width:6.00001;stroke-linecap:square;paint-order:markers stroke fill"
       d="m 113.18232,136.45173 -1.68694,-2.37422 -0.15534,0.62683 z"
       id="path10-2-2-9-1" />
    <path
       style="fill:#4d0000;fill-opacity:1;stroke:none;stroke-width:1;stroke-linecap:square;stroke-dasharray:none;stroke-opacity:1;paint-order:markers stroke fill"
       d="m 121.73412,162.51498 c 0,0 1.54989,8.52442 2.32484,10.59095 0.77495,2.06652 1.80821,5.68294 1.80821,6.71621 0,1.03326 -0.77495,5.16631 -1.29158,6.71621 -0.51663,1.54989 -2.06653,6.19958 -2.84147,7.74947 -0.77495,1.5499 -1.03326,1.80821 0.51663,2.84147 1.54989,1.03327 4.39137,1.03327 5.94126,1.5499 1.54989,0.51663 -2.84147,0.77495 -5.16631,0.51663 -2.32484,-0.25832 -1.5499,-1.80821 -3.35811,-2.06653 -1.80821,-0.25831 -1.54989,-0.51663 -0.77495,-2.32484 0.77495,-1.80821 2.58316,-4.908 2.58316,-6.19958 0,-1.29157 0.77495,-6.45789 1.5499,-8.78273 -1.29158,-3.35811 -5.68295,-14.20737 -5.68295,-16.01558 0,-1.80821 2.06653,1.54989 2.32484,0.51663 0.25832,-1.03326 2.06653,-1.80821 2.06653,-1.80821 z"
       id="path15-6-8" />
    <path
       style="fill:#4d0000;fill-opacity:1;stroke:none;stroke-width:1;stroke-linecap:square;stroke-dasharray:none;stroke-opacity:1;paint-order:markers stroke fill"
       d="m 121.21748,162.51498 c 0,0 6.4579,7.74947 6.71621,8.78274 0.25832,1.03326 0.25832,3.61642 0.77495,4.908 0.51663,1.29158 -1.80821,2.32484 -1.80821,2.32484 0,0 -2.32484,-1.5499 -3.87473,-2.32484 -1.5499,-0.77495 -7.2512,-2.60152 -8.54278,-3.63478 -1.29158,-1.03327 -3.23812,-2.90415 -4.27139,-3.42079 -1.03326,-0.51663 -0.36262,0.92627 -1.91252,1.70122 -1.54989,0.77495 -0.94193,0.69928 -2.23351,1.21591 -1.29158,0.51664 2.36022,-2.74217 3.0895,-4.06007 0.37829,-0.68362 0.24264,-1.00953 0.95491,-1.61749 1.43037,-1.22089 0.39128,1.42454 2.97444,3.23275 2.58315,1.80821 9.42471,5.03335 10.97461,5.8083 1.54989,0.77495 1.03326,-0.25832 0.77495,-1.80821 -0.25832,-1.5499 -5.16632,-8.00779 -5.94127,-9.55768 -0.77494,-1.5499 2.32484,-1.5499 2.32484,-1.5499 z"
       id="path16-5-2" />
    <path
       style="fill:#4d0000;fill-opacity:1;stroke-width:1;stroke-linecap:square;paint-order:markers stroke fill"
       d="m 134.78605,119.26213 0.72641,5.09356 0.75543,3.60805 0.44044,1.75809 2.27175,5.88795 1.54562,4.10801 0.56874,2.51179 1.85469,4.26689 1.13574,1.28716 0.44612,0.13554 -0.43592,-0.48979 -1.05706,-1.65308 -0.54243,-1.52922 -1.19707,-2.47527 -0.3267,-1.91847 -0.53222,-1.88348 -1.20873,-2.5438 -0.49722,-1.67792 -0.82094,-2.75086 -0.71597,-2.13418 -0.86766,-3.0249 -0.45505,-2.67215 -0.2145,-2.5016 -0.13135,-1.59922 z"
       id="path3-7-7" />
  </g>
</svg>
