<?xml version="1.0" encoding="UTF-8" standalone="no"?>
<!-- Created with Inkscape (http://www.inkscape.org/) -->

<svg
   width="100mm"
   height="100mm"
   viewBox="0 0 100 100"
   version="1.1"
   id="svg1"
   inkscape:export-filename="khoisan-3.svg"
   inkscape:export-xdpi="96"
   inkscape:export-ydpi="96"
   sodipodi:docname="khoisan-1_no-arrow.svg"
   inkscape:version="1.3.2 (091e20e, 2023-11-25, custom)"
   xmlns:inkscape="http://www.inkscape.org/namespaces/inkscape"
   xmlns:sodipodi="http://sodipodi.sourceforge.net/DTD/sodipodi-0.dtd"
   xmlns="http://www.w3.org/2000/svg"
   xmlns:svg="http://www.w3.org/2000/svg">
  <sodipodi:namedview
     id="namedview1"
     pagecolor="#ffffff"
     bordercolor="#000000"
     borderopacity="0.25"
     inkscape:showpageshadow="2"
     inkscape:pageopacity="0.0"
     inkscape:pagecheckerboard="0"
     inkscape:deskcolor="#d1d1d1"
     inkscape:document-units="mm"
     inkscape:zoom="0.67295124"
     inkscape:cx="744.48188"
     inkscape:cy="302.39933"
     inkscape:window-width="1920"
     inkscape:window-height="1009"
     inkscape:window-x="-8"
     inkscape:window-y="-8"
     inkscape:window-maximized="1"
     inkscape:current-layer="layer1" />
  <defs
     id="defs1" />
  <g
     inkscape:label="Layer 1"
     inkscape:groupmode="layer"
     id="layer1"
     transform="translate(-73.81875,-108.47916)">
    <path
       style="opacity:1;fill:#4d0000;fill-opacity:1;stroke:none;stroke-width:6.00001;stroke-linecap:square;paint-order:markers stroke fill"
       d="m 122.41253,133.14534 c 0,-1.03326 0.12915,-1.54989 1.16242,-1.80821 1.03326,-0.25831 2.06652,-0.64579 2.454,-1.42073 0.38747,-0.77495 0.38747,-3.48727 0.12915,-4.26221 -0.25831,-0.77495 -2.97063,-3.09979 -4.13305,-2.58316 -1.16242,0.51663 -3.09979,3.22895 -2.84147,4.26221 0.25831,1.03326 0.9041,2.58316 1.42074,2.84147 0.51663,0.25832 -0.25832,2.84148 -0.25832,2.84148 l -0.12916,-0.12916 c 0,0 -1.03326,-0.12916 -1.54989,0.51663 -0.51663,0.64579 -2.06653,2.84147 -2.06653,2.84147 l -2.454,-0.12916 c 0,0 -0.77495,-0.9041 -1.16242,-1.54989 -0.38747,-0.64579 -1.03326,-0.77495 -1.03326,-0.77495 0,0 -2.71232,3.61642 -3.09979,4.13305 -0.38748,0.51664 1.42073,2.454 1.42073,2.454 0,0 -0.38747,1.29158 -0.38747,2.32485 0,1.03326 0.77495,4.26221 1.29158,5.42463 0.51663,1.16242 2.19568,3.48726 3.09979,2.97063 0.9041,-0.51663 0.77495,-1.16242 0.77495,-1.16242 0,0 -0.12916,0.9041 0,1.80821 0.12915,0.9041 0.25832,3.87473 -0.12916,4.908 -0.38747,1.03326 -1.42074,2.84147 -1.29158,4.00389 0.12916,1.16242 0.12916,2.97063 0.90411,3.48726 l 4.52053,1.42077 4.39137,-2.45399 c 0,0 2.454,-4.0039 2.71232,-5.29548 0.25831,-1.29157 -1.36724,-6.34709 -1.36724,-7.50951 0,-1.16242 -0.24534,-3.49107 -0.50365,-4.9118 -0.25832,-1.42074 0.75973,-2.93437 0.45015,-4.11089 -0.36515,-1.38768 -0.64579,-4.64968 -1.03327,-5.81211 -0.38747,-1.16242 -1.29157,-2.32484 -1.29157,-2.32484 z"
       id="path1-6-3" />
    <path
       style="opacity:1;fill:#4d0000;fill-opacity:1;stroke:none;stroke-width:6.00001;stroke-linecap:square;paint-order:markers stroke fill"
       d="m 121.70905,135.8597 c 0,0 2.26768,1.37137 4.28901,1.87284 2.02133,0.50147 3.73804,2.29735 4.67832,2.29954 0.94028,0.002 2.87473,-0.27714 2.87473,-0.27714 0,0 4.50675,-0.20238 5.62519,-0.51911 1.11844,-0.31672 4.06575,-1.28562 4.93564,-1.53196 0.8699,-0.24635 1.77718,-1.30871 2.39854,-1.48467 0.62135,-0.17592 1.36697,-0.38712 1.36697,-0.38712 l -0.0748,1.63202 c 0,0 -0.53448,0.95678 -1.40436,1.20313 -0.86991,0.24635 -1.71891,-0.85559 -2.12912,0.066 -0.4102,0.92159 -5.14899,1.72662 -6.42689,1.95427 -1.2779,0.22767 -3.92278,0.84242 -4.98733,0.87542 -1.06456,0.033 0.441,1.08325 -1.91576,-0.12866 -2.35675,-1.21191 -5.24798,-1.46704 -6.38292,-1.68259 -1.13493,-0.21554 -2.00263,-0.90947 -2.14341,-1.40656 -0.14081,-0.49707 -0.70384,-2.48541 -0.70384,-2.48541 z"
       id="path2-2-8" />
    <path
       style="opacity:1;fill:#4d0000;fill-opacity:1;stroke:none;stroke-width:6.00001;stroke-linecap:square;paint-order:markers stroke fill"
       d="m 133.24529,118.76633 c 0,0 2.58879,0.60925 4.35939,2.12139 1.7706,1.51214 4.30111,4.28568 5.04454,5.01481 0.74343,0.72913 2.31937,2.02791 2.68999,2.86261 0.37062,0.83472 2.12032,3.69513 2.08294,4.51114 -0.0374,0.81602 0.099,3.19366 0.11548,3.72593 0.0165,0.53227 -0.39809,3.33443 -0.45417,4.55844 -0.0561,1.22401 -1.76506,3.72154 -2.17526,4.64313 -0.41021,0.92159 -3.16944,4.92467 -3.72042,5.34917 -0.55096,0.42451 -1.22621,0.8842 -1.79368,0.77643 -0.56747,-0.10777 -0.72473,-1.13713 0.0748,-1.63202 0.79951,-0.49488 2.80653,-1.46597 4.90923,-5.41736 2.10269,-3.95139 2.16097,-6.11569 2.3809,-9.13119 0.21993,-3.01549 -0.69947,-4.36598 -1.75961,-6.21353 -1.06017,-1.84757 -3.55549,-4.49684 -4.82901,-6.14975 -1.27352,-1.65291 -3.36522,-2.40292 -4.18123,-2.44031 -0.81602,-0.0374 -1.24052,-0.58836 -1.24052,-0.58836 z"
       id="path4-1-1" />
    <path
       style="opacity:1;fill:#4d0000;fill-opacity:1;stroke:none;stroke-width:6.00001;stroke-linecap:square;paint-order:markers stroke fill"
       d="m 112.29142,134.09124 c 0,0 -1.18726,-0.73063 -1.55258,-1.09594 -0.36531,-0.36532 -0.36531,-0.36532 -0.36531,-0.36532 l -0.27399,0.6393 c 0,0 1.73524,0.82196 1.9179,1.2786 0.18266,0.45664 0.27398,-0.45664 0.27398,-0.45664 z"
       id="path7-7-31" />
    <path
       style="opacity:1;fill:#4d0000;fill-opacity:1;stroke:none;stroke-width:6.00001;stroke-linecap:square;paint-order:markers stroke fill"
       d="m 111.46947,135.46116 -1.46125,-1.73524 -0.27399,0.6393 c 0,0 1.09594,1.09594 1.36993,1.55259 0.27398,0.45664 0.36531,-0.45665 0.36531,-0.45665 z"
       id="path8-6-5" />
    <path
       style="opacity:1;fill:#4d0000;fill-opacity:1;stroke:none;stroke-width:6.00001;stroke-linecap:square;paint-order:markers stroke fill"
       d="m 110.64751,136.5571 -1.64391,-2.9225 -0.0913,0.36531 1.36993,3.47048 z"
       id="path9-5-45" />
    <path
       style="opacity:1;fill:#4d0000;fill-opacity:1;stroke:none;stroke-width:6.00001;stroke-linecap:square;paint-order:markers stroke fill"
       d="m 110.37353,137.1964 -1.9179,-2.19188 -0.0913,0.6393 z"
       id="path10-2-21" />
    <path
       style="opacity:1;fill:#4d0000;fill-opacity:1;stroke:none;stroke-width:1;stroke-linecap:square;stroke-dasharray:none;stroke-opacity:1;paint-order:markers stroke fill"
       d="m 115.66024,164.0553 c 0,0 0.64578,1.93736 0,2.58315 -0.6458,0.64579 -5.29548,4.0039 -6.71621,8.52442 -0.27925,0.88853 -0.90411,0.77495 -0.90411,0.77495 0,0 -5.29547,-6.19958 -7.23284,-7.362 -1.937369,-1.16242 -2.841474,-2.454 -3.616421,-2.58316 -0.774947,-0.12915 -1.291579,-1.93736 -1.937368,-1.80821 -0.64579,0.12916 -3.09979,2.19569 -4.003895,2.71232 -0.904105,0.51663 -1.679052,2.71232 -1.679052,2.71232 0,0 1.420737,0.77494 1.679052,0 0.258316,-0.77495 2.195684,-3.09979 2.841474,-3.22895 0.645789,-0.12916 1.937368,-0.12916 2.454,0.77495 0.516631,0.9041 7.87863,6.84536 8.78274,8.00778 0.9041,1.16243 1.93736,2.71232 2.58315,2.58316 0.64579,-0.12916 3.22895,-2.84147 4.0039,-3.48726 0.77494,-0.64579 6.45789,-7.62032 6.84536,-8.39526 0.38748,-0.77495 0.77495,-1.80821 -0.38747,-1.80821 -1.16242,0 -2.71231,0 -2.71231,0 z"
       id="path13-8" />
    <path
       style="opacity:1;fill:#4d0000;fill-opacity:1;stroke:none;stroke-width:1;stroke-linecap:square;stroke-dasharray:none;stroke-opacity:1;paint-order:markers stroke fill"
       d="m 121.40586,164.31361 c 0.9041,1.42074 4.77884,8.78274 5.8121,9.42853 1.03326,0.64579 3.48727,3.09979 4.39137,3.48726 0.90411,0.38747 0.64579,0.38747 0.38747,1.29158 -0.25831,0.9041 0.90411,4.908 1.03326,5.8121 0.12916,0.90411 1.67906,4.0039 1.93737,5.03716 0.25832,1.03326 1.16243,2.71232 1.16243,3.61642 0,0.90411 0.38747,3.09979 1.16242,3.48727 0.77494,0.38747 1.29157,0.64578 2.45399,1.16242 1.16243,0.51663 2.06653,0.9041 2.97064,1.03326 0.9041,0.12916 -1.67906,-1.29158 -2.454,-1.93737 -0.77495,-0.64579 -1.80821,-1.42074 -2.06653,-2.06653 -0.25832,-0.64578 -2.19568,-8.52442 -2.97063,-11.23673 -0.77495,-2.71232 -2.06653,-5.42463 -2.84147,-6.84537 -0.77495,-1.42074 -3.48727,-7.23284 -4.77884,-8.91189 -1.29158,-1.67906 -1.93737,-4.52053 -2.32485,-5.16632 -0.38747,-0.64579 -1.16242,-0.9041 -1.16242,-0.9041 0,0 -1.42073,-0.51664 -1.93736,0.12915 -0.51664,0.64579 -0.77495,2.58316 -0.77495,2.58316 z"
       id="path14-7" />
    <path
       style="opacity:1;fill:#4d0000;fill-opacity:1;stroke-width:1;stroke-linecap:square;paint-order:markers stroke fill"
       d="m 135.05094,120.93996 -0.139,5.14323 0.139,3.68366 0.13901,1.80708 1.25105,6.18577 0.83404,4.30919 0.139,2.57161 1.11205,4.5177 0.90354,1.45956 0.41702,0.20851 -0.34751,-0.55602 -0.76454,-1.80708 -0.27801,-1.59857 -0.76453,-2.64112 v -1.94608 l -0.20851,-1.94609 -0.76453,-2.71062 -0.20851,-1.73757 -0.34752,-2.84963 -0.34752,-2.2241 -0.34751,-3.12763 v -2.71062 l 0.20851,-2.50211 0.139,-1.59857 z"
       id="path3" />
  </g>
</svg>
