<?xml version="1.0" encoding="UTF-8" standalone="no"?>
<!-- Created with Inkscape (http://www.inkscape.org/) -->

<svg
   width="62.27002mm"
   height="79.91153mm"
   viewBox="0 0 62.27002 79.91153"
   version="1.1"
   id="svg1"
   xmlns="http://www.w3.org/2000/svg"
   xmlns:svg="http://www.w3.org/2000/svg">
  <defs
     id="defs1" />
  <g
     id="layer1"
     transform="translate(-73.81875,-108.47916)">
    <path
       style="fill:#4d0000;fill-opacity:1;stroke:none;stroke-width:6.00001;stroke-linecap:square;paint-order:markers stroke fill"
       d="m 106.73943,122.84744 c 0,-1.03326 0.12915,-1.54989 1.16242,-1.80821 1.03326,-0.25831 2.06652,-0.64579 2.454,-1.42073 0.38747,-0.77495 0.38747,-3.48727 0.12915,-4.26221 -0.25831,-0.77495 -2.97063,-3.09979 -4.13305,-2.58316 -1.16242,0.51663 -3.09979,3.22895 -2.84147,4.26221 0.25831,1.03326 0.9041,2.58316 1.42074,2.84147 0.51663,0.25832 -0.25832,2.84148 -0.25832,2.84148 l -0.12916,-0.12916 c 0,0 -1.03326,-0.12916 -1.54989,0.51663 -0.51663,0.64579 -2.06653,2.84147 -2.06653,2.84147 l -2.453999,-0.12916 c 0,0 -0.77495,-0.9041 -1.16242,-1.54989 -0.38747,-0.64579 -1.03326,-0.77495 -1.03326,-0.77495 0,0 -2.71232,3.61642 -3.09979,4.13305 -0.38748,0.51664 1.42073,2.454 1.42073,2.454 0,0 -0.38747,1.29158 -0.38747,2.32485 0,1.03326 0.77495,4.26221 1.29158,5.42463 0.51663,1.16242 2.19568,3.48726 3.09979,2.97063 0.9041,-0.51663 0.77495,-1.16242 0.77495,-1.16242 0,0 -0.12916,0.9041 0,1.80821 0.12915,0.9041 0.258314,3.87473 -0.129166,4.908 -0.38747,1.03326 -1.420734,2.84147 -1.291574,4.00389 0.12916,1.16242 0.129156,2.97063 0.904106,3.48726 l 4.520523,1.42077 4.39138,-2.45399 c 0,0 2.45399,-4.0039 2.71231,-5.29548 0.25831,-1.29157 -1.36723,-6.34709 -1.36723,-7.50951 0,-1.16242 -0.24534,-3.49107 -0.50365,-4.9118 -0.25832,-1.42074 0.75973,-2.93437 0.45015,-4.11089 -0.36515,-1.38768 -0.64579,-4.64968 -1.03327,-5.81211 -0.38747,-1.16242 -1.29157,-2.32484 -1.29157,-2.32484 z"
       id="path1-6-6" />
    <path
       style="fill:#4d0000;fill-opacity:1;stroke:none;stroke-width:6.00001;stroke-linecap:square;paint-order:markers stroke fill"
       d="m 106.03595,125.5618 c 0,0 2.26768,1.37137 4.28901,1.87284 2.02133,0.50147 3.73804,2.29735 4.67832,2.29954 0.94028,0.002 2.87473,-0.27714 2.87473,-0.27714 0,0 4.50675,-0.20238 5.62519,-0.51911 1.11844,-0.31672 4.06575,-1.28562 4.93564,-1.53196 0.8699,-0.24635 1.77718,-1.30871 2.39854,-1.48467 0.62135,-0.17592 1.36697,-0.38712 1.36697,-0.38712 l -0.0748,1.63202 c 0,0 -0.53448,0.95678 -1.40436,1.20313 -0.86991,0.24635 -1.71891,-0.85559 -2.12912,0.066 -0.4102,0.92159 -5.14899,1.72662 -6.42689,1.95427 -1.2779,0.22767 -3.92278,0.84242 -4.98733,0.87542 -1.06456,0.033 0.441,1.08325 -1.91576,-0.12866 -2.35675,-1.21191 -5.24798,-1.46704 -6.38292,-1.68259 -1.13493,-0.21554 -2.00263,-0.90947 -2.14341,-1.40656 -0.14081,-0.49707 -0.70384,-2.48541 -0.70384,-2.48541 z"
       id="path2-2-5" />
    <path
       style="fill:#4d0000;fill-opacity:1;stroke:none;stroke-width:6.00001;stroke-linecap:square;paint-order:markers stroke fill"
       d="m 105.55756,125.29456 c 0,0 2.07742,-0.72253 3.49608,-0.45313 1.41867,0.26941 0.99196,0.65874 2.37545,0.8039 1.38347,0.14515 3.97447,-0.18588 4.57713,0.0462 0.60266,0.23204 0.67086,1.42087 0.67086,1.42087 0,0 -1.24272,0.35192 -2.46672,0.29587 -1.22401,-0.0561 -2.92643,-0.3794 -3.77764,-0.54105 -0.85119,-0.16167 -3.88539,0.0264 -3.88539,0.0264 z"
       id="path3-8-3" />
    <path
       style="fill:#4d0000;fill-opacity:1;stroke:none;stroke-width:6.00001;stroke-linecap:square;paint-order:markers stroke fill"
       d="m 117.57219,108.46843 c 0,0 2.58879,0.60925 4.35939,2.12139 1.7706,1.51214 4.30111,4.28568 5.04454,5.01481 0.74343,0.72913 2.31937,2.02791 2.68999,2.86261 0.37062,0.83472 2.12032,3.69513 2.08294,4.51114 -0.0374,0.81602 0.099,3.19366 0.11548,3.72593 0.0165,0.53227 -0.39809,3.33443 -0.45417,4.55844 -0.0561,1.22401 -1.76506,3.72154 -2.17526,4.64313 -0.41021,0.92159 -3.16944,4.92467 -3.72042,5.34917 -0.55096,0.42451 -1.22621,0.8842 -1.79368,0.77643 -0.56747,-0.10777 -0.72473,-1.13713 0.0748,-1.63202 0.79951,-0.49488 2.80653,-1.46597 4.90923,-5.41736 2.10269,-3.95139 2.16097,-6.11569 2.3809,-9.13119 0.21993,-3.01549 -0.69947,-4.36598 -1.75961,-6.21353 -1.06017,-1.84757 -3.55549,-4.49684 -4.82901,-6.14975 -1.27352,-1.65291 -3.36522,-2.40292 -4.18123,-2.44031 -0.81602,-0.0374 -1.24052,-0.58836 -1.24052,-0.58836 z"
       id="path4-1-3" />
    <path
       style="fill:#4d0000;fill-opacity:1;stroke:none;stroke-width:6.00001;stroke-linecap:square;paint-order:markers stroke fill"
       d="m 120.01363,111.40144 c 0,0 -0.71922,4.09655 -1.04034,4.85867 -0.32112,0.76213 -1.02164,4.45066 -1.14811,5.42614 -0.12646,0.97546 -1.1954,2.88903 -1.35706,3.74023 -0.16165,0.8512 -0.004,1.88056 -0.004,1.88056 0,0 3.23437,5.25897 3.72926,6.05847 0.49488,0.79952 2.98582,5.32935 3.35644,6.16406 0.37062,0.83469 0.72474,1.13712 0.72474,1.13712 0,0 -0.33762,0.22985 -1.13274,-1.15582 -0.79511,-1.38567 -2.17202,-4.35167 -3.25087,-5.79124 -1.07886,-1.43956 -3.42903,-5.47231 -3.42903,-5.47231 l -0.42231,-1.49125 c 0,0 0.21994,-3.01549 0.7731,-4.38028 0.55317,-1.36479 0.45198,-3.61815 1.34496,-6.15307 0.89298,-2.53491 0.87868,-4.00747 1.00515,-4.98294 0.12646,-0.97547 0.14515,-1.38348 0.14515,-1.38348 z"
       id="path5-7-5" />
    <path
       style="fill:#4d0000;fill-opacity:1;stroke:none;stroke-width:6.00001;stroke-linecap:square;paint-order:markers stroke fill"
       d="m 116.88552,126.60312 c 0,0 12.63342,-1.09945 13.80218,-1.14308 1.16876,-0.0436 3.37854,-0.11179 3.37854,-0.11179 l -0.0762,-0.51099 c 0,0 1.60911,0.28251 2.17722,0.58958 -0.56257,0.60619 -1.56551,0.88626 -1.56551,0.88626 l -0.31261,-0.34516 c 0,0 -2.63109,-0.13019 -3.43565,-0.27144 -0.80457,-0.14125 -6.57221,0.58781 -7.83064,0.90595 -1.25842,0.31815 -4.41955,0.13638 -5.16699,0.37837 -0.74743,0.24199 -1.36713,0.46494 -1.36713,0.46494 0,0 -0.006,-0.91327 0.39675,-0.84264 z"
       id="path6-2-4" />
    <path
       style="fill:#4d0000;fill-opacity:1;stroke:none;stroke-width:6.00001;stroke-linecap:square;paint-order:markers stroke fill"
       d="m 96.618321,123.79334 c 0,0 -1.18726,-0.73063 -1.55258,-1.09594 -0.36531,-0.36532 -0.36531,-0.36532 -0.36531,-0.36532 l -0.27399,0.6393 c 0,0 1.73524,0.82196 1.9179,1.2786 0.18266,0.45664 0.27398,-0.45664 0.27398,-0.45664 z"
       id="path7-7-3" />
    <path
       style="fill:#4d0000;fill-opacity:1;stroke:none;stroke-width:6.00001;stroke-linecap:square;paint-order:markers stroke fill"
       d="m 95.796371,125.16326 -1.46125,-1.73524 -0.27399,0.6393 c 0,0 1.09594,1.09594 1.36993,1.55259 0.27398,0.45664 0.36531,-0.45665 0.36531,-0.45665 z"
       id="path8-6-3" />
    <path
       style="fill:#4d0000;fill-opacity:1;stroke:none;stroke-width:6.00001;stroke-linecap:square;paint-order:markers stroke fill"
       d="m 94.974411,126.2592 -1.64391,-2.9225 -0.0913,0.36531 1.36993,3.47048 z"
       id="path9-5-4" />
    <path
       style="fill:#4d0000;fill-opacity:1;stroke:none;stroke-width:6.00001;stroke-linecap:square;paint-order:markers stroke fill"
       d="m 94.700431,126.8985 -1.9179,-2.19188 -0.0913,0.6393 z"
       id="path10-2-2" />
    <path
       style="fill:#4d0000;fill-opacity:1;stroke:none;stroke-width:1;stroke-linecap:square;stroke-dasharray:none;stroke-opacity:1;paint-order:markers stroke fill"
       d="m 106.1133,152.2075 c 0,0 1.54989,8.52442 2.32484,10.59095 0.77495,2.06652 1.80821,5.68294 1.80821,6.71621 0,1.03326 -0.77495,5.16631 -1.29158,6.71621 -0.51663,1.54989 -2.06653,6.19958 -2.84147,7.74947 -0.77495,1.5499 -1.03326,1.80821 0.51663,2.84147 1.54989,1.03327 4.39137,1.03327 5.94126,1.5499 1.54989,0.51663 -2.84147,0.77495 -5.16631,0.51663 -2.32484,-0.25832 -1.5499,-1.80821 -3.35811,-2.06653 -1.80821,-0.25831 -1.54989,-0.51663 -0.77495,-2.32484 0.77495,-1.80821 2.58316,-4.908 2.58316,-6.19958 0,-1.29157 0.77495,-6.45789 1.5499,-8.78273 -1.29158,-3.35811 -5.68295,-14.20737 -5.68295,-16.01558 0,-1.80821 2.06653,1.54989 2.32484,0.51663 0.25832,-1.03326 2.06653,-1.80821 2.06653,-1.80821 z"
       id="path15" />
    <path
       style="fill:#4d0000;fill-opacity:1;stroke:none;stroke-width:1;stroke-linecap:square;stroke-dasharray:none;stroke-opacity:1;paint-order:markers stroke fill"
       d="m 105.59666,152.2075 c 0,0 6.4579,7.74947 6.71621,8.78274 0.25832,1.03326 0.25832,3.61642 0.77495,4.908 0.51663,1.29158 -1.80821,2.32484 -1.80821,2.32484 0,0 -2.32484,-1.5499 -3.87473,-2.32484 -1.5499,-0.77495 -7.2512,-2.60152 -8.542779,-3.63478 -1.291579,-1.03327 -3.238128,-2.90415 -4.27139,-3.42079 -1.033264,-0.51663 -0.362624,0.92627 -1.912519,1.70122 -1.549895,0.77495 -0.941936,0.69928 -2.233513,1.21591 -1.291579,0.51664 2.360213,-2.74217 3.089496,-4.06007 0.378293,-0.68362 0.242645,-1.00953 0.954914,-1.61749 1.43037,-1.22089 0.391278,1.42454 2.974434,3.23275 2.583157,1.80821 9.424717,5.03335 10.974617,5.8083 1.54989,0.77495 1.03326,-0.25832 0.77495,-1.80821 -0.25832,-1.5499 -5.16632,-8.00779 -5.94127,-9.55768 -0.77494,-1.5499 2.32484,-1.5499 2.32484,-1.5499 z"
       id="path16" />
  </g>
</svg>
