<?xml version="1.0" encoding="UTF-8" standalone="no"?>
<!-- Created with Inkscape (http://www.inkscape.org/) -->

<svg
   width="100mm"
   height="100mm"
   viewBox="0 0 100 100"
   version="1.1"
   id="svg1"
   xmlns="http://www.w3.org/2000/svg"
   xmlns:svg="http://www.w3.org/2000/svg">
  <defs
     id="defs1" />
  <g
     id="layer1"
     transform="translate(-73.81875,-108.47916)">
    <path
       style="fill:#4d0000;fill-opacity:1;stroke:none;stroke-width:6.00001;stroke-linecap:square;paint-order:markers stroke fill"
       d="m 122.41253,133.14534 c 0,-1.03326 0.12915,-1.54989 1.16242,-1.80821 1.03326,-0.25831 2.06652,-0.64579 2.454,-1.42073 0.38747,-0.77495 0.38747,-3.48727 0.12915,-4.26221 -0.25831,-0.77495 -2.97063,-3.09979 -4.13305,-2.58316 -1.16242,0.51663 -3.09979,3.22895 -2.84147,4.26221 0.25831,1.03326 0.9041,2.58316 1.42074,2.84147 0.51663,0.25832 -0.25832,2.84148 -0.25832,2.84148 l -0.12916,-0.12916 c 0,0 -1.03326,-0.12916 -1.54989,0.51663 -0.51663,0.64579 -2.06653,2.84147 -2.06653,2.84147 l -2.454,-0.12916 c 0,0 -0.77495,-0.9041 -1.16242,-1.54989 -0.38747,-0.64579 -1.03326,-0.77495 -1.03326,-0.77495 0,0 -2.71232,3.61642 -3.09979,4.13305 -0.38748,0.51664 1.42073,2.454 1.42073,2.454 0,0 -0.38747,1.29158 -0.38747,2.32485 0,1.03326 0.77495,4.26221 1.29158,5.42463 0.51663,1.16242 2.19568,3.48726 3.09979,2.97063 0.9041,-0.51663 0.77495,-1.16242 0.77495,-1.16242 0,0 -0.12916,0.9041 0,1.80821 0.12915,0.9041 0.25832,3.87473 -0.12916,4.908 -0.38747,1.03326 -1.42074,2.84147 -1.29158,4.00389 0.12916,1.16242 0.12916,2.97063 0.90411,3.48726 l 4.52053,1.42077 4.39137,-2.45399 c 0,0 2.454,-4.0039 2.71232,-5.29548 0.25831,-1.29157 -1.36724,-6.34709 -1.36724,-7.50951 0,-1.16242 -0.24534,-3.49107 -0.50365,-4.9118 -0.25832,-1.42074 0.75973,-2.93437 0.45015,-4.11089 -0.36515,-1.38768 -0.64579,-4.64968 -1.03327,-5.81211 -0.38747,-1.16242 -1.29157,-2.32484 -1.29157,-2.32484 z"
       id="path1-6-3-0" />
    <path
       style="fill:#4d0000;fill-opacity:1;stroke:none;stroke-width:6.00001;stroke-linecap:square;paint-order:markers stroke fill"
       d="m 121.69638,135.94199 c 0,0 2.54534,0.73773 4.62759,0.69895 2.08224,-0.0388 4.20527,1.25159 5.11407,1.01035 0.90876,-0.24143 2.70505,-1.01173 2.70505,-1.01173 0,0 4.30081,-1.36192 5.29916,-1.95733 0.99836,-0.5954 3.59447,-2.29411 4.37096,-2.7572 0.7765,-0.4631 1.37791,-1.72408 1.93255,-2.05487 0.55465,-0.33074 1.2202,-0.72773 1.2202,-0.72773 l 0.35015,1.59577 c 0,0 -0.26864,1.06252 -1.04512,1.52561 -0.77651,0.46311 -1.88178,-0.38155 -2.03949,0.61481 -0.15769,0.99636 -4.52666,3.00045 -5.70209,3.55108 -1.17543,0.55066 -3.57108,1.82901 -4.59082,2.13641 -1.01974,0.3074 0.70634,0.9322 -1.88378,0.37156 -2.59011,-0.56064 -5.44886,-0.0588 -6.60091,0.0268 -1.15205,0.0855 -2.16978,-0.36016 -2.43442,-0.80387 -0.26467,-0.44369 -1.32313,-2.21856 -1.32313,-2.21856 z"
       id="path2-2-8-9" />
    <path
       style="fill:#4d0000;fill-opacity:1;stroke:none;stroke-width:6.00001;stroke-linecap:square;paint-order:markers stroke fill"
       d="m 128.41544,116.44527 c 0,0 2.65826,-0.0815 4.7599,0.92081 2.10164,1.00235 5.26377,3.02644 6.17058,3.53831 0.90681,0.51187 2.7652,1.35851 3.33923,2.06885 0.57403,0.71035 3.00444,3.02044 3.17954,3.81832 0.17507,0.7979 0.9222,3.05922 1.07588,3.56908 0.1537,0.50987 0.47849,3.32385 0.74112,4.52067 0.26261,1.19682 -0.74171,4.05156 -0.89941,5.04792 -0.15771,0.99635 -1.78685,5.57717 -2.20918,6.12981 -0.42232,0.55265 -0.95558,1.17144 -1.53161,1.21421 -0.57603,0.0428 -0.99435,-0.9108 -0.35015,-1.59576 0.64419,-0.68495 2.33148,-2.14241 3.33984,-6.50338 1.00835,-4.36096 0.50448,-6.4666 -0.0635,-9.43627 -0.56803,-2.96966 -1.80564,-4.03618 -3.30784,-5.54639 -1.50223,-1.51022 -4.5982,-3.42338 -6.25613,-4.69036 -1.65793,-1.26698 -3.87248,-1.45006 -4.67036,-1.27498 -0.7979,0.17508 -1.35053,-0.24724 -1.35053,-0.24724 z"
       id="path4-1-1-1" />
    <path
       style="fill:#4d0000;fill-opacity:1;stroke:none;stroke-width:6.00001;stroke-linecap:square;paint-order:markers stroke fill"
       d="m 112.29142,134.09124 c 0,0 -1.18726,-0.73063 -1.55258,-1.09594 -0.36531,-0.36532 -0.36531,-0.36532 -0.36531,-0.36532 l -0.27399,0.6393 c 0,0 1.73524,0.82196 1.9179,1.2786 0.18266,0.45664 0.27398,-0.45664 0.27398,-0.45664 z"
       id="path7-7-31-2" />
    <path
       style="fill:#4d0000;fill-opacity:1;stroke:none;stroke-width:6.00001;stroke-linecap:square;paint-order:markers stroke fill"
       d="m 111.46947,135.46116 -1.46125,-1.73524 -0.27399,0.6393 c 0,0 1.09594,1.09594 1.36993,1.55259 0.27398,0.45664 0.36531,-0.45665 0.36531,-0.45665 z"
       id="path8-6-5-2" />
    <path
       style="fill:#4d0000;fill-opacity:1;stroke:none;stroke-width:6.00001;stroke-linecap:square;paint-order:markers stroke fill"
       d="m 110.64751,136.5571 -1.64391,-2.9225 -0.0913,0.36531 1.36993,3.47048 z"
       id="path9-5-45-1" />
    <path
       style="fill:#4d0000;fill-opacity:1;stroke:none;stroke-width:6.00001;stroke-linecap:square;paint-order:markers stroke fill"
       d="m 110.37353,137.1964 -1.9179,-2.19188 -0.0913,0.6393 z"
       id="path10-2-21-8" />
    <path
       style="fill:#4d0000;fill-opacity:1;stroke:none;stroke-width:1;stroke-linecap:square;stroke-dasharray:none;stroke-opacity:1;paint-order:markers stroke fill"
       d="m 115.66024,164.0553 c 0,0 0.64578,1.93736 0,2.58315 -0.6458,0.64579 -5.29548,4.0039 -6.71621,8.52442 -0.27925,0.88853 -0.90411,0.77495 -0.90411,0.77495 0,0 -5.29547,-6.19958 -7.23284,-7.362 -1.937367,-1.16242 -2.841477,-2.454 -3.616417,-2.58316 -0.77495,-0.12915 -1.29158,-1.93736 -1.93737,-1.80821 -0.645797,0.12916 -3.099797,2.19569 -4.003897,2.71232 -0.90411,0.51663 -1.67905,2.71232 -1.67905,2.71232 0,0 1.42073,0.77494 1.67905,0 0.25832,-0.77495 2.19568,-3.09979 2.84147,-3.22895 0.645797,-0.12916 1.937367,-0.12916 2.454007,0.77495 0.51663,0.9041 7.878627,6.84536 8.782737,8.00778 0.9041,1.16243 1.93736,2.71232 2.58315,2.58316 0.64579,-0.12916 3.22895,-2.84147 4.0039,-3.48726 0.77494,-0.64579 6.45789,-7.62032 6.84536,-8.39526 0.38748,-0.77495 0.77495,-1.80821 -0.38747,-1.80821 -1.16242,0 -2.71231,0 -2.71231,0 z"
       id="path13-8-7" />
    <path
       style="fill:#4d0000;fill-opacity:1;stroke:none;stroke-width:1;stroke-linecap:square;stroke-dasharray:none;stroke-opacity:1;paint-order:markers stroke fill"
       d="m 121.40586,164.31361 c 0.9041,1.42074 4.77884,8.78274 5.8121,9.42853 1.03326,0.64579 3.48727,3.09979 4.39137,3.48726 0.90411,0.38747 0.64579,0.38747 0.38747,1.29158 -0.25831,0.9041 0.90411,4.908 1.03326,5.8121 0.12916,0.90411 1.67906,4.0039 1.93737,5.03716 0.25832,1.03326 1.16243,2.71232 1.16243,3.61642 0,0.90411 0.38747,3.09979 1.16242,3.48727 0.77494,0.38747 1.29157,0.64578 2.45399,1.16242 1.16243,0.51663 2.06653,0.9041 2.97064,1.03326 0.9041,0.12916 -1.67906,-1.29158 -2.454,-1.93737 -0.77495,-0.64579 -1.80821,-1.42074 -2.06653,-2.06653 -0.25832,-0.64578 -2.19568,-8.52442 -2.97063,-11.23673 -0.77495,-2.71232 -2.06653,-5.42463 -2.84147,-6.84537 -0.77495,-1.42074 -3.48727,-7.23284 -4.77884,-8.91189 -1.29158,-1.67906 -1.93737,-4.52053 -2.32485,-5.16632 -0.38747,-0.64579 -1.16242,-0.9041 -1.16242,-0.9041 0,0 -1.42073,-0.51664 -1.93736,0.12915 -0.51664,0.64579 -0.77495,2.58316 -0.77495,2.58316 z"
       id="path14-7-9" />
    <path
       style="fill:#4d0000;fill-opacity:1;stroke-width:1;stroke-linecap:square;paint-order:markers stroke fill"
       d="m 130.72214,118.0775 1.1969,5.00395 1.08767,3.52217 0.60198,1.70952 2.80941,5.6512 1.92093,3.9465 0.79984,2.448 2.24342,4.07595 1.25052,1.17597 0.45678,0.0935 -0.47958,-0.44713 -1.2062,-1.54763 -0.68227,-1.47214 -1.42206,-2.35325 -0.50368,-1.87977 -0.70509,-1.82581 -1.44004,-2.42039 -0.65112,-1.62439 -1.07322,-2.66259 -0.91131,-2.05837 -1.14516,-2.93112 -0.70156,-2.61826 -0.44619,-2.47081 -0.27948,-1.58008 z"
       id="path3-6" />
  </g>
</svg>
