<?xml version="1.0" encoding="UTF-8" standalone="no"?>
<!-- Created with Inkscape (http://www.inkscape.org/) -->

<svg
   width="100mm"
   height="100mm"
   viewBox="0 0 100 100"
   version="1.1"
   id="svg1"
   xmlns="http://www.w3.org/2000/svg"
   xmlns:svg="http://www.w3.org/2000/svg">
  <defs
     id="defs1" />
  <g
     id="layer1"
     transform="translate(-73.81875,-108.47916)">
    <g
       id="layer1-0"
       transform="translate(15.720968,10.052121)"
       style="opacity:1">
      <g
         id="g3">
        <path
           style="fill:#4d0000;fill-opacity:1;stroke:none;stroke-width:6.00001;stroke-linecap:square;paint-order:markers stroke fill"
           d="m 105.74864,122.91476 c -0.0351,-1.03267 0.0764,-1.55339 1.10031,-1.84666 1.02389,-0.29327 2.04339,-0.71563 2.40431,-1.50329 0.36092,-0.78767 0.26877,-3.49842 -0.0157,-4.26414 -0.28449,-0.76572 -3.07423,-2.99707 -4.21843,-2.44124 -1.1442,0.55582 -2.98829,3.3324 -2.69502,4.35629 0.29327,1.02388 0.99134,2.55095 1.51646,2.79156 0.52511,0.24061 -0.16163,2.84861 -0.16163,2.84861 l -0.13347,-0.12469 c 0,0 -1.03705,-0.094 -1.53144,0.56899 -0.49439,0.66297 -1.9688,2.91004 -1.9688,2.91004 l -2.456977,-0.0457 c 0,0 -0.80522,-0.87725 -1.214407,-1.5095 -0.409188,-0.63226 -1.058993,-0.7394 -1.058993,-0.7394 0,0 -2.587884,3.70648 -2.957578,4.23598 -0.369703,0.52951 1.503286,2.40431 1.503286,2.40431 0,0 -0.343364,1.304 -0.308259,2.33667 0.03511,1.03267 0.919314,4.23342 1.475139,5.37762 0.555826,1.1442 2.312894,3.41065 3.198929,2.8636 0.886026,-0.54705 0.735009,-1.18808 0.735009,-1.18808 0,0 -0.09837,0.90797 0.06144,1.80717 0.159793,0.89919 0.389811,3.86371 0.03766,4.90955 -0.35214,1.04583 -1.323373,2.8881 -1.154794,4.04546 0.16858,1.15736 0.23001,2.96453 1.022066,3.45453 l 4.566189,1.26636 4.30546,-2.60177 c 0,0 2.31654,-4.08496 2.53083,-5.38457 0.21428,-1.2996 -1.58208,-6.29698 -1.62158,-7.45873 -0.0395,-1.16174 -0.36382,-3.48071 -0.67025,-4.89185 -0.30643,-1.41114 0.6596,-2.95849 0.31022,-4.12381 -0.41208,-1.37447 -0.80338,-4.62505 -1.23014,-5.77365 -0.42674,-1.14858 -1.36981,-2.27961 -1.36981,-2.27961 z"
           id="path1-6-6-6" />
        <path
           style="fill:#4d0000;fill-opacity:1;stroke:none;stroke-width:6.00001;stroke-linecap:square;paint-order:markers stroke fill"
           d="m 105.13778,125.65145 c 0,0 2.31297,1.29353 4.35017,1.72604 2.0372,0.4325 3.81393,2.16902 4.75375,2.13926 0.9398,-0.03 2.86365,-0.37465 2.86365,-0.37465 0,0 4.49727,-0.35538 5.60431,-0.70993 1.10703,-0.35453 4.01972,-1.42301 4.88074,-1.69876 0.86103,-0.27577 1.73169,-1.36834 2.34671,-1.56531 0.61501,-0.19693 1.35303,-0.43334 1.35303,-0.43334 l -0.0193,1.63362 c 0,0 -0.50166,0.97439 -1.36267,1.25015 -0.86104,0.27576 -1.74699,-0.7967 -2.12565,0.1383 -0.37865,0.93499 -5.08735,1.90056 -6.35678,2.1715 -1.26943,0.27095 -3.8919,0.97521 -4.95471,1.04436 -1.06282,0.0692 0.47755,1.06764 -1.91903,-0.0635 -2.39656,-1.13114 -5.29479,-1.28789 -6.4364,-1.46475 -1.1416,-0.17686 -2.03237,-0.84091 -2.18996,-1.33293 -0.15762,-0.492 -0.78788,-2.46006 -0.78788,-2.46006 z"
           id="path2-2-5-9" />
        <path
           style="fill:#4d0000;fill-opacity:1;stroke:none;stroke-width:6.00001;stroke-linecap:square;paint-order:markers stroke fill"
           d="m 104.65059,125.40062 c 0,0 2.05167,-0.7927 3.47867,-0.57165 1.427,0.22105 1.01377,0.62466 2.40139,0.72273 1.3876,0.0981 3.96586,-0.32081 4.57606,-0.10934 0.61019,0.21143 0.71874,1.39726 0.71874,1.39726 0,0 -1.23004,0.39394 -2.45524,0.3795 -1.22521,-0.0145 -2.93763,-0.27975 -3.79384,-0.41239 -0.85619,-0.13265 -3.88225,0.1584 -3.88225,0.1584 z"
           id="path3-8-3-0" />
        <path
           style="fill:#4d0000;fill-opacity:1;stroke:none;stroke-width:6.00001;stroke-linecap:square;paint-order:markers stroke fill"
           d="m 116.08661,108.176 c 0,0 2.60799,0.52094 4.42895,1.97205 1.82095,1.45111 4.44423,4.13708 5.21201,4.84053 0.76777,0.70345 2.38693,1.94793 2.78569,2.76956 0.39877,0.82165 2.24464,3.62096 2.23501,4.43777 -0.01,0.81682 0.20745,3.18845 0.242,3.71985 0.0346,0.5314 -0.28457,3.34603 -0.29903,4.57124 -0.0145,1.22521 -1.6376,3.77936 -2.01625,4.71436 -0.37867,0.93499 -3.0003,5.02951 -3.53653,5.47248 -0.53622,0.44298 -1.19547,0.92535 -1.76627,0.83692 -0.5708,-0.0884 -0.76295,-1.11185 0.0193,-1.63362 0.78223,-0.52175 2.7551,-1.56047 4.72234,-5.58102 1.96722,-4.02055 1.95194,-6.18558 2.06929,-9.20681 0.11735,-3.02122 -0.84741,-4.3397 -1.96971,-6.15016 -1.12233,-1.81049 -3.70622,-4.37345 -5.03516,-5.98213 -1.32894,-1.60869 -3.44492,-2.2872 -4.26173,-2.29684 -0.81682,-0.01 -1.25979,-0.54588 -1.25979,-0.54588 z"
           id="path4-1-3-7" />
        <path
           style="fill:#4d0000;fill-opacity:1;stroke:none;stroke-width:6.00001;stroke-linecap:square;paint-order:markers stroke fill"
           d="m 118.62629,111.02437 c 0,0 -0.57962,4.11862 -0.87466,4.89121 -0.29504,0.7726 -0.86984,4.4828 -0.9631,5.46201 -0.0932,0.9792 -1.09655,2.92798 -1.2292,3.78418 -0.13263,0.8562 0.0599,1.87961 0.0599,1.87961 0,0 3.41118,5.14604 3.93295,5.92827 0.52175,0.78224 3.16516,5.22483 3.56393,6.04646 0.39876,0.82162 0.76295,1.11184 0.76295,1.11184 0,0 -0.32961,0.24119 -1.17135,-1.11666 -0.84173,-1.35786 -2.31862,-4.27537 -3.44576,-5.67745 -1.12714,-1.40207 -3.61297,-5.35265 -3.61297,-5.35265 l -0.47273,-1.47604 c 0,0 0.11736,-3.02122 0.62383,-4.40402 0.50648,-1.38279 0.32879,-3.63141 1.13513,-6.19521 0.80634,-2.56379 0.74201,-4.03501 0.83527,-5.01421 0.0932,-0.97921 0.0981,-1.38762 0.0981,-1.38762 z"
           id="path5-7-5-5" />
        <path
           style="fill:#4d0000;fill-opacity:1;stroke:none;stroke-width:6.00001;stroke-linecap:square;paint-order:markers stroke fill"
           d="m 116.01647,126.32355 c 0,0 12.58877,-1.52804 13.75538,-1.61136 1.1666,-0.0833 3.37279,-0.22651 3.37279,-0.22651 l -0.0935,-0.50811 c 0,0 1.61778,0.22768 2.19599,0.51527 -0.54165,0.62496 -1.53449,0.93894 -1.53449,0.93894 l -0.32416,-0.33434 c 0,0 -2.63399,-0.0407 -3.44289,-0.15456 -0.8089,-0.11383 -6.54844,0.81077 -7.79534,1.17148 -1.24688,0.36072 -4.41236,0.28646 -5.15115,0.5537 -0.73877,0.26725 -1.35054,0.51112 -1.35054,0.51112 0,0 -0.037,-0.91253 0.36789,-0.85563 z"
           id="path6-2-4-9" />
        <path
           style="fill:#4d0000;fill-opacity:1;stroke:none;stroke-width:6.00001;stroke-linecap:square;paint-order:markers stroke fill"
           d="m 95.665503,124.20398 c 0,0 -1.211398,-0.68987 -1.588919,-1.04256 -0.377511,-0.35269 -0.377511,-0.35269 -0.377511,-0.35269 l -0.252111,0.64824 c 0,0 1.762164,0.76253 1.960233,1.2127 0.198069,0.45017 0.258308,-0.46569 0.258308,-0.46569 z"
           id="path7-7-3-9" />
        <path
           style="fill:#4d0000;fill-opacity:1;stroke:none;stroke-width:6.00001;stroke-linecap:square;paint-order:markers stroke fill"
           d="m 94.890571,125.60104 -1.519362,-1.6846 -0.252111,0.64824 c 0,0 1.132542,1.05808 1.421889,1.50515 0.289336,0.44707 0.349584,-0.46879 0.349584,-0.46879 z"
           id="path8-6-3-8" />
        <path
           style="fill:#4d0000;fill-opacity:1;stroke:none;stroke-width:6.00001;stroke-linecap:square;paint-order:markers stroke fill"
           d="m 94.106321,126.72427 -1.742255,-2.86496 -0.07883,0.3682 1.48705,3.42193 z"
           id="path9-5-4-9" />
        <path
           style="fill:#4d0000;fill-opacity:1;stroke:none;stroke-width:6.00001;stroke-linecap:square;paint-order:markers stroke fill"
           d="m 93.854219,127.37251 -1.991263,-2.12545 -0.06953,0.64203 z"
           id="path10-2-2-7" />
      </g>
      <path
         style="fill:#4d0000;fill-opacity:1;stroke:none;stroke-width:1;stroke-linecap:square;stroke-dasharray:none;stroke-opacity:1;paint-order:markers stroke fill"
         d="m 107.92607,152.10496 c -1.03326,2.32484 -4.64968,12.39915 -7.49116,13.69073 -2.841469,1.29158 -0.774939,3.61642 -2.583149,3.61642 -1.80822,0 -15.757266,7.74948 -17.048846,9.29937 -1.29157,1.54989 -0.77494,2.84147 -0.25831,4.64968 0.51663,1.80821 1.29157,2.32485 1.29157,2.32485 0,0 -1.54988,0.25832 -2.06651,-1.5499 -0.51664,-1.80821 -1.29159,-5.68295 -1.29159,-5.68295 -0.73063,-2.19188 -0.25831,-2.58315 1.80821,-2.58315 2.06653,0 9.557686,-6.19958 11.107576,-7.23284 1.5499,-1.03327 1.80821,-1.29158 3.61642,-1.03327 1.80821,0.25832 1.80821,-0.77495 1.80821,-0.77495 0,0 1.5499,-1.03326 2.58316,-3.3581 1.033259,-2.32484 3.874739,-9.816 5.166319,-10.84926 1.29157,-1.03327 3.3581,-0.51663 3.3581,-0.51663 z"
         id="path17" />
      <path
         style="fill:#4d0000;fill-opacity:1;stroke:none;stroke-width:1;stroke-linecap:square;stroke-dasharray:none;stroke-opacity:1;paint-order:markers stroke fill"
         d="m 107.15112,152.10496 c 0,0 6.4579,3.3581 8.78274,4.908 2.32484,1.54989 5.16631,3.09978 5.42463,3.87473 0.25832,0.77495 -1.29158,3.09979 -1.80821,4.64969 -0.51663,1.54989 -1.80821,7.23284 -2.32484,8.52442 -0.51663,1.29157 -1.29158,4.13305 -1.03327,5.68294 0.25832,1.5499 2.58316,2.58316 4.13306,4.13306 1.54989,1.54989 3.61642,2.06652 1.29158,1.80821 -2.32485,-0.25832 -3.87474,-2.06653 -5.68295,-3.61643 -1.80821,-1.54989 -1.03326,-1.80821 -1.03326,-3.09978 0,-1.29158 0.51663,-14.20737 1.54989,-15.24063 1.03326,-1.03327 2.06653,-1.80822 2.06653,-1.80822 0,0 0.77494,-0.77494 -1.5499,-1.29157 -2.32484,-0.51664 -9.816,-4.39137 -11.10758,-5.94127 -1.29158,-1.54989 1.29158,-2.58315 1.29158,-2.58315 z"
         id="path18" />
    </g>
  </g>
</svg>
