<?xml version="1.0" encoding="UTF-8" standalone="no"?>
<!-- Created with Inkscape (http://www.inkscape.org/) -->

<svg
   width="40.897015mm"
   height="84.672363mm"
   viewBox="0 0 40.897015 84.672364"
   version="1.1"
   id="svg1"
   sodipodi:docname="khoisan-2_NO_ARROW.svg"
   inkscape:version="1.3.2 (091e20e, 2023-11-25, custom)"
   xmlns:inkscape="http://www.inkscape.org/namespaces/inkscape"
   xmlns:sodipodi="http://sodipodi.sourceforge.net/DTD/sodipodi-0.dtd"
   xmlns="http://www.w3.org/2000/svg"
   xmlns:svg="http://www.w3.org/2000/svg">
  <sodipodi:namedview
     id="namedview1"
     pagecolor="#ffffff"
     bordercolor="#000000"
     borderopacity="0.25"
     inkscape:showpageshadow="2"
     inkscape:pageopacity="0.0"
     inkscape:pagecheckerboard="0"
     inkscape:deskcolor="#d1d1d1"
     inkscape:document-units="mm"
     inkscape:zoom="2.6918049"
     inkscape:cx="9.2874486"
     inkscape:cy="125.75205"
     inkscape:window-width="1920"
     inkscape:window-height="1009"
     inkscape:window-x="-8"
     inkscape:window-y="-8"
     inkscape:window-maximized="1"
     inkscape:current-layer="svg1" />
  <defs
     id="defs1" />
  <path
     style="fill:#4d0000;fill-opacity:1;stroke:none;stroke-width:6.00001;stroke-linecap:square;paint-order:markers stroke fill"
     d="m 16.568882,18.530121 c 0,-1.03326 0.12915,-1.54989 1.16242,-1.80821 1.03326,-0.25831 2.06652,-0.64579 2.454,-1.42073 0.38747,-0.77495 0.38747,-3.48727 0.12915,-4.26221 -0.25831,-0.77495 -2.97063,-3.0997903 -4.13305,-2.5831603 -1.16242,0.51663 -3.09979,3.2289503 -2.84147,4.2622103 0.25831,1.03326 0.9041,2.58316 1.42074,2.84147 0.51663,0.25832 -0.25832,2.84148 -0.25832,2.84148 l -0.12916,-0.12916 c 0,0 -1.03326,-0.12916 -1.54989,0.51663 -0.51663,0.64579 -2.06653,2.84147 -2.06653,2.84147 l -2.4540034,-0.12916 c 0,0 -0.77495,-0.9041 -1.16242,-1.54989 -0.38747,-0.64579 -1.03326,-0.77495 -1.03326,-0.77495 0,0 -2.71232,3.61642 -3.09979,4.13305 -0.38748,0.51664 1.42073,2.454 1.42073,2.454 0,0 -0.38747,1.29158 -0.38747,2.32485 0,1.03326 0.77495,4.26221 1.29158,5.42463 0.51663,1.16242 2.19568,3.48726 3.09979,2.97063 0.9041,-0.51663 0.77495,-1.16242 0.77495,-1.16242 0,0 -0.12916,0.9041 0,1.80821 0.12915,0.9041 0.25831,3.87473 -0.12917,4.908 -0.38747,1.03326 -1.42073,2.84147 -1.29157,4.00389 0.12916,1.16242 0.12916,2.97063 0.90411,3.48726 l 4.5205234,1.42077 4.39138,-2.45399 c 0,0 2.45399,-4.0039 2.71231,-5.29548 0.25831,-1.29157 -1.36723,-6.34709 -1.36723,-7.50951 0,-1.16242 -0.24534,-3.49107 -0.50365,-4.9118 -0.25832,-1.42074 0.75973,-2.93437 0.45014,-4.11089 -0.36514,-1.38768 -0.64578,-4.64968 -1.03326,-5.81211 -0.38747,-1.16242 -1.29158,-2.32484 -1.29158,-2.32484 z"
     id="path1-6-6-3" />
  <path
     style="fill:#4d0000;fill-opacity:1;stroke:none;stroke-width:6.00001;stroke-linecap:square;paint-order:markers stroke fill"
     d="m 15.836859,21.205524 c 0,0 2.649554,0.0538 4.650812,-0.522578 2.001258,-0.576379 4.385913,0.120544 5.201314,-0.347699 0.815306,-0.468408 2.351019,-1.677376 2.351019,-1.677376 0,0 3.80177,-2.428641 4.612003,-3.262157 0.810237,-0.833508 2.878232,-3.146255 3.508409,-3.794537 0.630181,-0.648295 0.884728,-2.0219659 1.334862,-2.4850317 0.450145,-0.4630262 0.990271,-1.0187408 0.990271,-1.0187408 l 0.751231,1.4507708 c 0,0 0.01552,1.0958357 -0.614647,1.7441207 -0.630189,0.648301 -1.916414,0.118493 -1.810872,1.121718 0.105552,1.00322 -3.595846,4.069792 -4.588715,4.905893 -0.992858,0.836118 -2.976017,2.690947 -3.881444,3.251801 -0.905436,0.560859 0.923542,0.717622 -1.723427,0.846457 -2.64696,0.12883 -5.278404,1.353496 -6.369066,1.734294 -1.090648,0.380802 -2.189063,0.213691 -2.559527,-0.146411 -0.37048,-0.360071 -1.852249,-1.800509 -1.852249,-1.800509 z"
     id="path2-2-5-2"
     inkscape:transform-center-x="-11.758387"
     inkscape:transform-center-y="-5.5449919" />
  <path
     style="fill:#4d0000;fill-opacity:1;stroke:none;stroke-width:6.00001;stroke-linecap:square;paint-order:markers stroke fill"
     d="m 6.4477686,19.476021 c 0,0 -1.18726,-0.73063 -1.55258,-1.09594 -0.36531,-0.36532 -0.36531,-0.36532 -0.36531,-0.36532 l -0.27399,0.6393 c 0,0 1.73524,0.82196 1.9179,1.2786 0.18266,0.45664 0.27398,-0.45664 0.27398,-0.45664 z"
     id="path7-7-3-4" />
  <path
     style="fill:#4d0000;fill-opacity:1;stroke:none;stroke-width:6.00001;stroke-linecap:square;paint-order:markers stroke fill"
     d="m 5.6258186,20.845941 -1.46125,-1.73524 -0.27399,0.6393 c 0,0 1.09594,1.09594 1.36993,1.55259 0.27398,0.45664 0.36531,-0.45665 0.36531,-0.45665 z"
     id="path8-6-3-1" />
  <path
     style="fill:#4d0000;fill-opacity:1;stroke:none;stroke-width:6.00001;stroke-linecap:square;paint-order:markers stroke fill"
     d="m 4.8038586,21.941881 -1.64391,-2.9225 -0.0913,0.36531 1.36993,3.47048 z"
     id="path9-5-4-7" />
  <path
     style="fill:#4d0000;fill-opacity:1;stroke:none;stroke-width:6.00001;stroke-linecap:square;paint-order:markers stroke fill"
     d="m 4.5298786,22.581181 -1.9179,-2.19188 -0.0913,0.6393 z"
     id="path10-2-2-6" />
  <path
     style="fill:#4d0000;fill-opacity:1;stroke:none;stroke-width:1;stroke-linecap:square;stroke-dasharray:none;stroke-opacity:1;paint-order:markers stroke fill"
     d="m 15.942752,47.890181 c 0,0 1.54989,8.52442 2.32484,10.59095 0.77495,2.06652 1.80821,5.68294 1.80821,6.71621 0,1.03326 -0.77495,5.16631 -1.29158,6.71621 -0.51663,1.54989 -2.06653,6.19958 -2.84147,7.74947 -0.77495,1.5499 -1.03327,1.80821 0.51663,2.84147 1.54989,1.03327 4.39137,1.03327 5.94126,1.5499 1.54989,0.51663 -2.84147,0.77495 -5.16631,0.51663 -2.32485,-0.25832 -1.5499,-1.80821 -3.35811,-2.06653 -1.80821,-0.25831 -1.54989,-0.51663 -0.77495,-2.32484 0.77495,-1.80821 2.58316,-4.908 2.58316,-6.19958 0,-1.29157 0.77495,-6.45789 1.5499,-8.78273 -1.29158,-3.35811 -5.68295,-14.20737 -5.68295,-16.01558 0,-1.80821 2.06653,1.54989 2.32484,0.51663 0.25832,-1.03326 2.06653,-1.80821 2.06653,-1.80821 z"
     id="path15-5" />
  <path
     style="fill:#4d0000;fill-opacity:1;stroke:none;stroke-width:1;stroke-linecap:square;stroke-dasharray:none;stroke-opacity:1;paint-order:markers stroke fill"
     d="m 15.426112,47.890181 c 0,0 6.4579,7.74947 6.71621,8.78274 0.25832,1.03326 0.25832,3.61642 0.77495,4.908 0.51663,1.29158 -1.80821,2.32484 -1.80821,2.32484 0,0 -2.32484,-1.5499 -3.87473,-2.32484 -1.5499,-0.77495 -7.2512004,-2.60152 -8.5427834,-3.63478 -1.29158,-1.03327 -3.23813,-2.90415 -4.27139,-3.42079 -1.03327,-0.51663 -0.36263,0.92627 -1.91252,1.70122 -1.5499,0.77495 -0.94194,0.69928 -2.23352,1.21591 -1.29157,0.51664 2.36022,-2.74217 3.0895,-4.06007 0.37829,-0.68362 0.24265,-1.00953 0.95492,-1.61749 1.43036,-1.22089 0.39127,1.42454 2.97443,3.23275 2.583163,1.80821 9.4247234,5.03335 10.9746234,5.8083 1.54989,0.77495 1.03326,-0.25832 0.77495,-1.80821 -0.25832,-1.5499 -5.16632,-8.00779 -5.94127,-9.55768 -0.77494,-1.5499 2.32484,-1.5499 2.32484,-1.5499 z"
     id="path16-6" />
  <g
     id="g19"
     transform="rotate(-30,-58.090761,599.26187)"
     style="fill:#4d0000;fill-opacity:1"
     inkscape:transform-center-x="-13.200145"
     inkscape:transform-center-y="-8.0330038">
    <path
       style="fill:#4d0000;fill-opacity:1;stroke:none;stroke-width:6.00001;stroke-linecap:square;paint-order:markers stroke fill"
       d="m 306.38754,118.26875 c 0,0 2.58879,0.60925 4.35939,2.12139 1.7706,1.51214 4.30111,4.28568 5.04454,5.01481 0.74343,0.72913 2.31937,2.02791 2.68999,2.86261 0.37062,0.83472 2.12032,3.69513 2.08294,4.51114 -0.0374,0.81602 0.099,3.19366 0.11548,3.72593 0.0165,0.53227 -0.39809,3.33443 -0.45417,4.55844 -0.0561,1.22401 -1.76506,3.72154 -2.17526,4.64313 -0.41021,0.92159 -3.16944,4.92467 -3.72042,5.34917 -0.55096,0.42451 -1.22621,0.8842 -1.79368,0.77643 -0.56747,-0.10777 -0.72473,-1.13713 0.0748,-1.63202 0.79951,-0.49488 2.80653,-1.46597 4.90923,-5.41736 2.10269,-3.95139 2.16097,-6.11569 2.3809,-9.13119 0.21993,-3.01549 -0.69947,-4.36598 -1.75961,-6.21353 -1.06017,-1.84757 -3.55549,-4.49684 -4.82901,-6.14975 -1.27352,-1.65291 -3.36522,-2.40292 -4.18123,-2.44031 -0.81602,-0.0374 -1.24052,-0.58836 -1.24052,-0.58836 z"
       id="path4-1-7-6" />
    <path
       style="fill:#4d0000;fill-opacity:1;stroke:none;stroke-width:1;stroke-linecap:square;stroke-dasharray:none;stroke-opacity:1;paint-order:markers stroke fill"
       d="m 308.55129,120.79298 c 0,0 0.36532,3.8358 0.54797,5.29705 0.18266,1.46126 0.36532,6.39299 0.36532,7.67159 0,1.2786 0,2.37454 0,3.83579 0,1.46126 1.2786,5.11439 1.2786,6.39299 0,1.2786 0.73062,4.93173 1.27859,6.02768 0.54797,1.09594 0.73063,0.73062 0.73063,0.73062 0,0 -0.36531,-2.37454 -0.73063,-3.83579 -0.36531,-1.46125 -2.19188,-8.0369 -2.00922,-10.22878 0.18266,-2.19188 0,-9.49816 -0.18266,-10.95941 -0.18265,-1.46126 0.18266,-3.8358 -0.36531,-4.56642 -0.54797,-0.73063 -0.91329,-0.36532 -0.91329,-0.36532 z"
       id="path19-3" />
  </g>
</svg>
