<?xml version="1.0" encoding="UTF-8" standalone="no"?>
<!-- Created with Inkscape (http://www.inkscape.org/) -->

<svg
   width="53.262741mm"
   height="81.118431mm"
   viewBox="0 0 53.262741 81.118432"
   version="1.1"
   id="svg1"
   sodipodi:docname="khoisan-3_NO_ARROW_up.svg"
   inkscape:version="1.3.2 (091e20e, 2023-11-25, custom)"
   xmlns:inkscape="http://www.inkscape.org/namespaces/inkscape"
   xmlns:sodipodi="http://sodipodi.sourceforge.net/DTD/sodipodi-0.dtd"
   xmlns="http://www.w3.org/2000/svg"
   xmlns:svg="http://www.w3.org/2000/svg">
  <sodipodi:namedview
     id="namedview1"
     pagecolor="#ffffff"
     bordercolor="#000000"
     borderopacity="0.25"
     inkscape:showpageshadow="2"
     inkscape:pageopacity="0.0"
     inkscape:pagecheckerboard="0"
     inkscape:deskcolor="#d1d1d1"
     inkscape:document-units="mm"
     inkscape:zoom="2.6918049"
     inkscape:cx="101.79044"
     inkscape:cy="166.24533"
     inkscape:window-width="1920"
     inkscape:window-height="1009"
     inkscape:window-x="-8"
     inkscape:window-y="-8"
     inkscape:window-maximized="1"
     inkscape:current-layer="svg1" />
  <defs
     id="defs1" />
  <path
     style="fill:#4d0000;fill-opacity:1;stroke:none;stroke-width:6.00001;stroke-linecap:square;paint-order:markers stroke fill"
     d="m 28.692505,18.372202 c 0,-1.03326 0.12915,-1.54989 1.16242,-1.80821 1.03326,-0.25831 2.06652,-0.64579 2.454,-1.42073 0.38747,-0.77495 0.38747,-3.48727 0.12915,-4.26221 -0.25831,-0.77495 -2.97063,-3.0997904 -4.13305,-2.5831604 -1.16242,0.51663 -3.09979,3.2289504 -2.84147,4.2622104 0.25831,1.03326 0.9041,2.58316 1.42074,2.84147 0.51663,0.25832 -0.25832,2.84148 -0.25832,2.84148 l -0.12916,-0.12916 c 0,0 -1.03326,-0.12916 -1.54989,0.51663 -0.51663,0.64579 -2.06653,2.84147 -2.06653,2.84147 l -2.454003,-0.12916 c 0,0 -0.77495,-0.9041 -1.16242,-1.54989 -0.38747,-0.64579 -1.03326,-0.77495 -1.03326,-0.77495 0,0 -2.71232,3.61642 -3.09979,4.13305 -0.38748,0.51664 1.42073,2.454 1.42073,2.454 0,0 -0.38747,1.29158 -0.38747,2.32485 0,1.03326 0.77495,4.26221 1.29158,5.42463 0.51663,1.16242 2.19568,3.48726 3.09979,2.97063 0.9041,-0.51663 0.77495,-1.16242 0.77495,-1.16242 0,0 -0.12916,0.9041 0,1.80821 0.12915,0.9041 0.25831,3.87473 -0.12917,4.908 -0.38747,1.03326 -1.42073,2.84147 -1.29157,4.00389 0.12916,1.16242 0.12916,2.97063 0.90411,3.48726 l 4.520523,1.42077 4.39138,-2.45399 c 0,0 2.45399,-4.0039 2.71231,-5.29548 0.25831,-1.29157 -1.36723,-6.34709 -1.36723,-7.50951 0,-1.16242 -0.24534,-3.49107 -0.50365,-4.9118 -0.25832,-1.42074 0.75973,-2.93437 0.45015,-4.11089 -0.36515,-1.38768 -0.64579,-4.64968 -1.03327,-5.81211 -0.38747,-1.16242 -1.29158,-2.32484 -1.29158,-2.32484 z"
     id="path1-6-6-6-8" />
  <path
     style="fill:#4d0000;fill-opacity:1;stroke:none;stroke-width:6.00001;stroke-linecap:square;paint-order:markers stroke fill"
     d="m 27.981881,21.041872 c 0,0 2.649553,0.0538 4.650811,-0.522578 2.001258,-0.576379 4.385913,0.120543 5.201314,-0.3477 0.815307,-0.468408 2.351019,-1.677375 2.351019,-1.677375 0,0 3.80177,-2.428642 4.612003,-3.262158 0.810237,-0.833507 2.878233,-3.146255 3.508409,-3.794536 0.630181,-0.648296 0.884729,-2.0219666 1.334862,-2.4850324 0.450145,-0.4630262 0.990271,-1.0187408 0.990271,-1.0187408 l 0.751231,1.4507708 c 0,0 0.01552,1.0958354 -0.614646,1.7441214 -0.630189,0.6483 -1.916415,0.118492 -1.810872,1.121717 0.105551,1.003221 -3.595846,4.069793 -4.588715,4.905893 -0.992859,0.836118 -2.976017,2.690947 -3.881445,3.251801 -0.905436,0.560859 0.923542,0.717622 -1.723427,0.846457 -2.64696,0.128831 -5.278404,1.353496 -6.369066,1.734295 -1.090648,0.380802 -2.189063,0.213691 -2.559527,-0.146412 -0.37048,-0.36007 -1.852248,-1.800508 -1.852248,-1.800508 z"
     id="path2-2-5-9-7"
     inkscape:transform-center-x="-11.779785"
     inkscape:transform-center-y="-5.5079287" />
  <path
     style="fill:#4d0000;fill-opacity:1;stroke:none;stroke-width:6.00001;stroke-linecap:square;paint-order:markers stroke fill"
     d="m 29.425873,0.47045884 c 0,0 2.546582,-0.7667691 4.836037,-0.3425174 2.289455,0.4242517 5.867711,1.56095266 6.876105,1.82068286 1.008394,0.2597301 3.022588,0.5965365 3.760904,1.134098 0.738327,0.5375787 3.683816,2.1399164 4.059449,2.8652918 0.375621,0.725394 1.682567,2.7162907 1.962974,3.16901 0.280424,0.4527093 1.322459,3.0867459 1.885897,4.1748099 0.563421,1.088074 0.332184,4.105479 0.437735,5.108699 0.105543,1.003225 -0.282481,5.849609 -0.547393,6.492727 -0.264891,0.643116 -0.619829,1.378845 -1.165158,1.569248 -0.545328,0.190404 -1.196199,-0.622418 -0.751231,-1.450771 0.444956,-0.828333 1.697541,-2.672832 1.542838,-7.146186 C 52.169318,13.392201 51.13764,11.488723 49.820355,8.767258 48.503075,6.0458021 47.031606,5.3359434 45.189723,4.2659882 43.347804,3.1960307 39.862158,2.1493555 37.932802,1.3546535 36.003447,0.55995144 33.816976,0.95627374 33.091596,1.3318985 32.366202,1.7075192 31.723094,1.4426238 31.723094,1.4426238 Z"
     id="path4-1-3-7-1"
     inkscape:transform-center-x="-13.442248"
     inkscape:transform-center-y="-7.8322882" />
  <path
     style="fill:#4d0000;fill-opacity:1;stroke:none;stroke-width:6.00001;stroke-linecap:square;paint-order:markers stroke fill"
     d="m 18.571392,19.318102 c 0,0 -1.18726,-0.73063 -1.55258,-1.09594 -0.36531,-0.36532 -0.36531,-0.36532 -0.36531,-0.36532 l -0.27399,0.6393 c 0,0 1.73524,0.82196 1.9179,1.2786 0.18266,0.45664 0.27398,-0.45664 0.27398,-0.45664 z"
     id="path7-7-3-9-2" />
  <path
     style="fill:#4d0000;fill-opacity:1;stroke:none;stroke-width:6.00001;stroke-linecap:square;paint-order:markers stroke fill"
     d="m 17.749442,20.688022 -1.46125,-1.73524 -0.27399,0.6393 c 0,0 1.09594,1.09594 1.36993,1.55259 0.27398,0.45664 0.36531,-0.45665 0.36531,-0.45665 z"
     id="path8-6-3-8-0" />
  <path
     style="fill:#4d0000;fill-opacity:1;stroke:none;stroke-width:6.00001;stroke-linecap:square;paint-order:markers stroke fill"
     d="m 16.927482,21.783962 -1.64391,-2.9225 -0.0913,0.36531 1.36993,3.47048 z"
     id="path9-5-4-9-7" />
  <path
     style="fill:#4d0000;fill-opacity:1;stroke:none;stroke-width:6.00001;stroke-linecap:square;paint-order:markers stroke fill"
     d="m 16.653502,22.423262 -1.9179,-2.19188 -0.0913,0.6393 z"
     id="path10-2-2-7-7" />
  <path
     style="fill:#4d0000;fill-opacity:1;stroke:none;stroke-width:1;stroke-linecap:square;stroke-dasharray:none;stroke-opacity:1;paint-order:markers stroke fill"
     d="m 29.770605,47.473952 c -1.03326,2.32484 -4.64968,12.39915 -7.49116,13.69073 -2.841473,1.29158 -0.774943,3.61642 -2.583153,3.61642 -1.80822,0 -15.7572704,7.74948 -17.0488504,9.29937 -1.29157,1.54989 -0.77494,2.84147 -0.25831,4.64968 0.51663,1.80821 1.29157,2.32485 1.29157,2.32485 0,0 -1.54988,0.25832 -2.06651,-1.5499 -0.51664,-1.80821 -1.29158998,-5.68295 -1.29158998,-5.68295 -0.73063,-2.19188 -0.25831,-2.58315 1.80820998,-2.58315 2.06653,0 9.5576904,-6.19958 11.1075804,-7.23284 1.5499,-1.03327 1.80821,-1.29158 3.61642,-1.03327 1.80821,0.25832 1.80821,-0.77495 1.80821,-0.77495 0,0 1.5499,-1.03326 2.58316,-3.3581 1.033263,-2.32484 3.874743,-9.816 5.166323,-10.84926 1.29157,-1.03327 3.3581,-0.51663 3.3581,-0.51663 z"
     id="path17-4" />
  <path
     style="fill:#4d0000;fill-opacity:1;stroke:none;stroke-width:1;stroke-linecap:square;stroke-dasharray:none;stroke-opacity:1;paint-order:markers stroke fill"
     d="m 28.995655,47.473952 c 0,0 6.4579,3.3581 8.78274,4.908 2.32484,1.54989 5.16631,3.09978 5.42463,3.87473 0.25832,0.77495 -1.29158,3.09979 -1.80821,4.64969 -0.51663,1.54989 -1.80821,7.23284 -2.32484,8.52442 -0.51663,1.29157 -1.29158,4.13305 -1.03327,5.68294 0.25832,1.5499 2.58316,2.58316 4.13306,4.13306 1.54989,1.54989 3.61642,2.06652 1.29158,1.80821 -2.32485,-0.25832 -3.87474,-2.06653 -5.68295,-3.61643 -1.80821,-1.54989 -1.03326,-1.80821 -1.03326,-3.09978 0,-1.29158 0.51663,-14.20737 1.54989,-15.24063 1.03326,-1.03327 2.06653,-1.80822 2.06653,-1.80822 0,0 0.77494,-0.77494 -1.5499,-1.29157 -2.32484,-0.51664 -9.816,-4.39137 -11.10758,-5.94127 -1.29158,-1.54989 1.29158,-2.58315 1.29158,-2.58315 z"
     id="path18-5" />
  <path
     style="fill:#4d0000;fill-opacity:1;stroke:none;stroke-width:1;stroke-linecap:square;stroke-dasharray:none;stroke-opacity:1;paint-order:markers stroke fill"
     d="m 32.406234,1.6644761 c 0,0 2.234276,3.1392402 3.12309,4.3133898 0.888818,1.1741583 3.512871,5.3538321 4.152171,6.4611321 0.6393,1.1073 1.18727,2.056412 1.917895,3.321892 0.73063,1.265488 3.664486,3.789896 4.303786,4.897196 0.6393,1.107301 3.098601,3.905694 4.121132,4.580829 1.022534,0.675122 0.998063,0.267416 0.998063,0.267416 0,0 -1.503647,-1.873752 -2.550648,-2.956572 C 47.42473,21.466935 42.555049,16.68554 41.617297,14.695986 40.679545,12.706432 36.868217,6.4703378 35.979404,5.2961882 35.090594,4.1220249 34.219692,1.882958 33.379826,1.5242075 32.539955,1.1654483 32.406234,1.6644761 32.406234,1.6644761 Z"
     id="path19-3-3"
     inkscape:transform-center-x="-13.812268"
     inkscape:transform-center-y="-7.5661456" />
</svg>
