<?xml version="1.0" encoding="UTF-8" standalone="no"?>
<!-- Created with Inkscape (http://www.inkscape.org/) -->

<svg
   width="100mm"
   height="100mm"
   viewBox="0 0 100 100"
   version="1.1"
   id="svg1"
   xmlns="http://www.w3.org/2000/svg"
   xmlns:svg="http://www.w3.org/2000/svg">
  <defs
     id="defs1" />
  <g
     id="layer1"
     transform="translate(-73.81875,-108.47916)">
    <g
       id="g1"
       transform="translate(15.620853,10.30753)"
       style="opacity:1">
      <path
         style="fill:#4d0000;fill-opacity:1;stroke:none;stroke-width:6.00001;stroke-linecap:square;paint-order:markers stroke fill"
         d="m 109.94782,123.32866 c 0.10426,-1.02799 0.28488,-1.52895 1.33894,-1.68169 1.05406,-0.15273 2.12114,-0.43398 2.58484,-1.16586 0.46369,-0.7319 0.73737,-3.43038 0.55856,-4.22743 -0.17879,-0.79706 -2.64268,-3.38371 -3.8513,-2.98701 -1.20862,0.3967 -3.40978,2.89968 -3.25704,3.95373 0.15273,1.05406 0.63883,2.66121 1.12677,2.97033 0.48793,0.30913 -0.54372,2.80091 -0.54372,2.80091 l -0.11547,-0.14153 c 0,0 -1.01495,-0.23276 -1.59411,0.3576 -0.57915,0.59037 -2.3427,2.61845 -2.3427,2.61845 l -2.42844,-0.37612 c 0,0 -0.67976,-0.97768 -1.00009,-1.65928 -0.32033,-0.68159 -0.949795,-0.87525 -0.949795,-0.87525 0,0 -3.063389,3.32428 -3.501012,3.79917 -0.437633,0.47491 1.16586,2.58484 1.16586,2.58484 0,0 -0.515819,1.24589 -0.62008,2.27388 -0.10426,1.02799 0.340919,4.31865 0.737619,5.52727 0.3967,1.20862 1.832594,3.69102 2.784218,3.26825 0.95162,-0.42276 0.88829,-1.07829 0.88829,-1.07829 0,0 -0.21973,0.88645 -0.18246,1.79898 0.0373,0.91252 -0.13398,3.88102 -0.62374,4.86992 -0.489754,0.98889 -1.700201,2.68361 -1.688994,3.85313 0.01121,1.16952 -0.171252,2.9685 0.547612,3.56069 l 4.354092,1.86966 4.61658,-1.99836 c 0,0 2.84548,-3.73585 3.23281,-4.99477 0.38731,-1.25891 -0.71981,-6.45265 -0.60251,-7.60914 0.11729,-1.15649 0.10817,-3.49801 -0.005,-4.93755 -0.11364,-1.43955 1.05194,-2.84273 0.86266,-4.04449 -0.22327,-1.41744 -0.17332,-4.69111 -0.44153,-5.8867 -0.2682,-1.19559 -1.05039,-2.4433 -1.05039,-2.4433 z"
         id="path1-6-6" />
      <path
         style="fill:#4d0000;fill-opacity:1;stroke:none;stroke-width:6.00001;stroke-linecap:square;paint-order:markers stroke fill"
         d="m 108.97404,125.95818 c 0,0 2.11773,1.59319 4.07814,2.29606 1.96042,0.70287 3.48715,2.66281 4.42241,2.75986 0.93528,0.0969 2.88802,0.0143 2.88802,0.0143 0,0 4.50417,0.25341 5.64886,0.0512 1.14469,-0.20225 4.17473,-0.86881 5.06504,-1.02612 0.89031,-0.15731 1.90016,-1.1227 2.5361,-1.23507 0.63593,-0.11232 1.39906,-0.24721 1.39906,-0.24721 l -0.2391,1.61615 c 0,0 -0.62829,0.89796 -1.51859,1.05528 -0.89033,0.15731 -1.62381,-1.02467 -2.12491,-0.14917 -0.5011,0.87549 -5.29694,1.19825 -6.59129,1.29579 -1.29435,0.0976 -3.98776,0.44229 -5.05021,0.36771 -1.06245,-0.0746 0.32945,1.12222 -1.893,-0.32131 -2.22243,-1.44353 -5.07316,-1.9891 -6.18056,-2.31807 -1.10739,-0.32896 -1.90064,-1.1069 -1.99054,-1.61566 -0.0899,-0.50874 -0.44946,-2.54375 -0.44946,-2.54375 z"
         id="path2-2-5" />
      <path
         style="fill:#4d0000;fill-opacity:1;stroke:none;stroke-width:6.00001;stroke-linecap:square;paint-order:markers stroke fill"
         d="m 108.52506,125.64403 c 0,0 2.13972,-0.50922 3.52396,-0.0981 1.38424,0.41119 0.92043,0.75547 2.28221,1.03949 1.36176,0.28401 3.97294,0.21611 4.5491,0.50782 0.57617,0.29167 0.52407,1.48131 0.52407,1.48131 0,0 -1.27189,0.22473 -2.48399,0.0455 -1.2121,-0.17932 -2.87321,-0.67276 -3.70376,-0.91947 -0.83053,-0.24674 -3.86823,-0.36579 -3.86823,-0.36579 z"
         id="path3-8-3" />
      <path
         style="fill:#4d0000;fill-opacity:1;stroke:none;stroke-width:6.00001;stroke-linecap:square;paint-order:markers stroke fill"
         d="m 122.1762,110.11611 c 0,0 2.5141,0.86736 4.12308,2.55044 1.60898,1.68308 3.84671,4.69781 4.51278,5.49823 0.66606,0.80043 2.1029,2.2516 2.38741,3.11943 0.2845,0.86786 1.73664,3.89022 1.61711,4.6983 -0.11955,0.80808 -0.22376,3.18735 -0.26107,3.71856 -0.0373,0.53122 -0.73252,3.27724 -0.91182,4.48935 -0.17932,1.2121 -2.13157,3.52444 -2.63267,4.39994 -0.50111,0.87549 -3.65018,4.57972 -4.24118,4.94646 -0.59099,0.36675 -1.30917,0.75596 -1.86287,0.59148 -0.5537,-0.16448 -0.60629,-1.20446 0.23909,-1.61615 0.84537,-0.41168 2.94013,-1.17529 5.43081,-4.89434 2.49067,-3.71906 2.76704,-5.86643 3.29013,-8.84435 0.52308,-2.9779 -0.25536,-4.41427 -1.12366,-6.35937 -0.86833,-1.94511 -3.08359,-4.83265 -4.18383,-6.60563 -1.10023,-1.77297 -3.10558,-2.73022 -3.91365,-2.84976 -0.80808,-0.11954 -1.17482,-0.71053 -1.17482,-0.71053 z"
         id="path4-1-3" />
      <path
         style="fill:#4d0000;fill-opacity:1;stroke:none;stroke-width:6.00001;stroke-linecap:square;paint-order:markers stroke fill"
         d="m 124.30922,113.2805 c 0,0 -1.12891,4.00307 -1.52529,4.7289 -0.39638,0.72583 -1.46551,4.32485 -1.68977,5.28259 -0.22424,0.95772 -1.48081,2.75367 -1.72754,3.58421 -0.24671,0.83054 -0.19374,1.87056 -0.19374,1.87056 0,0 2.68721,5.55849 3.09891,6.40384 0.41167,0.84538 2.43282,5.60344 2.71732,6.47128 0.28451,0.86783 0.6063,1.20445 0.6063,1.20445 0,0 -0.35908,0.19461 -1.01033,-1.26422 -0.65123,-1.45883 -1.72183,-4.54863 -2.64991,-6.08971 -0.9281,-1.54107 -2.85935,-5.79038 -2.85935,-5.79038 l -0.26968,-1.52626 c 0,0 0.52309,-2.9779 1.21114,-4.27991 0.68806,-1.30201 0.81476,-3.55408 1.95897,-5.98595 1.1442,-2.43187 1.27856,-3.89836 1.50282,-4.85609 0.22424,-0.95773 0.28401,-1.36177 0.28401,-1.36177 z"
         id="path5-7-5" />
      <path
         style="fill:#4d0000;fill-opacity:1;stroke:none;stroke-width:6.00001;stroke-linecap:square;paint-order:markers stroke fill"
         d="m 119.66316,128.08895 c 0,0 12.67988,0.18093 13.84708,0.25546 1.16719,0.0745 3.37258,0.22969 3.37258,0.22969 l -0.0243,-0.51608 c 0,0 1.57239,0.44344 2.10661,0.80627 -0.62086,0.54633 -1.64694,0.72377 -1.64694,0.72377 l -0.27619,-0.37495 c 0,0 -2.60453,-0.39501 -3.39073,-0.61672 -0.78621,-0.22172 -6.59797,-0.0784 -7.88208,0.11118 -1.2841,0.18954 -4.41076,-0.31027 -5.1788,-0.14493 -0.76803,0.16533 -1.40707,0.32461 -1.40707,0.32461 0,0 0.0862,-0.90921 0.47975,-0.7983 z"
         id="path6-2-4" />
      <path
         style="fill:#4d0000;fill-opacity:1;stroke:none;stroke-width:6.00001;stroke-linecap:square;paint-order:markers stroke fill"
         d="m 99.782924,123.24846 c 0,0 -1.107477,-0.8467 -1.434071,-1.247 -0.326583,-0.40032 -0.326583,-0.40032 -0.326583,-0.40032 l -0.3371,0.60839 c 0,0 1.643445,0.99286 1.779095,1.4656 0.135651,0.47274 0.318659,-0.42667 0.318659,-0.42667 z"
         id="path7-7-3" />
      <path
         style="fill:#4d0000;fill-opacity:1;stroke:none;stroke-width:6.00001;stroke-linecap:square;paint-order:markers stroke fill"
         d="m 98.826938,124.52845 -1.278699,-1.87383 -0.337099,0.60839 c 0,0 0.979761,1.20094 1.206275,1.6829 0.226504,0.48196 0.409523,-0.41746 0.409523,-0.41746 z"
         id="path8-6-3" />
      <path
         style="fill:#4d0000;fill-opacity:1;stroke:none;stroke-width:6.00001;stroke-linecap:square;paint-order:markers stroke fill"
         d="m 97.898588,125.53586 -1.340627,-3.07346 -0.127695,0.35423 1.012752,3.591 z"
         id="path9-5-4" />
      <path
         style="fill:#4d0000;fill-opacity:1;stroke:none;stroke-width:6.00001;stroke-linecap:square;paint-order:markers stroke fill"
         d="m 97.561498,126.14425 -1.686941,-2.37422 -0.155342,0.62683 z"
         id="path10-2-2" />
      <path
         style="fill:#4d0000;fill-opacity:1;stroke:none;stroke-width:1;stroke-linecap:square;stroke-dasharray:none;stroke-opacity:1;paint-order:markers stroke fill"
         d="m 106.1133,152.2075 c 0,0 1.54989,8.52442 2.32484,10.59095 0.77495,2.06652 1.80821,5.68294 1.80821,6.71621 0,1.03326 -0.77495,5.16631 -1.29158,6.71621 -0.51663,1.54989 -2.06653,6.19958 -2.84147,7.74947 -0.77495,1.5499 -1.03326,1.80821 0.51663,2.84147 1.54989,1.03327 4.39137,1.03327 5.94126,1.5499 1.54989,0.51663 -2.84147,0.77495 -5.16631,0.51663 -2.32484,-0.25832 -1.5499,-1.80821 -3.35811,-2.06653 -1.80821,-0.25831 -1.54989,-0.51663 -0.77495,-2.32484 0.77495,-1.80821 2.58316,-4.908 2.58316,-6.19958 0,-1.29157 0.77495,-6.45789 1.5499,-8.78273 -1.29158,-3.35811 -5.68295,-14.20737 -5.68295,-16.01558 0,-1.80821 2.06653,1.54989 2.32484,0.51663 0.25832,-1.03326 2.06653,-1.80821 2.06653,-1.80821 z"
         id="path15" />
      <path
         style="fill:#4d0000;fill-opacity:1;stroke:none;stroke-width:1;stroke-linecap:square;stroke-dasharray:none;stroke-opacity:1;paint-order:markers stroke fill"
         d="m 105.59666,152.2075 c 0,0 6.4579,7.74947 6.71621,8.78274 0.25832,1.03326 0.25832,3.61642 0.77495,4.908 0.51663,1.29158 -1.80821,2.32484 -1.80821,2.32484 0,0 -2.32484,-1.5499 -3.87473,-2.32484 -1.5499,-0.77495 -7.2512,-2.60152 -8.542779,-3.63478 -1.291579,-1.03327 -3.238128,-2.90415 -4.27139,-3.42079 -1.033264,-0.51663 -0.362624,0.92627 -1.912519,1.70122 -1.549895,0.77495 -0.941936,0.69928 -2.233513,1.21591 -1.291579,0.51664 2.360213,-2.74217 3.089496,-4.06007 0.378293,-0.68362 0.242645,-1.00953 0.954914,-1.61749 1.43037,-1.22089 0.391278,1.42454 2.974434,3.23275 2.583157,1.80821 9.424717,5.03335 10.974617,5.8083 1.54989,0.77495 1.03326,-0.25832 0.77495,-1.80821 -0.25832,-1.5499 -5.16632,-8.00779 -5.94127,-9.55768 -0.77494,-1.5499 2.32484,-1.5499 2.32484,-1.5499 z"
         id="path16" />
    </g>
  </g>
</svg>
