<?xml version="1.0" encoding="UTF-8" standalone="no"?>
<!-- Created with Inkscape (http://www.inkscape.org/) -->

<svg
   width="100mm"
   height="100mm"
   viewBox="0 0 100 100"
   version="1.1"
   id="svg1"
   xmlns="http://www.w3.org/2000/svg"
   xmlns:svg="http://www.w3.org/2000/svg">
  <defs
     id="defs1" />
  <g
     id="layer1"
     transform="translate(-73.81875,-108.47916)">
    <g
       id="g2"
       transform="translate(89.570344,118.76632)"
       style="opacity:1">
      <path
         style="fill:#4d0000;fill-opacity:1;stroke:none;stroke-width:6.00001;stroke-linecap:square;paint-order:markers stroke fill"
         d="m 32.84219,14.37902 c 0,-1.03326 0.12915,-1.54989 1.16242,-1.80821 1.03326,-0.25831 2.06652,-0.64579 2.454,-1.42073 0.38747,-0.77495 0.38747,-3.48727 0.12915,-4.26221 -0.25831,-0.77495 -2.97063,-3.09979 -4.13305,-2.58316 -1.16242,0.51663 -3.09979,3.22895 -2.84147,4.26221 0.25831,1.03326 0.9041,2.58316 1.42074,2.84147 0.51663,0.25832 -0.25832,2.84148 -0.25832,2.84148 L 30.6465,14.12071 c 0,0 -1.03326,-0.12916 -1.54989,0.51663 -0.51663,0.64579 -2.06653,2.84147 -2.06653,2.84147 l -2.454001,-0.12916 c 0,0 -0.77495,-0.9041 -1.16242,-1.54989 -0.38747,-0.64579 -1.03326,-0.77495 -1.03326,-0.77495 0,0 -2.71232,3.61642 -3.09979,4.13305 -0.38748,0.51664 1.42073,2.454 1.42073,2.454 0,0 -0.38747,1.29158 -0.38747,2.32485 0,1.03326 0.77495,4.26221 1.29158,5.42463 0.51663,1.16242 2.19568,3.48726 3.09979,2.97063 0.9041,-0.51663 0.77495,-1.16242 0.77495,-1.16242 0,0 -0.12916,0.9041 0,1.80821 0.12915,0.9041 0.258314,3.87473 -0.129166,4.908 -0.38747,1.03326 -1.420734,2.84147 -1.291574,4.00389 0.12916,1.16242 0.129156,2.97063 0.904106,3.48726 l 4.520527,1.42077 4.391374,-2.45399 c 0,0 2.453995,-4.0039 2.712315,-5.29548 0.25831,-1.29157 -1.367232,-6.34709 -1.367232,-7.50951 0,-1.16242 -0.245345,-3.49107 -0.503655,-4.9118 -0.25832,-1.42074 0.759734,-2.93437 0.45015,-4.11089 -0.365148,-1.38768 -0.64579,-4.64968 -1.03327,-5.81211 -0.38747,-1.16242 -1.29157,-2.32484 -1.29157,-2.32484 z"
         id="path1-6" />
      <path
         style="fill:#4d0000;fill-opacity:1;stroke:none;stroke-width:6.00001;stroke-linecap:square;paint-order:markers stroke fill"
         d="m 32.13871,17.09338 c 0,0 2.26768,1.37137 4.28901,1.87284 2.02133,0.50147 3.73804,2.29735 4.67832,2.29954 0.94028,0.002 2.87473,-0.27714 2.87473,-0.27714 0,0 4.50675,-0.20238 5.62519,-0.51911 1.11844,-0.31672 4.06575,-1.28562 4.93564,-1.53196 0.8699,-0.24635 1.77718,-1.30871 2.39854,-1.48467 0.62135,-0.17592 1.36697,-0.38712 1.36697,-0.38712 l -0.0748,1.63202 c 0,0 -0.53448,0.95678 -1.40436,1.20313 -0.86991,0.24635 -1.71891,-0.85559 -2.12912,0.066 -0.4102,0.92159 -5.14899,1.72662 -6.42689,1.95427 -1.2779,0.22767 -3.92278,0.84242 -4.98733,0.87542 -1.06456,0.033 0.441,1.08325 -1.91576,-0.12866 C 39.0121,21.45603 36.12087,21.2009 34.98593,20.98535 33.851,20.76981 32.9833,20.07588 32.84252,19.57879 32.70171,19.08172 32.13868,17.09338 32.13868,17.09338 Z"
         id="path2-2" />
      <path
         style="fill:#4d0000;fill-opacity:1;stroke:none;stroke-width:6.00001;stroke-linecap:square;paint-order:markers stroke fill"
         d="m 31.66032,16.82614 c 0,0 2.07742,-0.72253 3.49608,-0.45313 1.41867,0.26941 0.99196,0.65874 2.37545,0.8039 1.38347,0.14515 3.97447,-0.18588 4.57713,0.0462 0.60266,0.23204 0.67086,1.42087 0.67086,1.42087 0,0 -1.24272,0.35192 -2.46672,0.29587 -1.22401,-0.0561 -2.92643,-0.3794 -3.77764,-0.54105 -0.85119,-0.16167 -3.88539,0.0264 -3.88539,0.0264 z"
         id="path3-8" />
      <path
         style="fill:#4d0000;fill-opacity:1;stroke:none;stroke-width:6.00001;stroke-linecap:square;paint-order:markers stroke fill"
         d="m 43.67495,1e-5 c 0,0 2.58879,0.60925 4.35939,2.12139 1.7706,1.51214 4.30111,4.28568 5.04454,5.01481 0.74343,0.72913 2.31937,2.02791 2.68999,2.86261 0.37062,0.83472 2.12032,3.69513 2.08294,4.51114 -0.0374,0.81602 0.099,3.19366 0.11548,3.72593 0.0165,0.53227 -0.39809,3.33443 -0.45417,4.55844 -0.0561,1.22401 -1.76506,3.72154 -2.17526,4.64313 -0.41021,0.92159 -3.16944,4.92467 -3.72042,5.34917 -0.55096,0.42451 -1.22621,0.8842 -1.79368,0.77643 -0.56747,-0.10777 -0.72473,-1.13713 0.0748,-1.63202 0.79951,-0.49488 2.80653,-1.46597 4.90923,-5.41736 2.10269,-3.95139 2.16097,-6.11569 2.3809,-9.13119 C 57.40862,14.367 56.48922,13.01651 55.42908,11.16896 54.36891,9.32139 51.87359,6.67212 50.60007,5.01921 49.32655,3.3663 47.23485,2.61629 46.41884,2.5789 45.60282,2.5415 45.17832,1.99054 45.17832,1.99054 Z"
         id="path4-1" />
      <path
         style="fill:#4d0000;fill-opacity:1;stroke:none;stroke-width:6.00001;stroke-linecap:square;paint-order:markers stroke fill"
         d="m 46.11639,2.93302 c 0,0 -0.71922,4.09655 -1.04034,4.85867 -0.32112,0.76213 -1.02164,4.45066 -1.14811,5.42614 -0.12646,0.97546 -1.1954,2.88903 -1.35706,3.74023 -0.16165,0.8512 -0.004,1.88056 -0.004,1.88056 0,0 3.23437,5.25897 3.72926,6.05847 0.49488,0.79952 2.98582,5.32935 3.35644,6.16406 0.37062,0.83469 0.72474,1.13712 0.72474,1.13712 0,0 -0.33762,0.22985 -1.13274,-1.15582 -0.79511,-1.38567 -2.17202,-4.35167 -3.25087,-5.79124 -1.07886,-1.43956 -3.42903,-5.47231 -3.42903,-5.47231 l -0.42231,-1.49125 c 0,0 0.21994,-3.01549 0.7731,-4.38028 0.55317,-1.36479 0.45198,-3.61815 1.34496,-6.15307 0.89298,-2.53491 0.87868,-4.00747 1.00515,-4.98294 0.12646,-0.97547 0.14515,-1.38348 0.14515,-1.38348 z"
         id="path5-7" />
      <path
         style="fill:#4d0000;fill-opacity:1;stroke:none;stroke-width:6.00001;stroke-linecap:square;paint-order:markers stroke fill"
         d="m 42.98828,18.1347 c 0,0 12.63342,-1.09945 13.80218,-1.14308 1.16876,-0.0436 3.37854,-0.11179 3.37854,-0.11179 l -0.0762,-0.51099 c 0,0 1.60911,0.28251 2.17722,0.58958 -0.56257,0.60619 -1.56551,0.88626 -1.56551,0.88626 L 60.3919,17.49952 c 0,0 -2.63109,-0.13019 -3.43565,-0.27144 -0.80457,-0.14125 -6.57221,0.58781 -7.83064,0.90595 -1.25842,0.31815 -4.41955,0.13638 -5.16699,0.37837 -0.74743,0.24199 -1.36713,0.46494 -1.36713,0.46494 0,0 -0.006,-0.91327 0.39675,-0.84264 z"
         id="path6-2" />
      <path
         style="fill:#4d0000;fill-opacity:1;stroke:none;stroke-width:6.00001;stroke-linecap:square;paint-order:markers stroke fill"
         d="m 22.721079,15.32492 c 0,0 -1.18726,-0.73063 -1.55258,-1.09594 -0.36531,-0.36532 -0.36531,-0.36532 -0.36531,-0.36532 l -0.27399,0.6393 c 0,0 1.73524,0.82196 1.9179,1.2786 0.18266,0.45664 0.27398,-0.45664 0.27398,-0.45664 z"
         id="path7-7" />
      <path
         style="fill:#4d0000;fill-opacity:1;stroke:none;stroke-width:6.00001;stroke-linecap:square;paint-order:markers stroke fill"
         d="m 21.899129,16.69484 -1.46125,-1.73524 -0.27399,0.6393 c 0,0 1.09594,1.09594 1.36993,1.55259 0.27398,0.45664 0.36531,-0.45665 0.36531,-0.45665 z"
         id="path8-6" />
      <path
         style="fill:#4d0000;fill-opacity:1;stroke:none;stroke-width:6.00001;stroke-linecap:square;paint-order:markers stroke fill"
         d="m 21.077169,17.79078 -1.64391,-2.9225 -0.0913,0.36531 1.36993,3.47048 z"
         id="path9-5" />
      <path
         style="fill:#4d0000;fill-opacity:1;stroke:none;stroke-width:6.00001;stroke-linecap:square;paint-order:markers stroke fill"
         d="m 20.803189,18.43008 -1.9179,-2.19188 -0.0913,0.6393 z"
         id="path10-2" />
      <path
         style="fill:#4d0000;fill-opacity:1;stroke:none;stroke-width:1;stroke-linecap:square;stroke-dasharray:none;stroke-opacity:1;paint-order:markers stroke fill"
         d="m 26.089892,45.28898 c 0,0 0.645788,1.93736 -10e-7,2.58315 -0.64579,0.64579 -5.295473,4.0039 -6.716209,8.52442 -0.279251,0.88853 -0.904105,0.77495 -0.904105,0.77495 0,0 -5.295473,-6.19958 -7.232842,-7.362 C 9.299367,48.64708 8.395262,47.3555 7.6203149,47.22634 6.8453676,47.09719 6.3287361,45.28898 5.6829466,45.41813 5.0371572,45.54729 2.5831574,47.61382 1.6790523,48.13045 0.7749473,48.64708 -1e-7,50.84277 -1e-7,50.84277 c 0,0 1.4207368,0.77494 1.6790524,0 0.2583159,-0.77495 2.195684,-3.09979 2.8414734,-3.22895 0.6457894,-0.12916 1.9373683,-0.12916 2.4539998,0.77495 0.5166315,0.9041 7.8786305,6.84536 8.7827355,8.00778 0.904105,1.16243 1.937369,2.71232 2.583158,2.58316 0.645789,-0.12916 3.228947,-2.84147 4.003894,-3.48726 0.774947,-0.64579 6.457893,-7.62032 6.845367,-8.39526 0.387474,-0.77495 0.774949,-1.80821 -0.387474,-1.80821 -1.162421,0 -2.712314,0 -2.712314,0 z"
         id="path13" />
      <path
         style="fill:#4d0000;fill-opacity:1;stroke:none;stroke-width:1;stroke-linecap:square;stroke-dasharray:none;stroke-opacity:1;paint-order:markers stroke fill"
         d="m 31.835512,45.54729 c 0.904105,1.42074 4.778843,8.78274 5.812105,9.42853 1.033264,0.64579 3.487264,3.09979 4.391369,3.48726 0.904105,0.38747 0.645789,0.38747 0.387474,1.29158 -0.258318,0.9041 0.904105,4.908 1.033261,5.8121 0.129159,0.90411 1.679054,4.0039 1.937369,5.03716 0.258316,1.03326 1.162421,2.71232 1.162421,3.61642 0,0.90411 0.387474,3.09979 1.16242,3.48727 0.774949,0.38747 1.29158,0.64578 2.454,1.16242 1.162421,0.51663 2.066526,0.9041 2.970631,1.03326 0.904105,0.12916 -1.679051,-1.29158 -2.454,-1.93737 -0.774946,-0.64579 -1.80821,-1.42074 -2.066526,-2.06653 -0.258315,-0.64578 -2.195684,-8.52442 -2.97063,-11.23673 -0.774949,-2.71232 -2.066526,-5.42463 -2.841474,-6.84537 -0.774946,-1.42074 -3.487262,-7.23284 -4.778841,-8.91189 -1.291579,-1.67906 -1.937369,-4.52053 -2.324841,-5.16632 -0.387474,-0.64579 -1.162423,-0.9041 -1.162423,-0.9041 0,0 -1.420736,-0.51664 -1.937366,0.12915 -0.516634,0.64579 -0.774949,2.58316 -0.774949,2.58316 z"
         id="path14" />
    </g>
  </g>
</svg>
