<?xml version="1.0" encoding="UTF-8" standalone="no"?>
<!-- Created with Inkscape (http://www.inkscape.org/) -->

<svg
   width="62.27002mm"
   height="79.91153mm"
   viewBox="0 0 62.27002 79.91153"
   version="1.1"
   id="svg1"
   sodipodi:docname="khoisan-3_up.svg"
   inkscape:version="1.3.2 (091e20e, 2023-11-25, custom)"
   xmlns:inkscape="http://www.inkscape.org/namespaces/inkscape"
   xmlns:sodipodi="http://sodipodi.sourceforge.net/DTD/sodipodi-0.dtd"
   xmlns="http://www.w3.org/2000/svg"
   xmlns:svg="http://www.w3.org/2000/svg">
<g transform="translate(4.42772,0.00000) scale(0.9817399)">

  <sodipodi:namedview
     id="namedview1"
     pagecolor="#ffffff"
     bordercolor="#000000"
     borderopacity="0.25"
     inkscape:showpageshadow="2"
     inkscape:pageopacity="0.0"
     inkscape:pagecheckerboard="0"
     inkscape:deskcolor="#d1d1d1"
     inkscape:document-units="mm"
     inkscape:zoom="2.6918049"
     inkscape:cx="101.41894"
     inkscape:cy="166.61683"
     inkscape:window-width="62.27002mm"
     inkscape:window-height="79.91153mm"
     inkscape:window-x="-8"
     inkscape:window-y="-8"
     inkscape:window-maximized="1"
     inkscape:current-layer="svg1" />
  <defs
     id="defs1" />
  <path
     style="fill:#4d0000;fill-opacity:1;stroke:none;stroke-width:6.00001;stroke-linecap:square;paint-order:markers stroke fill"
     d="m 28.692507,18.65165 c 0,-1.03326 0.12915,-1.54989 1.16242,-1.80821 1.03326,-0.25831 2.06652,-0.64579 2.454,-1.42073 0.38747,-0.77495 0.38747,-3.48727 0.12915,-4.26221 -0.25831,-0.77495 -2.97063,-3.0997904 -4.13305,-2.5831604 -1.16242,0.51663 -3.09979,3.2289504 -2.84147,4.2622104 0.25831,1.03326 0.9041,2.58316 1.42074,2.84147 0.51663,0.25832 -0.25832,2.84148 -0.25832,2.84148 l -0.12916,-0.12916 c 0,0 -1.03326,-0.12916 -1.54989,0.51663 -0.51663,0.64579 -2.06653,2.84147 -2.06653,2.84147 l -2.454005,-0.12916 c 0,0 -0.77495,-0.9041 -1.16242,-1.54989 -0.38747,-0.64579 -1.03326,-0.77495 -1.03326,-0.77495 0,0 -2.71232,3.61642 -3.09979,4.13305 -0.38748,0.51664 1.42073,2.454 1.42073,2.454 0,0 -0.38747,1.29158 -0.38747,2.32485 0,1.03326 0.77495,4.26221 1.29158,5.42463 0.51663,1.16242 2.19568,3.48726 3.09979,2.97063 0.9041,-0.51663 0.77495,-1.16242 0.77495,-1.16242 0,0 -0.12916,0.9041 0,1.80821 0.12915,0.9041 0.258314,3.87473 -0.129166,4.908 -0.38747,1.03326 -1.420734,2.84147 -1.291574,4.00389 0.12916,1.16242 0.129156,2.97063 0.904106,3.48726 l 4.520529,1.42077 4.39137,-2.45399 c 0,0 2.454,-4.0039 2.71232,-5.29548 0.25831,-1.29157 -1.36723,-6.34709 -1.36723,-7.50951 0,-1.16242 -0.24535,-3.49107 -0.50366,-4.9118 -0.25832,-1.42074 0.75973,-2.93437 0.45015,-4.11089 -0.36515,-1.38768 -0.64579,-4.64968 -1.03327,-5.81211 -0.38747,-1.16242 -1.29157,-2.32484 -1.29157,-2.32484 z"
     id="path1-6-6-6" />
  <path
     style="fill:#4d0000;fill-opacity:1;stroke:none;stroke-width:6.00001;stroke-linecap:square;paint-order:markers stroke fill"
     d="m 28.381076,21.041872 c 0,0 2.649554,0.0538 4.650812,-0.522578 2.001258,-0.576379 4.385912,0.120543 5.201314,-0.3477 0.815306,-0.468408 2.351019,-1.677375 2.351019,-1.677375 0,0 3.80177,-2.428642 4.612003,-3.262158 0.810237,-0.833507 2.878232,-3.146255 3.508409,-3.794536 0.630181,-0.648296 0.884728,-2.0219666 1.334862,-2.4850325 0.450145,-0.4630261 0.99027,-1.0187407 0.99027,-1.0187407 l 0.751232,1.4507708 c 0,0 0.01552,1.0958354 -0.614647,1.7441214 -0.630189,0.6483 -1.916414,0.118492 -1.810872,1.121717 0.105552,1.003221 -3.595846,4.069793 -4.588715,4.905893 -0.992859,0.836118 -2.976017,2.690947 -3.881444,3.251801 -0.905436,0.560859 0.923542,0.717622 -1.723427,0.846457 -2.64696,0.128831 -5.278404,1.353496 -6.369066,1.734295 -1.090648,0.380802 -2.189063,0.213691 -2.559527,-0.146412 -0.37048,-0.36007 -1.852249,-1.800508 -1.852249,-1.800508 z"
     id="path2-2-5-9"
     inkscape:transform-center-x="-12.50084"
     inkscape:transform-center-y="-4.9027476" />
  <path
     style="fill:#4d0000;fill-opacity:1;stroke:none;stroke-width:6.00001;stroke-linecap:square;paint-order:markers stroke fill"
     d="m 27.833158,21.04963 c 0,0 1.437834,-1.664439 2.801129,-2.140462 1.36331,-0.476019 1.188433,0.07451 2.459151,-0.491527 1.270695,-0.566031 3.349052,-2.148212 3.98701,-2.248555 0.637939,-0.100377 1.291417,0.89508 1.291417,0.89508 0,0 -0.900267,0.926131 -1.988307,1.489591 -1.088074,0.563421 -2.724063,1.134645 -3.542057,1.420257 -0.817987,0.285584 -3.351647,1.965558 -3.351647,1.965558 z"
     id="path3-8-3-0"
     inkscape:transform-center-x="-5.52231"
     inkscape:transform-center-y="-1.4215936" />
  <path
     style="fill:#4d0000;fill-opacity:1;stroke:none;stroke-width:6.00001;stroke-linecap:square;paint-order:markers stroke fill"
     d="m 29.825068,0.47045884 c 0,0 2.546583,-0.7667691 4.836038,-0.3425174 2.289454,0.4242516 5.86771,1.56095266 6.876104,1.82068276 1.008395,0.2597301 3.022589,0.5965366 3.760905,1.134098 0.738326,0.5375788 3.683816,2.1399165 4.059449,2.8652919 0.375621,0.725394 1.682567,2.7162907 1.962974,3.16901 0.280424,0.4527093 1.322459,3.0867459 1.885897,4.1748099 0.563421,1.088074 0.332183,4.105479 0.437735,5.108699 0.105542,1.003225 -0.282481,5.849609 -0.547394,6.492727 -0.26489,0.643116 -0.619829,1.378845 -1.165157,1.569248 -0.545329,0.190404 -1.1962,-0.622418 -0.751231,-1.450771 0.444956,-0.828333 1.697541,-2.672832 1.542837,-7.146186 C 52.568513,13.392201 51.536835,11.488723 50.21955,8.767258 48.90227,6.0458021 47.430802,5.3359434 45.588918,4.2659882 43.746999,3.1960307 40.261354,2.1493555 38.331998,1.3546535 36.402642,0.55995144 34.216172,0.95627374 33.490792,1.3318975 32.765398,1.7075182 32.12229,1.4426228 32.12229,1.4426228 Z"
     id="path4-1-3-7"
     inkscape:transform-center-x="-14.163301"
     inkscape:transform-center-y="-7.2271066" />
  <path
     style="fill:#4d0000;fill-opacity:1;stroke:none;stroke-width:6.00001;stroke-linecap:square;paint-order:markers stroke fill"
     d="m 33.405922,1.7897999 c 0,0 1.425412,3.9073264 1.528374,4.7279017 0.102967,0.8205839 1.340564,4.3652044 1.718778,5.2732304 0.378212,0.908003 0.409268,3.099673 0.694867,3.917664 0.285607,0.817986 0.936815,1.630613 0.936815,1.630613 0,0 5.430532,2.937217 6.258869,3.382159 0.828339,0.444965 5.250471,3.122442 5.988793,3.660012 0.738311,0.537553 1.196203,0.622405 1.196203,0.622405 0,0 -0.177463,0.367866 -1.558892,-0.434599 -1.38142,-0.802471 -4.056859,-2.682647 -5.710956,-3.389926 -1.6541,-0.707266 -5.705782,-3.024645 -5.705782,-3.024645 L 37.641635,17.07431 c 0,0 -1.317271,-2.721461 -1.520616,-4.179984 C 35.917683,11.435798 34.70337,9.534926 34.209254,6.8931309 33.715142,4.2513445 32.966478,2.9832201 32.588269,2.0752033 32.210052,1.1671915 32.022233,0.80449944 32.022233,0.80449944 Z"
     id="path5-7-5-5"
     inkscape:transform-center-x="-14.295226"
     inkscape:transform-center-y="-7.5261449" />
  <path
     style="fill:#4d0000;fill-opacity:1;stroke:none;stroke-width:6.00001;stroke-linecap:square;paint-order:markers stroke fill"
     d="m 38.29774,16.518896 c 0,0 10.391137,-7.2688616 11.381498,-7.8910263 0.990376,-0.6221387 2.870006,-1.786083 2.870006,-1.786083 L 52.227758,6.4373564 c 0,0 1.534785,-0.5598942 2.180318,-0.5780188 -0.184105,0.806261 -0.912641,1.5502787 -0.912641,1.5502787 L 53.052127,7.267004 c 0,0 -2.343686,1.2027971 -3.111081,1.482751 -0.767403,0.2799589 -5.397795,3.795163 -6.328558,4.699896 -0.930748,0.904736 -3.759252,2.327884 -4.285559,2.911173 -0.526299,0.583285 -0.9515,1.086215 -0.9515,1.086215 0,0 -0.461831,-0.787915 -0.07772,-0.928123 z"
     id="path6-2-4-9"
     inkscape:transform-center-x="-18.696361"
     inkscape:transform-center-y="-8.8191785" />
  <path
     style="fill:#4d0000;fill-opacity:1;stroke:none;stroke-width:6.00001;stroke-linecap:square;paint-order:markers stroke fill"
     d="m 18.571392,19.59755 c 0,0 -1.18726,-0.73063 -1.55258,-1.09594 -0.36531,-0.36532 -0.36531,-0.36532 -0.36531,-0.36532 l -0.27399,0.6393 c 0,0 1.73524,0.82196 1.9179,1.2786 0.18266,0.45664 0.27398,-0.45664 0.27398,-0.45664 z"
     id="path7-7-3-9" />
  <path
     style="fill:#4d0000;fill-opacity:1;stroke:none;stroke-width:6.00001;stroke-linecap:square;paint-order:markers stroke fill"
     d="m 17.749442,20.96747 -1.46125,-1.73524 -0.27399,0.6393 c 0,0 1.09594,1.09594 1.36993,1.55259 0.27398,0.45664 0.36531,-0.45665 0.36531,-0.45665 z"
     id="path8-6-3-8" />
  <path
     style="fill:#4d0000;fill-opacity:1;stroke:none;stroke-width:6.00001;stroke-linecap:square;paint-order:markers stroke fill"
     d="m 16.927482,22.06341 -1.64391,-2.9225 -0.0913,0.36531 1.36993,3.47048 z"
     id="path9-5-4-9" />
  <path
     style="fill:#4d0000;fill-opacity:1;stroke:none;stroke-width:6.00001;stroke-linecap:square;paint-order:markers stroke fill"
     d="m 16.653502,22.70271 -1.9179,-2.19188 -0.0913,0.6393 z"
     id="path10-2-2-7" />
  <path
     style="fill:#4d0000;fill-opacity:1;stroke:none;stroke-width:1;stroke-linecap:square;stroke-dasharray:none;stroke-opacity:1;paint-order:markers stroke fill"
     d="m 29.770597,47.75339 c -1.03326,2.32484 -4.64968,12.39915 -7.49116,13.69073 -2.841469,1.29158 -0.774939,3.61642 -2.583149,3.61642 -1.80822,0 -15.7572664,7.74948 -17.0488464,9.29937 -1.29157,1.54989 -0.77494,2.84147 -0.25831,4.64968 0.51663,1.80821 1.29157,2.32485 1.29157,2.32485 0,0 -1.54988,0.25832 -2.06651,-1.5499 -0.51664,-1.80821 -1.29158998,-5.68295 -1.29158998,-5.68295 -0.73063,-2.19188 -0.25831,-2.58315 1.80820998,-2.58315 2.06653,0 9.5576864,-6.19958 11.1075764,-7.23284 1.5499,-1.03327 1.80821,-1.29158 3.61642,-1.03327 1.80821,0.25832 1.80821,-0.77495 1.80821,-0.77495 0,0 1.5499,-1.03326 2.58316,-3.3581 1.033259,-2.32484 3.874739,-9.816 5.166319,-10.84926 1.29157,-1.03327 3.3581,-0.51663 3.3581,-0.51663 z"
     id="path17" />
  <path
     style="fill:#4d0000;fill-opacity:1;stroke:none;stroke-width:1;stroke-linecap:square;stroke-dasharray:none;stroke-opacity:1;paint-order:markers stroke fill"
     d="m 28.995647,47.75339 c 0,0 6.4579,3.3581 8.78274,4.908 2.32484,1.54989 5.16631,3.09978 5.42463,3.87473 0.25832,0.77495 -1.29158,3.09979 -1.80821,4.64969 -0.51663,1.54989 -1.80821,7.23284 -2.32484,8.52442 -0.51663,1.29157 -1.29158,4.13305 -1.03327,5.68294 0.25832,1.5499 2.58316,2.58316 4.13306,4.13306 1.54989,1.54989 3.61642,2.06652 1.29158,1.80821 -2.32485,-0.25832 -3.87474,-2.06653 -5.68295,-3.61643 -1.80821,-1.54989 -1.03326,-1.80821 -1.03326,-3.09978 0,-1.29158 0.51663,-14.20737 1.54989,-15.24063 1.03326,-1.03327 2.06653,-1.80822 2.06653,-1.80822 0,0 0.77494,-0.77494 -1.5499,-1.29157 -2.32484,-0.51664 -9.816,-4.39137 -11.10758,-5.94127 -1.29158,-1.54989 1.29158,-2.58315 1.29158,-2.58315 z"
     id="path18" />

</g>
</svg>
