<?xml version="1.0" encoding="UTF-8" standalone="no"?>
<!-- Created with Inkscape (http://www.inkscape.org/) -->

<svg
   width="100mm"
   height="100mm"
   viewBox="0 0 100 100"
   version="1.1"
   id="svg1"
   inkscape:export-filename="khoisan-3.svg"
   inkscape:export-xdpi="96"
   inkscape:export-ydpi="96"
   sodipodi:docname="khoisan-3_no-arrow.svg"
   inkscape:version="1.3.2 (091e20e, 2023-11-25, custom)"
   xmlns:inkscape="http://www.inkscape.org/namespaces/inkscape"
   xmlns:sodipodi="http://sodipodi.sourceforge.net/DTD/sodipodi-0.dtd"
   xmlns="http://www.w3.org/2000/svg"
   xmlns:svg="http://www.w3.org/2000/svg">
  <sodipodi:namedview
     id="namedview1"
     pagecolor="#ffffff"
     bordercolor="#000000"
     borderopacity="0.25"
     inkscape:showpageshadow="2"
     inkscape:pageopacity="0.0"
     inkscape:pagecheckerboard="0"
     inkscape:deskcolor="#d1d1d1"
     inkscape:document-units="mm"
     inkscape:zoom="0.67295124"
     inkscape:cx="744.48188"
     inkscape:cy="302.39933"
     inkscape:window-width="1920"
     inkscape:window-height="1009"
     inkscape:window-x="-8"
     inkscape:window-y="-8"
     inkscape:window-maximized="1"
     inkscape:current-layer="layer1" />
  <defs
     id="defs1" />
  <g
     inkscape:label="Layer 1"
     inkscape:groupmode="layer"
     id="layer1"
     transform="translate(-73.81875,-108.47916)">
    <path
       style="opacity:1;fill:#4d0000;fill-opacity:1;stroke:none;stroke-width:6.00001;stroke-linecap:square;paint-order:markers stroke fill"
       d="m 121.46956,132.96683 c -0.0351,-1.03267 0.0764,-1.55339 1.10031,-1.84666 1.02389,-0.29327 2.04339,-0.71563 2.40431,-1.50329 0.36092,-0.78767 0.26877,-3.49842 -0.0157,-4.26414 -0.28449,-0.76572 -3.07423,-2.99707 -4.21843,-2.44124 -1.1442,0.55582 -2.98829,3.3324 -2.69502,4.35629 0.29327,1.02388 0.99134,2.55095 1.51646,2.79156 0.52511,0.24061 -0.16163,2.84861 -0.16163,2.84861 l -0.13347,-0.12469 c 0,0 -1.03705,-0.094 -1.53144,0.56899 -0.49439,0.66297 -1.9688,2.91004 -1.9688,2.91004 l -2.45698,-0.0457 c 0,0 -0.80522,-0.87725 -1.2144,-1.5095 -0.40919,-0.63226 -1.059,-0.7394 -1.059,-0.7394 0,0 -2.58788,3.70648 -2.95758,4.23598 -0.3697,0.52951 1.50329,2.40431 1.50329,2.40431 0,0 -0.34336,1.304 -0.30826,2.33667 0.0351,1.03267 0.91932,4.23342 1.47514,5.37762 0.55583,1.1442 2.31289,3.41065 3.19893,2.8636 0.88603,-0.54705 0.73501,-1.18808 0.73501,-1.18808 0,0 -0.0984,0.90797 0.0614,1.80717 0.15979,0.89919 0.38981,3.86371 0.0377,4.90955 -0.35214,1.04583 -1.32337,2.8881 -1.15479,4.04546 0.16858,1.15736 0.23001,2.96453 1.02206,3.45453 l 4.56619,1.26636 4.30546,-2.60177 c 0,0 2.31654,-4.08496 2.53083,-5.38457 0.21428,-1.2996 -1.58208,-6.29698 -1.62158,-7.45873 -0.0395,-1.16174 -0.36382,-3.48071 -0.67025,-4.89185 -0.30643,-1.41114 0.6596,-2.95849 0.31022,-4.12381 -0.41208,-1.37447 -0.80338,-4.62505 -1.23014,-5.77365 -0.42674,-1.14858 -1.36981,-2.27961 -1.36981,-2.27961 z"
       id="path1-6-6-6-8"
       inkscape:transform-center-x="2.3668498"
       inkscape:transform-center-y="-21.206414" />
    <path
       style="opacity:1;fill:#4d0000;fill-opacity:1;stroke:none;stroke-width:6.00001;stroke-linecap:square;paint-order:markers stroke fill"
       d="m 120.8587,135.70352 c 0,0 2.31297,1.29353 4.35017,1.72604 2.0372,0.4325 3.81393,2.16902 4.75375,2.13926 0.9398,-0.03 2.86365,-0.37465 2.86365,-0.37465 0,0 4.49727,-0.35538 5.60431,-0.70993 1.10703,-0.35453 4.01972,-1.42301 4.88074,-1.69876 0.86103,-0.27577 1.73169,-1.36834 2.34671,-1.56531 0.61501,-0.19693 1.35303,-0.43334 1.35303,-0.43334 l -0.0193,1.63362 c 0,0 -0.50166,0.97439 -1.36267,1.25015 -0.86104,0.27576 -1.74699,-0.7967 -2.12565,0.1383 -0.37865,0.93499 -5.08735,1.90056 -6.35678,2.1715 -1.26943,0.27095 -3.8919,0.97521 -4.95471,1.04436 -1.06282,0.0692 0.47755,1.06764 -1.91903,-0.0635 -2.39656,-1.13114 -5.29479,-1.28789 -6.4364,-1.46475 -1.1416,-0.17686 -2.03237,-0.84091 -2.18996,-1.33293 -0.15762,-0.492 -0.78788,-2.46006 -0.78788,-2.46006 z"
       id="path2-2-5-9-3"
       inkscape:transform-center-x="-14.518634"
       inkscape:transform-center-y="-27.2164" />
    <path
       style="opacity:1;fill:#4d0000;fill-opacity:1;stroke:none;stroke-width:6.00001;stroke-linecap:square;paint-order:markers stroke fill"
       d="m 131.80753,118.22807 c 0,0 2.60799,0.52094 4.42895,1.97205 1.82095,1.45111 4.44423,4.13708 5.21201,4.84053 0.76777,0.70345 2.38693,1.94793 2.78569,2.76956 0.39877,0.82165 2.24464,3.62096 2.23501,4.43777 -0.01,0.81682 0.20745,3.18845 0.242,3.71985 0.0346,0.5314 -0.28457,3.34603 -0.29903,4.57124 -0.0145,1.22521 -1.6376,3.77936 -2.01625,4.71436 -0.37867,0.93499 -3.0003,5.02951 -3.53653,5.47248 -0.53622,0.44298 -1.19547,0.92535 -1.76627,0.83692 -0.5708,-0.0884 -0.76295,-1.11185 0.0193,-1.63362 0.78223,-0.52175 2.7551,-1.56047 4.72234,-5.58102 1.96722,-4.02055 1.95194,-6.18558 2.06929,-9.20681 0.11735,-3.02122 -0.84741,-4.3397 -1.96971,-6.15016 -1.12233,-1.81049 -3.70622,-4.37345 -5.03516,-5.98213 -1.32894,-1.60869 -3.44492,-2.2872 -4.26173,-2.29684 -0.81682,-0.01 -1.25979,-0.54588 -1.25979,-0.54588 z"
       id="path4-1-3-7-8"
       inkscape:transform-center-x="-19.844435"
       inkscape:transform-center-y="-30.4579" />
    <path
       style="opacity:1;fill:#4d0000;fill-opacity:1;stroke:none;stroke-width:6.00001;stroke-linecap:square;paint-order:markers stroke fill"
       d="m 111.38642,134.25605 c 0,0 -1.2114,-0.68987 -1.58892,-1.04256 -0.37751,-0.35269 -0.37751,-0.35269 -0.37751,-0.35269 l -0.25211,0.64824 c 0,0 1.76217,0.76253 1.96024,1.2127 0.19806,0.45017 0.2583,-0.46569 0.2583,-0.46569 z"
       id="path7-7-3-9-3"
       inkscape:transform-center-x="9.1390833"
       inkscape:transform-center-y="-31.505142" />
    <path
       style="opacity:1;fill:#4d0000;fill-opacity:1;stroke:none;stroke-width:6.00001;stroke-linecap:square;paint-order:markers stroke fill"
       d="m 110.61149,135.65311 -1.51936,-1.6846 -0.25211,0.64824 c 0,0 1.13254,1.05808 1.42189,1.50515 0.28933,0.44707 0.34958,-0.46879 0.34958,-0.46879 z"
       id="path8-6-3-8-3"
       inkscape:transform-center-x="9.6904813"
       inkscape:transform-center-y="-30.251954" />
    <path
       style="opacity:1;fill:#4d0000;fill-opacity:1;stroke:none;stroke-width:6.00001;stroke-linecap:square;paint-order:markers stroke fill"
       d="m 109.82724,136.77634 -1.74225,-2.86496 -0.0788,0.3682 1.48705,3.42193 z"
       id="path9-5-4-9-5"
       inkscape:transform-center-x="10.499537"
       inkscape:transform-center-y="-29.552194" />
    <path
       style="opacity:1;fill:#4d0000;fill-opacity:1;stroke:none;stroke-width:6.00001;stroke-linecap:square;paint-order:markers stroke fill"
       d="m 109.57514,137.42458 -1.99126,-2.12545 -0.0695,0.64203 z"
       id="path10-2-2-7-3"
       inkscape:transform-center-x="10.871493"
       inkscape:transform-center-y="-28.996784" />
    <path
       style="opacity:1;fill:#4d0000;fill-opacity:1;stroke:none;stroke-width:1;stroke-linecap:square;stroke-dasharray:none;stroke-opacity:1;paint-order:markers stroke fill"
       d="m 123.64699,162.15703 c -1.03326,2.32484 -4.64968,12.39915 -7.49116,13.69073 -2.84147,1.29158 -0.77494,3.61642 -2.58315,3.61642 -1.80822,0 -15.757257,7.74948 -17.048847,9.29937 -1.29156,1.54989 -0.77494,2.84147 -0.25831,4.64968 0.51664,1.80821 1.29157,2.32485 1.29157,2.32485 0,0 -1.54987,0.25832 -2.06651,-1.5499 -0.51664,-1.80821 -1.291587,-5.68295 -1.291587,-5.68295 -0.73063,-2.19188 -0.2583,-2.58315 1.808207,-2.58315 2.06653,0 9.557687,-6.19958 11.107577,-7.23284 1.5499,-1.03327 1.80821,-1.29158 3.61642,-1.03327 1.80821,0.25832 1.80821,-0.77495 1.80821,-0.77495 0,0 1.5499,-1.03326 2.58316,-3.3581 1.03326,-2.32484 3.87474,-9.816 5.16632,-10.84926 1.29157,-1.03327 3.3581,-0.51663 3.3581,-0.51663 z"
       id="path17-1" />
    <path
       style="opacity:1;fill:#4d0000;fill-opacity:1;stroke:none;stroke-width:1;stroke-linecap:square;stroke-dasharray:none;stroke-opacity:1;paint-order:markers stroke fill"
       d="m 122.87204,162.15703 c 0,0 6.4579,3.3581 8.78274,4.908 2.32484,1.54989 5.16631,3.09978 5.42463,3.87473 0.25832,0.77495 -1.29158,3.09979 -1.80821,4.64969 -0.51663,1.54989 -1.80821,7.23284 -2.32484,8.52442 -0.51663,1.29157 -1.29158,4.13305 -1.03327,5.68294 0.25832,1.5499 2.58316,2.58316 4.13306,4.13306 1.54989,1.54989 3.61642,2.06652 1.29158,1.80821 -2.32485,-0.25832 -3.87474,-2.06653 -5.68295,-3.61643 -1.80821,-1.54989 -1.03326,-1.80821 -1.03326,-3.09978 0,-1.29158 0.51663,-14.20737 1.54989,-15.24063 1.03326,-1.03327 2.06653,-1.80822 2.06653,-1.80822 0,0 0.77494,-0.77494 -1.5499,-1.29157 -2.32484,-0.51664 -9.816,-4.39137 -11.10758,-5.94127 -1.29158,-1.54989 1.29158,-2.58315 1.29158,-2.58315 z"
       id="path18-9" />
    <path
       style="opacity:1;fill:#4d0000;fill-opacity:1;stroke-width:1;stroke-linecap:square;paint-order:markers stroke fill"
       d="m 133.74027,120.34511 0.0481,5.14488 0.27284,3.67617 0.20465,1.80083 1.47513,6.13619 0.99016,4.27601 0.23241,2.56486 1.27557,4.47428 0.956,1.42574 0.42434,0.19322 -0.3675,-0.54303 -0.82974,-1.77808 -0.33595,-1.58741 -0.86005,-2.61157 -0.0708,-1.94479 -0.27909,-1.93723 -0.86257,-2.68104 -0.27152,-1.72884 -0.45086,-2.83512 -0.42816,-2.20998 -0.46102,-3.11293 -0.0985,-2.70883 0.1174,-2.50803 0.0808,-1.60257 z"
       id="path3-7-1"
       inkscape:transform-center-x="-2.8341428"
       inkscape:transform-center-y="14.766524" />
  </g>
</svg>
