<?xml version="1.0" encoding="UTF-8" standalone="no"?>
<!-- Created with Inkscape (http://www.inkscape.org/) -->

<svg
   width="62.27002mm"
   height="79.91153mm"
   viewBox="0 0 62.27002 79.91153"
   version="1.1"
   id="svg1"
   xmlns="http://www.w3.org/2000/svg"
   xmlns:svg="http://www.w3.org/2000/svg">
  <defs
     id="defs1" />
  <g
     id="layer1"
     transform="translate(-73.81875,-108.47916)">
    <path
       style="fill:#4d0000;fill-opacity:1;stroke:none;stroke-width:6.00001;stroke-linecap:square;paint-order:markers stroke fill"
       d="m 106.77951,122.8582 c 0,-1.03326 0.12915,-1.54989 1.16242,-1.80821 1.03326,-0.25831 2.06652,-0.64579 2.454,-1.42073 0.38747,-0.77495 0.38747,-3.48727 0.12915,-4.26221 -0.25831,-0.77495 -2.97063,-3.09979 -4.13305,-2.58316 -1.16242,0.51663 -3.09979,3.22895 -2.84147,4.26221 0.25831,1.03326 0.9041,2.58316 1.42074,2.84147 0.51663,0.25832 -0.25832,2.84148 -0.25832,2.84148 l -0.12916,-0.12916 c 0,0 -1.03326,-0.12916 -1.54989,0.51663 -0.51663,0.64579 -2.06653,2.84147 -2.06653,2.84147 l -2.454003,-0.12916 c 0,0 -0.77495,-0.9041 -1.16242,-1.54989 -0.38747,-0.64579 -1.03326,-0.77495 -1.03326,-0.77495 0,0 -2.71232,3.61642 -3.09979,4.13305 -0.38748,0.51664 1.42073,2.454 1.42073,2.454 0,0 -0.38747,1.29158 -0.38747,2.32485 0,1.03326 0.77495,4.26221 1.29158,5.42463 0.51663,1.16242 2.19568,3.48726 3.09979,2.97063 0.9041,-0.51663 0.77495,-1.16242 0.77495,-1.16242 0,0 -0.12916,0.9041 0,1.80821 0.12915,0.9041 0.25831,3.87473 -0.12917,4.908 -0.38747,1.03326 -1.42073,2.84147 -1.29157,4.00389 0.12916,1.16242 0.12916,2.97063 0.90411,3.48726 l 4.520523,1.42077 4.39138,-2.45399 c 0,0 2.45399,-4.0039 2.71231,-5.29548 0.25831,-1.29157 -1.36723,-6.34709 -1.36723,-7.50951 0,-1.16242 -0.24534,-3.49107 -0.50365,-4.9118 -0.25832,-1.42074 0.75973,-2.93437 0.45015,-4.11089 -0.36515,-1.38768 -0.64579,-4.64968 -1.03327,-5.81211 -0.38747,-1.16242 -1.29158,-2.32484 -1.29158,-2.32484 z"
       id="path1-6-6-6-8" />
    <path
       style="fill:#4d0000;fill-opacity:1;stroke:none;stroke-width:6.00001;stroke-linecap:square;paint-order:markers stroke fill"
       d="m 106.07603,125.57256 c 0,0 2.26768,1.37137 4.28901,1.87284 2.02133,0.50147 3.73804,2.29735 4.67832,2.29954 0.94028,0.002 2.87473,-0.27714 2.87473,-0.27714 0,0 4.50675,-0.20238 5.62519,-0.51911 1.11844,-0.31672 4.06575,-1.28562 4.93564,-1.53196 0.8699,-0.24635 1.77718,-1.30871 2.39854,-1.48467 0.62135,-0.17592 1.36697,-0.38712 1.36697,-0.38712 l -0.0748,1.63202 c 0,0 -0.53448,0.95678 -1.40436,1.20313 -0.86991,0.24635 -1.71891,-0.85559 -2.12912,0.066 -0.4102,0.92159 -5.14899,1.72662 -6.42689,1.95427 -1.2779,0.22767 -3.92278,0.84242 -4.98733,0.87542 -1.06456,0.033 0.441,1.08325 -1.91576,-0.12866 -2.35675,-1.21191 -5.24798,-1.46704 -6.38292,-1.68259 -1.13493,-0.21554 -2.00263,-0.90947 -2.14341,-1.40656 -0.14081,-0.49707 -0.70384,-2.48541 -0.70384,-2.48541 z"
       id="path2-2-5-9-7" />
    <path
       style="fill:#4d0000;fill-opacity:1;stroke:none;stroke-width:6.00001;stroke-linecap:square;paint-order:markers stroke fill"
       d="m 117.61227,108.47919 c 0,0 2.58879,0.60925 4.35939,2.12139 1.7706,1.51214 4.30111,4.28568 5.04454,5.01481 0.74343,0.72913 2.31937,2.02791 2.68999,2.86261 0.37062,0.83472 2.12032,3.69513 2.08294,4.51114 -0.0374,0.81602 0.099,3.19366 0.11548,3.72593 0.0165,0.53227 -0.39809,3.33443 -0.45417,4.55844 -0.0561,1.22401 -1.76506,3.72154 -2.17526,4.64313 -0.41021,0.92159 -3.16944,4.92467 -3.72042,5.34917 -0.55096,0.42451 -1.22621,0.8842 -1.79368,0.77643 -0.56747,-0.10777 -0.72473,-1.13713 0.0748,-1.63202 0.79951,-0.49488 2.80653,-1.46597 4.90923,-5.41736 2.10269,-3.95139 2.16097,-6.11569 2.3809,-9.13119 0.21993,-3.01549 -0.69947,-4.36598 -1.75961,-6.21353 -1.06017,-1.84757 -3.55549,-4.49684 -4.82901,-6.14975 -1.27352,-1.65291 -3.36522,-2.40292 -4.18123,-2.44031 -0.81602,-0.0374 -1.24052,-0.58836 -1.24052,-0.58836 z"
       id="path4-1-3-7-1" />
    <path
       style="fill:#4d0000;fill-opacity:1;stroke:none;stroke-width:6.00001;stroke-linecap:square;paint-order:markers stroke fill"
       d="m 96.658397,123.8041 c 0,0 -1.18726,-0.73063 -1.55258,-1.09594 -0.36531,-0.36532 -0.36531,-0.36532 -0.36531,-0.36532 l -0.27399,0.6393 c 0,0 1.73524,0.82196 1.9179,1.2786 0.18266,0.45664 0.27398,-0.45664 0.27398,-0.45664 z"
       id="path7-7-3-9-2" />
    <path
       style="fill:#4d0000;fill-opacity:1;stroke:none;stroke-width:6.00001;stroke-linecap:square;paint-order:markers stroke fill"
       d="m 95.836447,125.17402 -1.46125,-1.73524 -0.27399,0.6393 c 0,0 1.09594,1.09594 1.36993,1.55259 0.27398,0.45664 0.36531,-0.45665 0.36531,-0.45665 z"
       id="path8-6-3-8-0" />
    <path
       style="fill:#4d0000;fill-opacity:1;stroke:none;stroke-width:6.00001;stroke-linecap:square;paint-order:markers stroke fill"
       d="m 95.014487,126.26996 -1.64391,-2.9225 -0.0913,0.36531 1.36993,3.47048 z"
       id="path9-5-4-9-7" />
    <path
       style="fill:#4d0000;fill-opacity:1;stroke:none;stroke-width:6.00001;stroke-linecap:square;paint-order:markers stroke fill"
       d="m 94.740507,126.90926 -1.9179,-2.19188 -0.0913,0.6393 z"
       id="path10-2-2-7-7" />
    <path
       style="fill:#4d0000;fill-opacity:1;stroke:none;stroke-width:1;stroke-linecap:square;stroke-dasharray:none;stroke-opacity:1;paint-order:markers stroke fill"
       d="m 107.85761,151.95995 c -1.03326,2.32484 -4.64968,12.39915 -7.49116,13.69073 -2.841473,1.29158 -0.774943,3.61642 -2.583153,3.61642 -1.80822,0 -15.75727,7.74948 -17.04885,9.29937 -1.29157,1.54989 -0.77494,2.84147 -0.25831,4.64968 0.51663,1.80821 1.29157,2.32485 1.29157,2.32485 0,0 -1.54988,0.25832 -2.06651,-1.5499 -0.51664,-1.80821 -1.29159,-5.68295 -1.29159,-5.68295 -0.73063,-2.19188 -0.25831,-2.58315 1.80821,-2.58315 2.06653,0 9.55769,-6.19958 11.10758,-7.23284 1.5499,-1.03327 1.80821,-1.29158 3.61642,-1.03327 1.80821,0.25832 1.80821,-0.77495 1.80821,-0.77495 0,0 1.5499,-1.03326 2.58316,-3.3581 1.033263,-2.32484 3.874743,-9.816 5.166323,-10.84926 1.29157,-1.03327 3.3581,-0.51663 3.3581,-0.51663 z"
       id="path17-4" />
    <path
       style="fill:#4d0000;fill-opacity:1;stroke:none;stroke-width:1;stroke-linecap:square;stroke-dasharray:none;stroke-opacity:1;paint-order:markers stroke fill"
       d="m 107.08266,151.95995 c 0,0 6.4579,3.3581 8.78274,4.908 2.32484,1.54989 5.16631,3.09978 5.42463,3.87473 0.25832,0.77495 -1.29158,3.09979 -1.80821,4.64969 -0.51663,1.54989 -1.80821,7.23284 -2.32484,8.52442 -0.51663,1.29157 -1.29158,4.13305 -1.03327,5.68294 0.25832,1.5499 2.58316,2.58316 4.13306,4.13306 1.54989,1.54989 3.61642,2.06652 1.29158,1.80821 -2.32485,-0.25832 -3.87474,-2.06653 -5.68295,-3.61643 -1.80821,-1.54989 -1.03326,-1.80821 -1.03326,-3.09978 0,-1.29158 0.51663,-14.20737 1.54989,-15.24063 1.03326,-1.03327 2.06653,-1.80822 2.06653,-1.80822 0,0 0.77494,-0.77494 -1.5499,-1.29157 -2.32484,-0.51664 -9.816,-4.39137 -11.10758,-5.94127 -1.29158,-1.54989 1.29158,-2.58315 1.29158,-2.58315 z"
       id="path18-5" />
    <path
       style="fill:#4d0000;fill-opacity:1;stroke:none;stroke-width:1;stroke-linecap:square;stroke-dasharray:none;stroke-opacity:1;paint-order:markers stroke fill"
       d="m 119.59633,111.00342 c 0,0 0.36532,3.8358 0.54798,5.29705 0.18266,1.46126 0.36532,6.39299 0.36532,7.67159 0,1.2786 0,2.37454 0,3.83579 0,1.46126 1.27859,5.11439 1.27859,6.39299 0,1.2786 0.73062,4.93173 1.27859,6.02768 0.54798,1.09594 0.73064,0.73062 0.73064,0.73062 0,0 -0.36532,-2.37454 -0.73064,-3.83579 -0.36531,-1.46125 -2.19188,-8.0369 -2.00922,-10.22878 0.18266,-2.19188 0,-9.49816 -0.18266,-10.95941 -0.18265,-1.46126 0.18266,-3.8358 -0.36531,-4.56642 -0.54797,-0.73063 -0.91329,-0.36532 -0.91329,-0.36532 z"
       id="path19-3-3" />
  </g>
</svg>
