<?xml version="1.0" encoding="UTF-8" standalone="no"?>
<!-- Created with Inkscape (http://www.inkscape.org/) -->

<svg
   width="62.27002mm"
   height="79.91153mm"
   viewBox="0 0 62.27002 79.91153"
   version="1.1"
   id="svg1"
   xmlns="http://www.w3.org/2000/svg"
   xmlns:svg="http://www.w3.org/2000/svg">
  <defs
     id="defs1" />
  <g
     id="layer1"
     transform="translate(-73.973174,-104.62808)">
    <path
       style="fill:#4d0000;fill-opacity:1;stroke:none;stroke-width:6.00001;stroke-linecap:square;paint-order:markers stroke fill"
       d="m 106.81536,122.87565 c 0,-1.03327 0.12915,-1.54989 1.16242,-1.80821 1.03326,-0.25831 2.06652,-0.6458 2.454,-1.42073 0.38747,-0.77495 0.38747,-3.48727 0.12915,-4.26221 -0.25831,-0.77495 -2.97063,-3.09979 -4.13305,-2.58316 -1.16242,0.51663 -3.09979,3.22895 -2.84147,4.26221 0.25831,1.03326 0.9041,2.58316 1.42074,2.84147 0.51663,0.25832 -0.25832,2.84147 -0.25832,2.84147 l -0.12916,-0.12916 c 0,0 -1.03326,-0.12916 -1.54989,0.51663 -0.51663,0.64579 -2.06653,2.84147 -2.06653,2.84147 l -2.453996,-0.12916 c 0,0 -0.77495,-0.9041 -1.16242,-1.54989 -0.38747,-0.64579 -1.03326,-0.77495 -1.03326,-0.77495 0,0 -2.71232,3.61642 -3.09979,4.13305 -0.38748,0.51664 1.42073,2.454 1.42073,2.454 0,0 -0.38747,1.29158 -0.38747,2.32485 0,1.03326 0.77495,4.26221 1.29158,5.42463 0.51663,1.16242 2.19568,3.48726 3.09979,2.97063 0.9041,-0.51663 0.77495,-1.16242 0.77495,-1.16242 0,0 -0.12916,0.9041 0,1.80821 0.12915,0.9041 0.25831,3.87473 -0.12917,4.908 -0.38747,1.03326 -1.42073,2.84147 -1.29157,4.00389 0.12916,1.16242 0.12916,2.97063 0.90411,3.48726 l 4.520516,1.42077 4.39138,-2.45399 c 0,0 2.45399,-4.0039 2.71231,-5.29548 0.25831,-1.29157 -1.36723,-6.34709 -1.36723,-7.50951 0,-1.16242 -0.24535,-3.49107 -0.50366,-4.9118 -0.25832,-1.42074 0.75974,-2.93437 0.45015,-4.11089 -0.36514,-1.38768 -0.64579,-4.64968 -1.03327,-5.81211 -0.38747,-1.16242 -1.29157,-2.32484 -1.29157,-2.32484 z"
       id="path1-6-5" />
    <path
       style="fill:#4d0000;fill-opacity:1;stroke:none;stroke-width:6.00001;stroke-linecap:square;paint-order:markers stroke fill"
       d="m 106.03279,125.66995 c 0,0 2.64955,0.0538 4.65081,-0.52258 2.00125,-0.57638 4.3859,0.12053 5.20131,-0.3477 0.81531,-0.46841 2.35102,-1.67738 2.35102,-1.67738 0,0 3.80177,-2.42864 4.612,-3.26216 0.81023,-0.83351 2.87824,-3.14625 3.50841,-3.79454 0.63018,-0.64829 0.88473,-2.02195 1.33486,-2.48502 0.45015,-0.46303 0.99027,-1.01875 0.99027,-1.01875 l 0.75124,1.45078 c 0,0 0.0155,1.09584 -0.61466,1.74411 -0.63018,0.6483 -1.91641,0.11849 -1.81087,1.12172 0.10556,1.00323 -3.59584,4.06979 -4.58871,4.9059 -0.99286,0.83611 -2.97601,2.69095 -3.88145,3.25179 -0.90543,0.56086 0.92354,0.71762 -1.72342,0.84646 -2.64696,0.12884 -5.27841,1.3535 -6.36907,1.73429 -1.09065,0.38081 -2.18906,0.2137 -2.55953,-0.14641 -0.37048,-0.36007 -1.85225,-1.80051 -1.85225,-1.80051 z"
       id="path2-2-3" />
    <path
       style="fill:#4d0000;fill-opacity:1;stroke:none;stroke-width:6.00001;stroke-linecap:square;paint-order:markers stroke fill"
       d="m 107.47677,105.09853 c 0,0 2.54659,-0.76676 4.83604,-0.34251 2.28946,0.42425 5.86772,1.56095 6.87611,1.82068 1.00839,0.25972 3.02259,0.59654 3.7609,1.1341 0.73833,0.53758 3.68382,2.13992 4.05945,2.86529 0.37562,0.72539 1.68257,2.71629 1.96298,3.16901 0.28042,0.45271 1.32246,3.08675 1.88589,4.17481 0.56342,1.08807 0.33219,4.10548 0.43774,5.1087 0.10554,1.00322 -0.28248,5.84961 -0.5474,6.49272 -0.26489,0.64311 -0.61982,1.37885 -1.16516,1.56925 -0.54532,0.19041 -1.1962,-0.62242 -0.75123,-1.45078 0.44496,-0.82832 1.69755,-2.67282 1.54284,-7.14617 -0.15471,-4.47336 -1.18639,-6.37683 -2.50368,-9.0983 -1.31728,-2.72146 -2.78874,-3.43132 -4.63062,-4.50127 -1.84192,-1.06995 -5.32757,-2.11663 -7.25692,-2.91133 -1.92936,-0.7947 -4.11583,-0.39838 -4.84121,-0.0228 -0.72539,0.37563 -1.3685,0.11073 -1.3685,0.11073 z"
       id="path4-1-7" />
    <path
       style="fill:#4d0000;fill-opacity:1;stroke:none;stroke-width:6.00001;stroke-linecap:square;paint-order:markers stroke fill"
       d="m 96.694254,123.82155 c 0,0 -1.18726,-0.73063 -1.55258,-1.09595 -0.36531,-0.36532 -0.36531,-0.36532 -0.36531,-0.36532 l -0.27399,0.6393 c 0,0 1.73524,0.82196 1.9179,1.2786 0.18266,0.45664 0.27398,-0.45663 0.27398,-0.45663 z"
       id="path7-7-6" />
    <path
       style="fill:#4d0000;fill-opacity:1;stroke:none;stroke-width:6.00001;stroke-linecap:square;paint-order:markers stroke fill"
       d="m 95.872304,125.19147 -1.46125,-1.73524 -0.27399,0.63929 c 0,0 1.09594,1.09595 1.36993,1.5526 0.27398,0.45663 0.36531,-0.45665 0.36531,-0.45665 z"
       id="path8-6-30" />
    <path
       style="fill:#4d0000;fill-opacity:1;stroke:none;stroke-width:6.00001;stroke-linecap:square;paint-order:markers stroke fill"
       d="m 95.050344,126.2874 -1.64391,-2.9225 -0.0913,0.36531 1.36993,3.47048 z"
       id="path9-5-2" />
    <path
       style="fill:#4d0000;fill-opacity:1;stroke:none;stroke-width:6.00001;stroke-linecap:square;paint-order:markers stroke fill"
       d="m 94.776364,126.92671 -1.9179,-2.19188 -0.0913,0.6393 z"
       id="path10-2-4" />
    <path
       style="fill:#4d0000;fill-opacity:1;stroke:none;stroke-width:1;stroke-linecap:square;stroke-dasharray:none;stroke-opacity:1;paint-order:markers stroke fill"
       d="m 100.06307,153.7856 c 0,0 0.64578,1.93736 -1e-5,2.58315 -0.645786,0.64579 -5.295466,4.0039 -6.716196,8.52442 -0.27925,0.88853 -0.90411,0.77495 -0.90411,0.77495 0,0 -5.29547,-6.19958 -7.23284,-7.362 -1.93737,-1.16242 -2.84147,-2.454 -3.61642,-2.58316 -0.77495,-0.12915 -1.29158,-1.93736 -1.93737,-1.80821 -0.64579,0.12916 -3.09979,2.19569 -4.00389,2.71232 -0.90411,0.51663 -1.67906,2.71232 -1.67906,2.71232 0,0 1.42074,0.77494 1.67906,0 0.25831,-0.77495 2.19568,-3.09979 2.84147,-3.22895 0.64579,-0.12916 1.93737,-0.12916 2.454,0.77495 0.51663,0.9041 7.87863,6.84536 8.78273,8.00778 0.90411,1.16243 1.93737,2.71232 2.58316,2.58316 0.64579,-0.12916 3.22895,-2.84147 4.0039,-3.48726 0.77494,-0.64579 6.457886,-7.62032 6.845356,-8.39526 0.38748,-0.77495 0.77495,-1.80821 -0.38747,-1.80821 -1.16242,0 -2.71231,0 -2.71231,0 z"
       id="path13-8" />
    <path
       style="fill:#4d0000;fill-opacity:1;stroke:none;stroke-width:1;stroke-linecap:square;stroke-dasharray:none;stroke-opacity:1;paint-order:markers stroke fill"
       d="m 105.80869,154.04392 c 0.9041,1.42073 4.77884,8.78274 5.8121,9.42852 1.03326,0.6458 3.48727,3.0998 4.39137,3.48726 0.90411,0.38747 0.64579,0.38747 0.38747,1.29158 -0.25831,0.90411 0.90411,4.908 1.03326,5.8121 0.12916,0.90411 1.67906,4.0039 1.93737,5.03716 0.25832,1.03326 1.16243,2.71232 1.16243,3.61643 0,0.90411 0.38747,3.09978 1.16242,3.48726 0.77494,0.38747 1.29157,0.64578 2.45399,1.16242 1.16243,0.51663 2.06653,0.9041 2.97064,1.03327 0.9041,0.12916 -1.67906,-1.29159 -2.454,-1.93737 -0.77495,-0.6458 -1.80821,-1.42075 -2.06653,-2.06653 -0.25832,-0.64578 -2.19568,-8.52443 -2.97063,-11.23674 -0.77495,-2.71231 -2.06653,-5.42462 -2.84147,-6.84537 -0.77495,-1.42073 -3.48727,-7.23284 -4.77885,-8.91188 -1.29157,-1.67906 -1.93736,-4.52053 -2.32484,-5.16633 -0.38747,-0.64578 -1.16242,-0.90409 -1.16242,-0.90409 0,0 -1.42073,-0.51664 -1.93736,0.12914 -0.51664,0.6458 -0.77495,2.58317 -0.77495,2.58317 z"
       id="path14-2" />
    <path
       style="fill:#4d0000;fill-opacity:1;stroke:none;stroke-width:1;stroke-linecap:square;stroke-dasharray:none;stroke-opacity:1;paint-order:markers stroke fill"
       d="m 110.61275,106.20271 c 0,0 2.23428,3.13924 3.12308,4.31338 0.88882,1.17416 3.51288,5.35384 4.15217,6.46114 0.63931,1.1073 1.18727,2.05641 1.9179,3.32189 0.73063,1.26549 3.66449,3.78989 4.30379,4.89719 0.63931,1.10731 3.0986,3.90569 4.12113,4.58083 1.02253,0.67513 0.99806,0.26742 0.99806,0.26742 0,0 -1.50364,-1.87376 -2.55064,-2.95658 -1.04699,-1.08282 -5.91668,-5.86422 -6.85443,-7.85377 -0.93775,-1.98956 -4.74908,-8.22565 -5.63789,-9.3998 -0.88881,-1.17416 -1.75971,-3.41323 -2.59958,-3.77198 -0.83987,-0.35876 -0.97359,0.14027 -0.97359,0.14028 z"
       id="path19" />
  </g>
</svg>
