<?xml version="1.0" encoding="UTF-8" standalone="no"?>
<!-- Created with Inkscape (http://www.inkscape.org/) -->

<svg
   width="100mm"
   height="100mm"
   viewBox="0 0 100 100"
   version="1.1"
   id="svg1"
   xmlns="http://www.w3.org/2000/svg"
   xmlns:svg="http://www.w3.org/2000/svg">
  <defs
     id="defs1" />
  <g
     id="layer1"
     transform="translate(-73.81875,-108.47916)">
    <g
       id="layer1-0-6"
       transform="translate(15.720968,10.052121)">
      <g
         id="g4">
        <path
           style="fill:#4d0000;fill-opacity:1;stroke:none;stroke-width:6.00001;stroke-linecap:square;paint-order:markers stroke fill"
           d="m 105.74864,122.91476 c -0.0351,-1.03267 0.0764,-1.55339 1.10031,-1.84666 1.02389,-0.29327 2.04339,-0.71563 2.40431,-1.50329 0.36092,-0.78767 0.26877,-3.49842 -0.0157,-4.26414 -0.28449,-0.76572 -3.07423,-2.99707 -4.21843,-2.44124 -1.1442,0.55582 -2.98829,3.3324 -2.69502,4.35629 0.29327,1.02388 0.99134,2.55095 1.51646,2.79156 0.52511,0.24061 -0.16163,2.84861 -0.16163,2.84861 l -0.13347,-0.12469 c 0,0 -1.03705,-0.094 -1.53144,0.56899 -0.49439,0.66297 -1.9688,2.91004 -1.9688,2.91004 l -2.456977,-0.0457 c 0,0 -0.80522,-0.87725 -1.214407,-1.5095 -0.409188,-0.63226 -1.058993,-0.7394 -1.058993,-0.7394 0,0 -2.587884,3.70648 -2.957578,4.23598 -0.369703,0.52951 1.503286,2.40431 1.503286,2.40431 0,0 -0.343364,1.304 -0.308259,2.33667 0.03511,1.03267 0.919314,4.23342 1.475139,5.37762 0.555826,1.1442 2.312894,3.41065 3.198929,2.8636 0.886026,-0.54705 0.735009,-1.18808 0.735009,-1.18808 0,0 -0.09837,0.90797 0.06144,1.80717 0.159793,0.89919 0.389811,3.86371 0.03766,4.90955 -0.35214,1.04583 -1.323373,2.8881 -1.154794,4.04546 0.16858,1.15736 0.23001,2.96453 1.022066,3.45453 l 4.566189,1.26636 4.30546,-2.60177 c 0,0 2.31654,-4.08496 2.53083,-5.38457 0.21428,-1.2996 -1.58208,-6.29698 -1.62158,-7.45873 -0.0395,-1.16174 -0.36382,-3.48071 -0.67025,-4.89185 -0.30643,-1.41114 0.6596,-2.95849 0.31022,-4.12381 -0.41208,-1.37447 -0.80338,-4.62505 -1.23014,-5.77365 -0.42674,-1.14858 -1.36981,-2.27961 -1.36981,-2.27961 z"
           id="path1-6-6-6-1" />
        <path
           style="fill:#4d0000;fill-opacity:1;stroke:none;stroke-width:6.00001;stroke-linecap:square;paint-order:markers stroke fill"
           d="m 105.35527,125.47594 c 0,0 2.56894,0.65081 4.64867,0.54132 2.07972,-0.10951 4.24536,1.10799 5.14545,0.836 0.90001,-0.27221 2.66911,-1.10305 2.66911,-1.10305 0,0 4.25205,-1.50725 5.2296,-2.13624 0.97755,-0.62897 3.51445,-2.4149 4.27476,-2.90411 0.76032,-0.48922 1.31854,-1.76991 1.86162,-2.11934 0.54308,-0.3494 1.19477,-0.76877 1.19477,-0.76877 l 0.40417,1.58295 c 0,0 -0.23238,1.07103 -0.99268,1.56024 -0.76033,0.48922 -1.89366,-0.3174 -2.01742,0.68375 -0.12376,1.00113 -4.4221,3.1525 -5.57815,3.74276 -1.15605,0.59027 -3.50689,1.94928 -4.51559,2.29115 -1.00869,0.34192 0.73761,0.90766 -1.87007,0.43534 -2.60766,-0.47232 -5.44771,0.12639 -6.59619,0.25103 -1.14848,0.12463 -2.18076,-0.28624 -2.46033,-0.72071 -0.27959,-0.43444 -1.39774,-2.17232 -1.39774,-2.17232 z"
           id="path2-2-5-9-2" />
        <path
           style="fill:#4d0000;fill-opacity:1;stroke:none;stroke-width:6.00001;stroke-linecap:square;paint-order:markers stroke fill"
           d="m 104.81976,125.35975 c 0,0 1.77659,-1.2967 3.21218,-1.45252 1.43559,-0.15582 1.1409,0.34099 2.50662,0.0766 1.36571,-0.26438 3.7477,-1.33632 4.39184,-1.28999 0.64412,0.0463 1.05588,1.16363 1.05588,1.16363 0,0 -1.08616,0.69887 -2.27335,1.00203 -1.18722,0.3031 -2.90994,0.4901 -3.77131,0.58358 -0.86134,0.0935 -3.70896,1.1578 -3.70896,1.1578 z"
           id="path3-8-3-0-6" />
        <path
           style="fill:#4d0000;fill-opacity:1;stroke:none;stroke-width:6.00001;stroke-linecap:square;paint-order:markers stroke fill"
           d="m 111.40804,105.76218 c 0,0 2.65396,-0.17181 4.78845,0.75856 2.13447,0.93037 5.36355,2.84586 6.28723,3.32663 0.92368,0.48076 2.80976,1.26377 3.40759,1.9542 0.59784,0.69044 3.10533,2.91662 3.30743,3.70809 0.20175,0.79157 1.02561,3.02611 1.19652,3.53046 0.17096,0.50434 0.59115,3.30567 0.89429,4.49288 0.3031,1.18721 -0.60363,4.07442 -0.72739,5.07556 -0.12377,1.00114 -1.59633,5.63467 -1.99964,6.20133 -0.4033,0.56667 -0.91524,1.20323 -1.48947,1.26555 -0.57423,0.0624 -1.02473,-0.8765 -0.40417,-1.58295 0.62053,-0.70643 2.25734,-2.22037 3.11695,-6.61308 0.8596,-4.39271 0.28449,-6.48001 -0.38412,-9.42867 -0.66859,-2.94865 -1.94173,-3.9725 -3.49437,-5.4308 -1.55267,-1.45832 -4.71186,-3.26519 -6.41188,-4.4751 -1.70001,-1.20992 -3.91951,-1.31765 -4.71098,-1.11556 -0.79157,0.20175 -1.35815,-0.20122 -1.35815,-0.20122 z"
           id="path4-1-3-7-6" />
        <path
           style="fill:#4d0000;fill-opacity:1;stroke:none;stroke-width:6.00001;stroke-linecap:square;paint-order:markers stroke fill"
           d="m 114.5984,107.85618 c 0,0 0.50611,4.1283 0.42108,4.95092 -0.085,0.82264 0.32003,4.55519 0.48339,5.52517 0.16341,0.96996 -0.30137,3.11202 -0.2079,3.97338 0.0935,0.86135 0.54434,1.80006 0.54434,1.80006 0,0 4.62684,4.08781 5.33329,4.70834 0.70643,0.62055 4.40959,4.2276 5.00743,4.91802 0.59782,0.69042 1.02472,0.87649 1.02472,0.87649 0,0 -0.25596,0.31828 -1.42045,-0.77544 -1.16449,-1.09374 -3.34617,-3.52959 -4.79778,-4.59217 -1.45162,-1.06257 -4.87523,-4.23516 -4.87523,-4.23516 l -0.83865,-1.30339 c 0,0 -0.66859,-2.94865 -0.53727,-4.41542 0.13133,-1.46675 -0.62229,-3.59277 -0.50699,-6.2779 0.11531,-2.68513 -0.32761,-4.08957 -0.49096,-5.05954 -0.16342,-0.96997 -0.26439,-1.36573 -0.26439,-1.36573 z"
           id="path5-7-5-5-1" />
        <path
           style="fill:#4d0000;fill-opacity:1;stroke:none;stroke-width:6.00001;stroke-linecap:square;paint-order:markers stroke fill"
           d="m 116.03723,123.30952 c 0,0 11.76433,-4.73418 12.86962,-5.11661 1.10529,-0.3824 3.19924,-1.09173 3.19924,-1.09173 l -0.22182,-0.4666 c 0,0 1.62158,-0.19879 2.25453,-0.0707 -0.36145,0.74386 -1.23919,1.3041 -1.23919,1.3041 l -0.39965,-0.23905 c 0,0 -2.55477,0.64242 -3.36558,0.7418 -0.8108,0.0994 -6.11547,2.478 -7.22652,3.14914 -1.11103,0.67115 -4.18787,1.4187 -4.83232,1.86805 -0.64443,0.44935 -1.17223,0.84325 -1.17223,0.84325 0,0 -0.27192,-0.87186 0.1339,-0.92169 z"
           id="path6-2-4-9-7" />
        <path
           style="fill:#4d0000;fill-opacity:1;stroke:none;stroke-width:6.00001;stroke-linecap:square;paint-order:markers stroke fill"
           d="m 95.665503,124.20398 c 0,0 -1.211398,-0.68987 -1.588919,-1.04256 -0.377511,-0.35269 -0.377511,-0.35269 -0.377511,-0.35269 l -0.252111,0.64824 c 0,0 1.762164,0.76253 1.960233,1.2127 0.198069,0.45017 0.258308,-0.46569 0.258308,-0.46569 z"
           id="path7-7-3-9-8" />
        <path
           style="fill:#4d0000;fill-opacity:1;stroke:none;stroke-width:6.00001;stroke-linecap:square;paint-order:markers stroke fill"
           d="m 94.890571,125.60104 -1.519362,-1.6846 -0.252111,0.64824 c 0,0 1.132542,1.05808 1.421889,1.50515 0.289336,0.44707 0.349584,-0.46879 0.349584,-0.46879 z"
           id="path8-6-3-8-4" />
        <path
           style="fill:#4d0000;fill-opacity:1;stroke:none;stroke-width:6.00001;stroke-linecap:square;paint-order:markers stroke fill"
           d="m 94.106321,126.72427 -1.742255,-2.86496 -0.07883,0.3682 1.48705,3.42193 z"
           id="path9-5-4-9-8" />
        <path
           style="fill:#4d0000;fill-opacity:1;stroke:none;stroke-width:6.00001;stroke-linecap:square;paint-order:markers stroke fill"
           d="m 93.854219,127.37251 -1.991263,-2.12545 -0.06953,0.64203 z"
           id="path10-2-2-7-4" />
      </g>
      <path
         style="fill:#4d0000;fill-opacity:1;stroke:none;stroke-width:1;stroke-linecap:square;stroke-dasharray:none;stroke-opacity:1;paint-order:markers stroke fill"
         d="m 107.92607,152.10496 c -1.03326,2.32484 -4.64968,12.39915 -7.49116,13.69073 -2.841469,1.29158 -0.774939,3.61642 -2.583149,3.61642 -1.80822,0 -15.757266,7.74948 -17.048846,9.29937 -1.29157,1.54989 -0.77494,2.84147 -0.25831,4.64968 0.51663,1.80821 1.29157,2.32485 1.29157,2.32485 0,0 -1.54988,0.25832 -2.06651,-1.5499 -0.51664,-1.80821 -1.29159,-5.68295 -1.29159,-5.68295 -0.73063,-2.19188 -0.25831,-2.58315 1.80821,-2.58315 2.06653,0 9.557686,-6.19958 11.107576,-7.23284 1.5499,-1.03327 1.80821,-1.29158 3.61642,-1.03327 1.80821,0.25832 1.80821,-0.77495 1.80821,-0.77495 0,0 1.5499,-1.03326 2.58316,-3.3581 1.033259,-2.32484 3.874739,-9.816 5.166319,-10.84926 1.29157,-1.03327 3.3581,-0.51663 3.3581,-0.51663 z"
         id="path17-6" />
      <path
         style="fill:#4d0000;fill-opacity:1;stroke:none;stroke-width:1;stroke-linecap:square;stroke-dasharray:none;stroke-opacity:1;paint-order:markers stroke fill"
         d="m 107.15112,152.10496 c 0,0 6.4579,3.3581 8.78274,4.908 2.32484,1.54989 5.16631,3.09978 5.42463,3.87473 0.25832,0.77495 -1.29158,3.09979 -1.80821,4.64969 -0.51663,1.54989 -1.80821,7.23284 -2.32484,8.52442 -0.51663,1.29157 -1.29158,4.13305 -1.03327,5.68294 0.25832,1.5499 2.58316,2.58316 4.13306,4.13306 1.54989,1.54989 3.61642,2.06652 1.29158,1.80821 -2.32485,-0.25832 -3.87474,-2.06653 -5.68295,-3.61643 -1.80821,-1.54989 -1.03326,-1.80821 -1.03326,-3.09978 0,-1.29158 0.51663,-14.20737 1.54989,-15.24063 1.03326,-1.03327 2.06653,-1.80822 2.06653,-1.80822 0,0 0.77494,-0.77494 -1.5499,-1.29157 -2.32484,-0.51664 -9.816,-4.39137 -11.10758,-5.94127 -1.29158,-1.54989 1.29158,-2.58315 1.29158,-2.58315 z"
         id="path18-93" />
    </g>
  </g>
</svg>
