<?xml version="1.0" encoding="UTF-8" standalone="no"?>
<!-- Created with Inkscape (http://www.inkscape.org/) -->

<svg
   width="42.208958mm"
   height="84.879013mm"
   viewBox="0 0 42.208958 84.879014"
   version="1.1"
   id="svg1"
   sodipodi:docname="khoisan-2_up.svg"
   inkscape:version="1.3.2 (091e20e, 2023-11-25, custom)"
   xmlns:inkscape="http://www.inkscape.org/namespaces/inkscape"
   xmlns:sodipodi="http://sodipodi.sourceforge.net/DTD/sodipodi-0.dtd"
   xmlns="http://www.w3.org/2000/svg"
   xmlns:svg="http://www.w3.org/2000/svg">
  <sodipodi:namedview
     id="namedview1"
     pagecolor="#ffffff"
     bordercolor="#000000"
     borderopacity="0.25"
     inkscape:showpageshadow="2"
     inkscape:pageopacity="0.0"
     inkscape:pagecheckerboard="0"
     inkscape:deskcolor="#d1d1d1"
     inkscape:document-units="mm"
     inkscape:zoom="2.6918049"
     inkscape:cx="56.096189"
     inkscape:cy="167.35982"
     inkscape:window-width="1920"
     inkscape:window-height="1009"
     inkscape:window-x="-8"
     inkscape:window-y="-8"
     inkscape:window-maximized="1"
     inkscape:current-layer="svg1" />
  <defs
     id="defs1" />
  <path
     style="fill:#4d0000;fill-opacity:1;stroke:none;stroke-width:6.00001;stroke-linecap:square;paint-order:markers stroke fill"
     d="m 16.568873,18.736773 c 0,-1.03326 0.12915,-1.54989 1.16242,-1.80821 1.03326,-0.25831 2.06652,-0.64579 2.454,-1.42073 0.38747,-0.77495 0.38747,-3.48727 0.12915,-4.26221 -0.25831,-0.77495 -2.97063,-3.0997899 -4.13305,-2.5831599 -1.16242,0.51663 -3.09979,3.2289499 -2.84147,4.2622099 0.25831,1.03326 0.9041,2.58316 1.42074,2.84147 0.51663,0.25832 -0.25832,2.84148 -0.25832,2.84148 l -0.12916,-0.12916 c 0,0 -1.03326,-0.12916 -1.54989,0.51663 -0.51663,0.64579 -2.06653,2.84147 -2.06653,2.84147 l -2.4539991,-0.12916 c 0,0 -0.77495,-0.9041 -1.16242,-1.54989 -0.38747,-0.64579 -1.03326,-0.77495 -1.03326,-0.77495 0,0 -2.71232,3.61642 -3.09979,4.13305 -0.38748,0.51664 1.42073,2.454 1.42073,2.454 0,0 -0.38747,1.29158 -0.38747,2.32485 0,1.03326 0.77495,4.26221 1.29158,5.42463 0.51663,1.16242 2.19568,3.48726 3.09979,2.97063 0.9041,-0.51663 0.77495,-1.16242 0.77495,-1.16242 0,0 -0.12916,0.9041 0,1.80821 0.12915,0.9041 0.258314,3.87473 -0.129166,4.908 -0.38747,1.03326 -1.420734,2.84147 -1.291574,4.00389 0.12916,1.16242 0.129156,2.97063 0.904106,3.48726 l 4.5205231,1.42077 4.39138,-2.45399 c 0,0 2.45399,-4.0039 2.71231,-5.29548 0.25831,-1.29157 -1.36723,-6.34709 -1.36723,-7.50951 0,-1.16242 -0.24534,-3.49107 -0.50365,-4.9118 -0.25832,-1.42074 0.75973,-2.93437 0.45015,-4.11089 -0.36515,-1.38768 -0.64579,-4.64968 -1.03327,-5.81211 -0.38747,-1.16242 -1.29157,-2.32484 -1.29157,-2.32484 z"
     id="path1-6-6" />
  <path
     style="fill:#4d0000;fill-opacity:1;stroke:none;stroke-width:6.00001;stroke-linecap:square;paint-order:markers stroke fill"
     d="m 16.181959,21.041871 c 0,0 2.649553,0.0538 4.650811,-0.522578 2.001259,-0.576379 4.385913,0.120544 5.201314,-0.3477 0.815307,-0.468408 2.35102,-1.677375 2.35102,-1.677375 0,0 3.80177,-2.428641 4.612002,-3.262157 0.810238,-0.833508 2.878233,-3.146255 3.50841,-3.794536 0.63018,-0.648296 0.884728,-2.0219666 1.334861,-2.4850324 0.450145,-0.4630262 0.990271,-1.0187408 0.990271,-1.0187408 l 0.751231,1.4507708 c 0,0 0.01552,1.0958354 -0.614646,1.7441214 -0.630189,0.6483 -1.916415,0.118492 -1.810872,1.121717 0.105551,1.003221 -3.595846,4.069792 -4.588715,4.905893 -0.992859,0.836118 -2.976017,2.690947 -3.881445,3.251801 -0.905436,0.560859 0.923543,0.717622 -1.723426,0.846457 -2.646961,0.12883 -5.278404,1.353496 -6.369066,1.734294 -1.090648,0.380802 -2.189064,0.213691 -2.559528,-0.146411 -0.37048,-0.360071 -1.852248,-1.800509 -1.852248,-1.800509 z"
     id="path2-2-5"
     inkscape:transform-center-x="-12.62194"
     inkscape:transform-center-y="-5.0861634" />
  <path
     style="fill:#4d0000;fill-opacity:1;stroke:none;stroke-width:6.00001;stroke-linecap:square;paint-order:markers stroke fill"
     d="m 15.634041,21.04963 c 0,0 1.437833,-1.66444 2.801129,-2.140462 1.363309,-0.476019 1.188433,0.07451 2.45915,-0.491528 1.270695,-0.566031 3.349052,-2.148211 3.987011,-2.248554 0.637939,-0.100378 1.291417,0.895079 1.291417,0.895079 0,0 -0.900267,0.926132 -1.988307,1.489591 -1.088074,0.563421 -2.724063,1.134645 -3.542058,1.420257 -0.817987,0.285585 -3.351646,1.965558 -3.351646,1.965558 z"
     id="path3-8-3"
     inkscape:transform-center-x="-5.6434113"
     inkscape:transform-center-y="-1.6050094" />
  <path
     style="fill:#4d0000;fill-opacity:1;stroke:none;stroke-width:6.00001;stroke-linecap:square;paint-order:markers stroke fill"
     d="m 17.625951,0.47045884 c 0,0 2.546583,-0.7667691 4.836037,-0.3425174 2.289455,0.4242516 5.867711,1.56095266 6.876105,1.82068276 1.008394,0.2597302 3.022588,0.5965366 3.760905,1.134098 0.738326,0.5375788 3.683816,2.1399165 4.059449,2.8652919 0.37562,0.725394 1.682566,2.7162907 1.962973,3.16901 0.280425,0.4527093 1.322459,3.0867459 1.885898,4.1748099 0.563421,1.088074 0.332183,4.105478 0.437734,5.108698 0.105543,1.003226 -0.28248,5.84961 -0.547393,6.492727 -0.26489,0.643117 -0.619829,1.378845 -1.165158,1.569249 -0.545328,0.190403 -1.196199,-0.622419 -0.751231,-1.450771 0.444956,-0.828334 1.697541,-2.672832 1.542838,-7.146187 C 40.369396,13.392201 39.337718,11.488723 38.020433,8.767258 36.703153,6.0458021 35.231684,5.3359435 33.389801,4.2659882 31.547882,3.1960306 28.062236,2.1493555 26.132881,1.3546535 24.203525,0.55995144 22.017055,0.95627374 21.291674,1.3318975 20.56628,1.7075182 19.923172,1.4426228 19.923172,1.4426228 Z"
     id="path4-1-3"
     inkscape:transform-center-x="-14.284403"
     inkscape:transform-center-y="-7.4105225" />
  <path
     style="fill:#4d0000;fill-opacity:1;stroke:none;stroke-width:6.00001;stroke-linecap:square;paint-order:markers stroke fill"
     d="m 21.206805,1.7897999 c 0,0 1.425412,3.9073264 1.528374,4.7279017 0.102967,0.8205839 1.340564,4.3652044 1.718778,5.2732304 0.378212,0.908003 0.409268,3.099673 0.694866,3.917664 0.285607,0.817986 0.936816,1.630612 0.936816,1.630612 0,0 5.430532,2.937217 6.258869,3.382159 0.828339,0.444965 5.250471,3.122443 5.988792,3.660013 0.738312,0.537553 1.196203,0.622405 1.196203,0.622405 0,0 -0.177462,0.367866 -1.558891,-0.4346 -1.381421,-0.80247 -4.05686,-2.682646 -5.710956,-3.389926 -1.6541,-0.707265 -5.705782,-3.024644 -5.705782,-3.024644 l -1.111356,-1.080306 c 0,0 -1.317272,-2.72146 -1.520616,-4.179983 C 23.718566,11.435798 22.504253,9.534926 22.010136,6.8931309 21.516025,4.2513445 20.767361,2.9832201 20.389152,2.0752033 20.010934,1.1671915 19.823115,0.80449944 19.823115,0.80449944 Z"
     id="path5-7-5"
     inkscape:transform-center-x="-14.416326"
     inkscape:transform-center-y="-7.7095603" />
  <path
     style="fill:#4d0000;fill-opacity:1;stroke:none;stroke-width:6.00001;stroke-linecap:square;paint-order:markers stroke fill"
     d="m 26.098622,16.518896 c 0,0 10.391138,-7.2688616 11.381499,-7.8910263 0.990375,-0.6221387 2.870006,-1.786083 2.870006,-1.786083 L 40.028641,6.4373564 c 0,0 1.534785,-0.5598942 2.180318,-0.5780188 -0.184105,0.806261 -0.912642,1.5502787 -0.912642,1.5502787 L 40.853009,7.267004 c 0,0 -2.343686,1.2027971 -3.11108,1.482751 -0.767403,0.279959 -5.397796,3.795163 -6.328558,4.699896 -0.930749,0.904736 -3.759253,2.327883 -4.28556,2.911173 -0.526298,0.583284 -0.951499,1.086215 -0.951499,1.086215 0,0 -0.461831,-0.787915 -0.07772,-0.928123 z"
     id="path6-2-4"
     inkscape:transform-center-x="-18.817462"
     inkscape:transform-center-y="-9.0025938" />
  <path
     style="fill:#4d0000;fill-opacity:1;stroke:none;stroke-width:6.00001;stroke-linecap:square;paint-order:markers stroke fill"
     d="m 6.4477639,19.682673 c 0,0 -1.18726,-0.73063 -1.55258,-1.09594 -0.36531,-0.36532 -0.36531,-0.36532 -0.36531,-0.36532 l -0.27399,0.6393 c 0,0 1.73524,0.82196 1.9179,1.2786 0.18266,0.45664 0.27398,-0.45664 0.27398,-0.45664 z"
     id="path7-7-3" />
  <path
     style="fill:#4d0000;fill-opacity:1;stroke:none;stroke-width:6.00001;stroke-linecap:square;paint-order:markers stroke fill"
     d="m 5.6258139,21.052593 -1.46125,-1.73524 -0.27399,0.6393 c 0,0 1.09594,1.09594 1.36993,1.55259 0.27398,0.45664 0.36531,-0.45665 0.36531,-0.45665 z"
     id="path8-6-3" />
  <path
     style="fill:#4d0000;fill-opacity:1;stroke:none;stroke-width:6.00001;stroke-linecap:square;paint-order:markers stroke fill"
     d="m 4.8038539,22.148533 -1.64391,-2.9225 -0.0913,0.36531 1.36993,3.47048 z"
     id="path9-5-4" />
  <path
     style="fill:#4d0000;fill-opacity:1;stroke:none;stroke-width:6.00001;stroke-linecap:square;paint-order:markers stroke fill"
     d="m 4.5298739,22.787833 -1.9179,-2.19188 -0.0913,0.6393 z"
     id="path10-2-2" />
  <path
     style="fill:#4d0000;fill-opacity:1;stroke:none;stroke-width:1;stroke-linecap:square;stroke-dasharray:none;stroke-opacity:1;paint-order:markers stroke fill"
     d="m 15.942743,48.096833 c 0,0 1.54989,8.52442 2.32484,10.59095 0.77495,2.06652 1.80821,5.68294 1.80821,6.71621 0,1.03326 -0.77495,5.16631 -1.29158,6.71621 -0.51663,1.54989 -2.06653,6.19958 -2.84147,7.74947 -0.77495,1.5499 -1.03326,1.80821 0.51663,2.84147 1.54989,1.03327 4.39137,1.03327 5.94126,1.5499 1.54989,0.51663 -2.84147,0.77495 -5.16631,0.51663 -2.32484,-0.25832 -1.5499,-1.80821 -3.35811,-2.06653 -1.80821,-0.25831 -1.54989,-0.51663 -0.77495,-2.32484 0.77495,-1.80821 2.58316,-4.908 2.58316,-6.19958 0,-1.29157 0.77495,-6.45789 1.5499,-8.78273 -1.29158,-3.35811 -5.68295,-14.20737 -5.68295,-16.01558 0,-1.80821 2.06653,1.54989 2.32484,0.51663 0.25832,-1.03326 2.06653,-1.80821 2.06653,-1.80821 z"
     id="path15" />
  <path
     style="fill:#4d0000;fill-opacity:1;stroke:none;stroke-width:1;stroke-linecap:square;stroke-dasharray:none;stroke-opacity:1;paint-order:markers stroke fill"
     d="m 15.426103,48.096833 c 0,0 6.4579,7.74947 6.71621,8.78274 0.25832,1.03326 0.25832,3.61642 0.77495,4.908 0.51663,1.29158 -1.80821,2.32484 -1.80821,2.32484 0,0 -2.32484,-1.5499 -3.87473,-2.32484 -1.5499,-0.77495 -7.2512001,-2.60152 -8.5427791,-3.63478 -1.291579,-1.03327 -3.238128,-2.90415 -4.27139,-3.42079 -1.033264,-0.51663 -0.362624,0.92627 -1.912519,1.70122 -1.54989499,0.77495 -0.941936,0.69928 -2.23351299,1.21591 -1.29157901,0.51664 2.36021299,-2.74217 3.08949599,-4.06007 0.378293,-0.68362 0.242645,-1.00953 0.954914,-1.61749 1.43037,-1.22089 0.391278,1.42454 2.974434,3.23275 2.583157,1.80821 9.4247171,5.03335 10.9746171,5.8083 1.54989,0.77495 1.03326,-0.25832 0.77495,-1.80821 -0.25832,-1.5499 -5.16632,-8.00779 -5.94127,-9.55768 -0.77494,-1.5499 2.32484,-1.5499 2.32484,-1.5499 z"
     id="path16" />
</svg>
