<?xml version="1.0" encoding="UTF-8" standalone="no"?>
<!-- Created with Inkscape (http://www.inkscape.org/) -->

<svg
   width="25.28089mm"
   height="26.490513mm"
   viewBox="0 0 25.28089 26.490513"
   version="1.1"
   id="svg1"
   xmlns="http://www.w3.org/2000/svg"
   xmlns:svg="http://www.w3.org/2000/svg">
  <defs
     id="defs1" />
  <g
     id="layer1"
     transform="translate(-73.973174,-104.60174)">
    <path
       style="fill:#4d0000;fill-opacity:1;stroke:none;stroke-width:6.00001;stroke-linecap:square;paint-order:markers stroke fill"
       d="m 106.81536,122.87565 c 0,-1.03327 0.12915,-1.54989 1.16242,-1.80821 1.03326,-0.25831 2.06652,-0.6458 2.454,-1.42073 0.38747,-0.77495 0.38747,-3.48727 0.12915,-4.26221 -0.25831,-0.77495 -2.97063,-3.09979 -4.13305,-2.58316 -1.16242,0.51663 -3.09979,3.22895 -2.84147,4.26221 0.25831,1.03326 0.9041,2.58316 1.42074,2.84147 0.51663,0.25832 -0.25832,2.84147 -0.25832,2.84147 l -0.12916,-0.12916 c 0,0 -1.03326,-0.12916 -1.54989,0.51663 -0.51663,0.64579 -2.06653,2.84147 -2.06653,2.84147 l -2.453996,-0.12916 c 0,0 -0.77495,-0.9041 -1.16242,-1.54989 -0.38747,-0.64579 -1.03326,-0.77495 -1.03326,-0.77495 0,0 -2.71232,3.61642 -3.09979,4.13305 -0.38748,0.51664 1.42073,2.454 1.42073,2.454 0,0 -0.38747,1.29158 -0.38747,2.32485 0,1.03326 0.77495,4.26221 1.29158,5.42463 0.51663,1.16242 2.19568,3.48726 3.09979,2.97063 0.9041,-0.51663 0.77495,-1.16242 0.77495,-1.16242 0,0 -0.12916,0.9041 0,1.80821 0.12915,0.9041 0.25831,3.87473 -0.12917,4.908 -0.38747,1.03326 -1.42073,2.84147 -1.29157,4.00389 0.12916,1.16242 0.12916,2.97063 0.90411,3.48726 l 4.520516,1.42077 4.39138,-2.45399 c 0,0 2.45399,-4.0039 2.71231,-5.29548 0.25831,-1.29157 -1.36723,-6.34709 -1.36723,-7.50951 0,-1.16242 -0.24535,-3.49107 -0.50366,-4.9118 -0.25832,-1.42074 0.75974,-2.93437 0.45015,-4.11089 -0.36514,-1.38768 -0.64579,-4.64968 -1.03327,-5.81211 -0.38747,-1.16242 -1.29157,-2.32484 -1.29157,-2.32484 z"
       id="path1-6-5" />
    <path
       style="fill:#4d0000;fill-opacity:1;stroke:none;stroke-width:6.00001;stroke-linecap:square;paint-order:markers stroke fill"
       d="m 96.694254,123.82155 c 0,0 -1.18726,-0.73063 -1.55258,-1.09595 -0.36531,-0.36532 -0.36531,-0.36532 -0.36531,-0.36532 l -0.27399,0.6393 c 0,0 1.73524,0.82196 1.9179,1.2786 0.18266,0.45664 0.27398,-0.45663 0.27398,-0.45663 z"
       id="path7-7-6" />
    <path
       style="fill:#4d0000;fill-opacity:1;stroke:none;stroke-width:6.00001;stroke-linecap:square;paint-order:markers stroke fill"
       d="m 95.872304,125.19147 -1.46125,-1.73524 -0.27399,0.63929 c 0,0 1.09594,1.09595 1.36993,1.5526 0.27398,0.45663 0.36531,-0.45665 0.36531,-0.45665 z"
       id="path8-6-30" />
    <path
       style="fill:#4d0000;fill-opacity:1;stroke:none;stroke-width:6.00001;stroke-linecap:square;paint-order:markers stroke fill"
       d="m 95.050344,126.2874 -1.64391,-2.9225 -0.0913,0.36531 1.36993,3.47048 z"
       id="path9-5-2" />
    <path
       style="fill:#4d0000;fill-opacity:1;stroke:none;stroke-width:6.00001;stroke-linecap:square;paint-order:markers stroke fill"
       d="m 94.776364,126.92671 -1.9179,-2.19188 -0.0913,0.6393 z"
       id="path10-2-4" />
  </g>
</svg>
