<?xml version="1.0" encoding="UTF-8" standalone="no"?>
<!-- Created with Inkscape (http://www.inkscape.org/) -->

<svg
   width="62.27002mm"
   height="79.91153mm"
   viewBox="-6.05650 0.00000 65.57247 84.14958"
   version="1.1"
   id="svg1"
   sodipodi:docname="khoisan-1_up.svg"
   inkscape:version="1.3.2 (091e20e, 2023-11-25, custom)"
   xmlns:inkscape="http://www.inkscape.org/namespaces/inkscape"
   xmlns:sodipodi="http://sodipodi.sourceforge.net/DTD/sodipodi-0.dtd"
   xmlns="http://www.w3.org/2000/svg"
   xmlns:svg="http://www.w3.org/2000/svg">
  <sodipodi:namedview
     id="namedview1"
     pagecolor="#ffffff"
     bordercolor="#000000"
     borderopacity="0.25"
     inkscape:showpageshadow="2"
     inkscape:pageopacity="0.0"
     inkscape:pagecheckerboard="0"
     inkscape:deskcolor="#d1d1d1"
     inkscape:document-units="mm"
     inkscape:zoom="2.6918049"
     inkscape:cx="117.76485"
     inkscape:cy="166.98833"
     inkscape:window-width="62.27002mm"
     inkscape:window-height="79.91153mm"
     inkscape:window-x="-8"
     inkscape:window-y="-8"
     inkscape:window-maximized="1"
     inkscape:current-layer="svg1" />
  <defs
     id="defs1" />
  <path
     style="fill:#4d0000;fill-opacity:1;stroke:none;stroke-width:6.00001;stroke-linecap:square;paint-order:markers stroke fill"
     d="m 32.84219,18.625313 c 0,-1.03326 0.12915,-1.54989 1.16242,-1.80821 1.03326,-0.25831 2.06652,-0.64579 2.454,-1.42073 0.38747,-0.77495 0.38747,-3.48727 0.12915,-4.26221 -0.25831,-0.77495 -2.97063,-3.0997904 -4.13305,-2.5831604 -1.16242,0.51663 -3.09979,3.2289504 -2.84147,4.2622104 0.25831,1.03326 0.9041,2.58316 1.42074,2.84147 0.51663,0.25832 -0.25832,2.84148 -0.25832,2.84148 l -0.12916,-0.12916 c 0,0 -1.03326,-0.12916 -1.54989,0.51663 -0.51663,0.64579 -2.06653,2.84147 -2.06653,2.84147 l -2.454001,-0.12916 c 0,0 -0.77495,-0.9041 -1.16242,-1.54989 -0.38747,-0.64579 -1.03326,-0.77495 -1.03326,-0.77495 0,0 -2.71232,3.61642 -3.09979,4.13305 -0.38748,0.51664 1.42073,2.454 1.42073,2.454 0,0 -0.38747,1.29158 -0.38747,2.32485 0,1.03326 0.77495,4.26221 1.29158,5.42463 0.51663,1.16242 2.19568,3.48726 3.09979,2.97063 0.9041,-0.51663 0.77495,-1.16242 0.77495,-1.16242 0,0 -0.12916,0.9041 0,1.80821 0.12915,0.9041 0.258314,3.87473 -0.129166,4.908 -0.38747,1.03326 -1.420734,2.84147 -1.291574,4.00389 0.12916,1.16242 0.129156,2.97063 0.904106,3.48726 l 4.520527,1.42077 4.391374,-2.45399 c 0,0 2.453995,-4.0039 2.712315,-5.29548 0.25831,-1.29157 -1.367232,-6.34709 -1.367232,-7.50951 0,-1.16242 -0.245345,-3.49107 -0.503655,-4.9118 -0.25832,-1.42074 0.759734,-2.93437 0.45015,-4.11089 -0.365148,-1.38768 -0.64579,-4.64968 -1.03327,-5.81211 -0.38747,-1.16242 -1.29157,-2.32484 -1.29157,-2.32484 z"
     id="path1-6" />
  <path
     style="fill:#4d0000;fill-opacity:1;stroke:none;stroke-width:6.00001;stroke-linecap:square;paint-order:markers stroke fill"
     d="m 32.432467,21.041872 c 0,0 2.649554,0.0538 4.650812,-0.522578 2.001258,-0.576379 4.385912,0.120543 5.201314,-0.3477 0.815306,-0.468408 2.351019,-1.677375 2.351019,-1.677375 0,0 3.80177,-2.428642 4.612002,-3.262158 0.810238,-0.833507 2.878233,-3.146255 3.50841,-3.794536 0.63018,-0.648296 0.884728,-2.0219665 1.334861,-2.4850324 0.450145,-0.4630262 0.990271,-1.0187407 0.990271,-1.0187407 l 0.751232,1.4507708 c 0,0 0.01552,1.0958353 -0.614647,1.7441213 -0.630189,0.6483 -1.916415,0.118492 -1.810872,1.121717 0.105551,1.003221 -3.595846,4.069793 -4.588715,4.905893 -0.992859,0.836118 -2.976017,2.690947 -3.881444,3.251801 -0.905436,0.560859 0.923542,0.717622 -1.723427,0.846457 -2.646961,0.128831 -5.278404,1.353497 -6.369066,1.734295 -1.090648,0.380802 -2.189064,0.213691 -2.559528,-0.146412 -0.37048,-0.36007 -1.852248,-1.800508 -1.852248,-1.800508 z"
     id="path2-2"
     inkscape:transform-center-x="-12.402548"
     inkscape:transform-center-y="-5.0729946" />
  <path
     style="fill:#4d0000;fill-opacity:1;stroke:none;stroke-width:6.00001;stroke-linecap:square;paint-order:markers stroke fill"
     d="m 31.884549,21.04963 c 0,0 1.437834,-1.664439 2.801129,-2.140462 1.36331,-0.476019 1.188433,0.07451 2.45915,-0.491527 1.270695,-0.566031 3.349052,-2.148212 3.987011,-2.248555 0.637939,-0.100377 1.291417,0.89508 1.291417,0.89508 0,0 -0.900267,0.926132 -1.988307,1.489591 -1.088074,0.563421 -2.724063,1.134645 -3.542057,1.420257 -0.817988,0.285584 -3.351647,1.965558 -3.351647,1.965558 z"
     id="path3-8"
     inkscape:transform-center-x="-5.4240181"
     inkscape:transform-center-y="-1.5918407" />
  <path
     style="fill:#4d0000;fill-opacity:1;stroke:none;stroke-width:6.00001;stroke-linecap:square;paint-order:markers stroke fill"
     d="m 33.876459,0.47045875 c 0,0 2.546583,-0.766769 4.836037,-0.3425173 2.289455,0.4242516 5.867711,1.56095275 6.876105,1.82068285 1.008394,0.2597301 3.022589,0.5965366 3.760905,1.134098 0.738326,0.5375787 3.683816,2.1399164 4.059449,2.8652919 0.375621,0.725394 1.682566,2.7162906 1.962973,3.16901 0.280425,0.4527093 1.322459,3.0867458 1.885898,4.1748098 0.563421,1.088074 0.332183,4.105479 0.437734,5.108699 0.105543,1.003225 -0.28248,5.849609 -0.547393,6.492727 -0.26489,0.643117 -0.619829,1.378845 -1.165157,1.569248 -0.545329,0.190404 -1.1962,-0.622418 -0.751232,-1.450771 0.444956,-0.828333 1.697542,-2.672832 1.542838,-7.146186 -0.154712,-4.47335 -1.18639,-6.376828 -2.503675,-9.0982929 C 52.953661,6.0458022 51.482192,5.3359435 49.640309,4.2659882 47.79839,3.1960307 44.312744,2.1493556 42.383389,1.3546536 40.454033,0.55995145 38.267563,0.95627375 37.542182,1.3318976 36.816788,1.7075182 36.173681,1.4426229 36.173681,1.4426229 Z"
     id="path4-1"
     inkscape:transform-center-x="-14.065009"
     inkscape:transform-center-y="-7.3973537" />
  <path
     style="fill:#4d0000;fill-opacity:1;stroke:none;stroke-width:6.00001;stroke-linecap:square;paint-order:markers stroke fill"
     d="m 37.457313,1.7898 c 0,0 1.425412,3.9073264 1.528374,4.7279017 0.102967,0.8205839 1.340564,4.3652043 1.718778,5.2732303 0.378212,0.908003 0.409268,3.099674 0.694866,3.917664 0.285607,0.817986 0.936816,1.630613 0.936816,1.630613 0,0 5.430532,2.937217 6.258869,3.382159 0.828339,0.444965 5.250471,3.122442 5.988792,3.660013 0.738312,0.537552 1.196204,0.622404 1.196204,0.622404 0,0 -0.177463,0.367866 -1.558892,-0.434599 -1.38142,-0.802471 -4.056859,-2.682647 -5.710956,-3.389926 -1.6541,-0.707266 -5.705782,-3.024645 -5.705782,-3.024645 L 41.693026,17.07431 c 0,0 -1.317272,-2.721461 -1.520616,-4.179984 C 39.969074,11.435798 38.754761,9.5349261 38.260645,6.893131 37.766533,4.2513445 37.017869,2.9832201 36.63966,2.0752033 36.261443,1.1671915 36.073624,0.80449945 36.073624,0.80449945 Z"
     id="path5-7"
     inkscape:transform-center-x="-14.196934"
     inkscape:transform-center-y="-7.696392" />
  <path
     style="fill:#4d0000;fill-opacity:1;stroke:none;stroke-width:6.00001;stroke-linecap:square;paint-order:markers stroke fill"
     d="m 42.34913,16.518896 c 0,0 10.391138,-7.2688616 11.381499,-7.8910262 0.990376,-0.6221388 2.870006,-1.786083 2.870006,-1.786083 L 56.279149,6.4373565 c 0,0 1.534785,-0.5598942 2.180318,-0.5780188 -0.184105,0.806261 -0.912641,1.5502787 -0.912641,1.5502787 L 57.103517,7.2670041 c 0,0 -2.343685,1.2027971 -3.11108,1.482751 -0.767403,0.2799589 -5.397796,3.7951629 -6.328558,4.6998959 -0.930749,0.904736 -3.759253,2.327884 -4.28556,2.911173 -0.526298,0.583285 -0.951499,1.086215 -0.951499,1.086215 0,0 -0.461831,-0.787915 -0.07772,-0.928123 z"
     id="path6-2"
     inkscape:transform-center-x="-18.598069"
     inkscape:transform-center-y="-8.9894256" />
  <path
     style="fill:#4d0000;fill-opacity:1;stroke:none;stroke-width:6.00001;stroke-linecap:square;paint-order:markers stroke fill"
     d="m 22.721079,19.571213 c 0,0 -1.18726,-0.73063 -1.55258,-1.09594 -0.36531,-0.36532 -0.36531,-0.36532 -0.36531,-0.36532 l -0.27399,0.6393 c 0,0 1.73524,0.82196 1.9179,1.2786 0.18266,0.45664 0.27398,-0.45664 0.27398,-0.45664 z"
     id="path7-7" />
  <path
     style="fill:#4d0000;fill-opacity:1;stroke:none;stroke-width:6.00001;stroke-linecap:square;paint-order:markers stroke fill"
     d="m 21.899129,20.941133 -1.46125,-1.73524 -0.27399,0.6393 c 0,0 1.09594,1.09594 1.36993,1.55259 0.27398,0.45664 0.36531,-0.45665 0.36531,-0.45665 z"
     id="path8-6" />
  <path
     style="fill:#4d0000;fill-opacity:1;stroke:none;stroke-width:6.00001;stroke-linecap:square;paint-order:markers stroke fill"
     d="m 21.077169,22.037073 -1.64391,-2.9225 -0.0913,0.36531 1.36993,3.47048 z"
     id="path9-5" />
  <path
     style="fill:#4d0000;fill-opacity:1;stroke:none;stroke-width:6.00001;stroke-linecap:square;paint-order:markers stroke fill"
     d="m 20.803189,22.676373 -1.9179,-2.19188 -0.0913,0.6393 z"
     id="path10-2" />
  <path
     style="fill:#4d0000;fill-opacity:1;stroke:none;stroke-width:1;stroke-linecap:square;stroke-dasharray:none;stroke-opacity:1;paint-order:markers stroke fill"
     d="m 26.089892,49.535273 c 0,0 0.645788,1.93736 -10e-7,2.58315 -0.64579,0.64579 -5.295473,4.0039 -6.716209,8.52442 -0.279251,0.88853 -0.904105,0.77495 -0.904105,0.77495 0,0 -5.295473,-6.19958 -7.232842,-7.362 -1.9373679,-1.16242 -2.8414729,-2.454 -3.61642,-2.58316 -0.7749473,-0.12915 -1.2915788,-1.93736 -1.9373683,-1.80821 -0.6457894,0.12916 -3.0997892,2.19569 -4.0038943,2.71232 C 0.7749474,52.893373 0,55.089063 0,55.089063 c 0,0 1.4207368,0.77494 1.6790524,0 0.2583159,-0.77495 2.195684,-3.09979 2.8414734,-3.22895 0.6457894,-0.12916 1.9373683,-0.12916 2.4539998,0.77495 0.5166315,0.9041 7.8786304,6.84536 8.7827354,8.00778 0.904105,1.16243 1.937369,2.71232 2.583158,2.58316 0.645789,-0.12916 3.228947,-2.84147 4.003894,-3.48726 0.774947,-0.64579 6.457893,-7.62032 6.845367,-8.39526 0.387474,-0.77495 0.774949,-1.80821 -0.387474,-1.80821 -1.162421,0 -2.712314,0 -2.712314,0 z"
     id="path13" />
  <path
     style="fill:#4d0000;fill-opacity:1;stroke:none;stroke-width:1;stroke-linecap:square;stroke-dasharray:none;stroke-opacity:1;paint-order:markers stroke fill"
     d="m 31.835512,49.793583 c 0.904105,1.42074 4.778843,8.78274 5.812105,9.42853 1.033264,0.64579 3.487264,3.09979 4.391369,3.48726 0.904105,0.38747 0.645789,0.38747 0.387474,1.29158 -0.258318,0.9041 0.904105,4.908 1.033261,5.8121 0.129159,0.90411 1.679054,4.0039 1.937369,5.03716 0.258316,1.03326 1.162421,2.71232 1.162421,3.61642 0,0.90411 0.387474,3.09979 1.16242,3.48727 0.774949,0.38747 1.29158,0.64578 2.454,1.16242 1.162421,0.51663 2.066526,0.9041 2.970631,1.03326 0.904105,0.12916 -1.679051,-1.29158 -2.454,-1.93737 -0.774946,-0.64579 -1.80821,-1.42074 -2.066526,-2.06653 -0.258315,-0.64578 -2.195684,-8.52442 -2.97063,-11.23673 -0.774949,-2.71232 -2.066526,-5.42463 -2.841474,-6.84537 -0.774946,-1.42074 -3.487262,-7.23284 -4.778841,-8.91189 -1.291579,-1.67906 -1.937369,-4.52053 -2.324841,-5.16632 -0.387474,-0.64579 -1.162423,-0.9041 -1.162423,-0.9041 0,0 -1.420736,-0.51664 -1.937366,0.12915 -0.516634,0.64579 -0.774949,2.58316 -0.774949,2.58316 z"
     id="path14" />
</svg>
