<?xml version="1.0" encoding="UTF-8" standalone="no"?>
<!-- Created with Inkscape (http://www.inkscape.org/) -->

<svg
   width="80mm"
   height="50mm"
   viewBox="0 0 80 50"
   version="1.1"
   id="svg1"
   xml:space="preserve"
   xmlns="http://www.w3.org/2000/svg"
   xmlns:svg="http://www.w3.org/2000/svg"><defs
     id="defs1" /><g
     id="layer1"
     transform="translate(-73.81875,-108.47916)"><g
       id="g27"><path
         style="opacity:1;fill:#4d0000;fill-opacity:1;stroke-width:1;stroke-linecap:square;paint-order:markers stroke fill"
         d="m 102.09045,121.66219 c 0,0 -0.39316,-0.98292 -0.0983,-1.37609 0.29488,-0.39317 0.39317,-2.26072 0.0983,-3.04705 -0.0945,-0.38461 -0.3725,-0.66262 -0.54626,-0.45411 -0.17375,0.20851 -0.76453,0.69503 -0.86878,1.1468 -0.10426,0.45177 -0.24326,0.69503 -0.34752,1.04255 -0.10425,0.34751 -0.27801,1.1468 -0.451767,1.39006 -0.17376,0.24326 -0.0695,1.00779 -0.10425,1.25105 -0.0348,0.24326 -0.0348,0.24326 -0.0348,0.24326 0,0 0.24326,0.48652 0.590767,0.34752 0.34752,-0.13901 0.27801,-0.41702 0.27801,-0.41702 0,0 -0.34751,-0.20851 -0.34751,-0.48652 0,-0.27801 0.17376,-0.86879 0.20851,-1.18155 0.0348,-0.31277 0.139,-0.59078 0.27801,-0.9383 0.13901,-0.34751 0.59078,-0.83403 0.72978,-0.97304 0.13901,-0.139 0.10426,-0.24326 0.10426,-0.24326 0,0 -0.0695,0.0695 0,0.48652 0.0695,0.41702 0.17375,0.45177 0,0.79929 -0.17376,0.34751 -0.17376,0.24326 -0.31277,0.69503 -0.139,0.45177 -0.34751,0.38226 -0.34751,1.04254 0,0.66028 -0.13901,1.0078 0.139,1.0078 0.27802,0 1.03278,-0.33548 1.03278,-0.33548 z"
         id="path5" /><path
         id="path6"
         style="opacity:1;fill:#4d0000;fill-opacity:1;stroke:none;stroke-width:1.14054;stroke-linecap:square;stroke-opacity:1;paint-order:markers stroke fill"
         d="m 101.76272,121.17728 c -0.002,4.8e-4 -1.08335,0.25237 -1.36526,0.49753 -0.28215,0.2454 -1.299964,0.40693 -1.810791,0.72871 -0.510797,0.32177 -1.419744,0.6667 -2.006944,0.7598 -0.58719,0.0931 -1.80247,0.52613 -2.22689,0.63356 -0.42438,0.10744 -0.88988,0.46216 -1.1534,0.82499 -0.26353,0.36281 -1.3875,1.62474 -1.53358,1.96896 -0.146081,0.3442 -0.96567,0.99573 -1.111748,1.33993 -0.14608,0.34421 -0.325138,0.73367 -0.809216,0.97093 -0.484079,0.23728 -1.427558,0.86878 -2.016664,1.20295 -0.589104,0.33419 -1.336888,0.93433 -1.559352,1.04987 -0.222466,0.11553 -0.48575,0.47804 -0.48575,0.47804 0,0 -1.317061,-0.71423 -1.960119,-0.97344 -0.643061,-0.25921 -1.645246,-1.26356 -2.187579,-1.89991 -0.542335,-0.63637 -1.169621,-2.0624 -1.382068,-2.3899 -0.212449,-0.32749 -0.367214,-0.54331 -0.367214,-0.54331 0,0 -0.214718,-0.0868 -0.166969,0.46749 0.04775,0.55426 0.642589,2.0251 0.77484,2.6061 0.132247,0.581 1.274411,1.96492 1.602394,2.51488 0.327981,0.54994 1.336351,1.59435 1.587946,1.91563 0.251594,0.32129 -0.145937,0.34419 -0.145937,0.34419 0,0 0.322128,1.27329 0.287279,1.55973 -0.03484,0.28643 -0.03414,1.0484 -0.01742,1.40691 0.01672,0.35852 0.02713,0.67825 0.332192,0.83052 0.30506,0.1523 0.640535,-0.26208 0.640535,-0.26208 0,0 0.398938,-1.02656 0.67917,-1.03086 0.280243,-0.005 0.565195,0.27143 0.565195,0.27143 0,0 -0.43679,0.0294 -0.613895,0.17794 -0.177112,0.14846 -0.652794,0.94597 -0.582613,1.13551 l 0.0701,0.18999 c 0,0 0.414548,0.33558 0.661843,0.37664 0.247292,0.0411 0.657042,0.096 0.929162,0.29368 0.272122,0.19764 0.655292,-0.42496 0.655292,-0.42496 0,0 -0.305681,-0.91455 -0.347223,-1.42967 -0.04154,-0.51511 -0.161217,-1.01771 -0.243806,-1.28554 -0.0826,-0.26782 -0.136659,-0.86094 -0.303753,-1.15549 -0.167095,-0.29457 -0.43926,-0.49237 -0.793972,-0.95782 -0.354715,-0.46545 -0.711019,-0.68975 -0.02692,-0.67782 0.68411,0.0119 0.679818,0.49375 0.886059,0.78209 0.206242,0.28837 0.439558,0.49245 0.346947,0.66766 -0.09261,0.17521 0.0086,0.56034 0.130323,0.82196 0.121737,0.26161 0.200246,1.01168 0.301458,1.39694 0.101212,0.38525 0.01129,1.08163 0.308218,1.43585 0.296948,0.35423 0.805484,0.27391 0.805484,0.27391 0,0 0.294539,-0.16725 0.426299,-0.34866 0.131758,-0.18142 0.379332,-0.14052 0.166878,-0.46806 -0.212448,-0.32748 -0.534382,-0.83831 -0.497631,-1.36585 0.03675,-0.52752 -0.06024,-0.63212 -0.128522,-1.06273 -0.06827,-0.43061 -0.651684,-0.81972 -0.824985,-1.15341 -0.173302,-0.33371 -0.307071,-0.67399 -0.278432,-0.99958 0.02864,-0.32558 -0.0089,-0.56029 -0.05232,-0.83432 -0.04344,-0.27402 -0.198003,-0.49045 0.04929,-0.44941 0.247292,0.0411 0.414275,0.33579 0.470138,0.68812 0.05586,0.35231 0.17996,1.13498 0.392409,1.46248 0.212446,0.32748 0.243564,0.52369 0.493253,1.08606 0.249687,0.56237 0.08131,1.27119 0.215464,1.61109 0.134153,0.33991 0.258283,1.12273 0.517988,1.24207 0.259707,0.11935 0.42254,0.13382 0.645005,0.0182 0.222467,-0.11552 0.114833,-0.54036 0.114833,-0.54036 0,0 -0.233274,-0.96602 -0.225161,-1.16795 0.0081,-0.20195 0.232359,-0.55842 -0.116155,-0.98473 -0.348507,-0.42632 -0.451762,-0.57036 -0.42933,-0.93508 0.02242,-0.36474 0.09495,-0.41638 -0.265972,-0.92099 -0.360922,-0.50459 -0.385906,-0.66119 -0.472802,-1.20924 -0.0869,-0.54806 -0.342846,-1.1499 -0.342846,-1.1499 0,0 -0.179451,-0.37256 0.457394,-0.15255 0.636854,0.22008 0.668026,0.41565 0.668026,0.41565 0,0 -0.249349,0.20008 -0.199695,0.51325 0.04966,0.31317 0.113495,0.46359 0.344561,0.90853 0.231068,0.44494 0.596403,1.22949 0.534824,1.60043 -0.06158,0.37095 -0.05136,0.6904 0.09521,1.1086 0.146565,0.4182 0.272741,0.9599 0.347223,1.42967 0.07448,0.46975 0.0664,0.67187 0.299373,0.8757 0.232975,0.20385 0.92477,-0.74845 1.303818,-0.88881 0.379059,-0.14035 1.444126,-0.51019 1.866616,-0.37656 0.42251,0.13365 1.03637,-0.0437 1.48561,0.006 0.44923,0.0492 1.86028,-0.41565 2.35056,-0.61377 0.490287,-0.19813 1.383454,-1.90433 1.314684,-3.09734 -0.0688,-1.19303 0.437027,-3.32027 0.409797,-3.99818 -0.0273,-0.6779 0.12281,-1.50436 0.552937,-2.33504 0.430117,-0.83068 2.035107,-1.08476 2.227967,-2.39952 0.19284,-1.31476 -0.26169,-2.40699 -0.26169,-2.40699 z m -9.66176,6.8442 c 0.09683,-0.0151 0.197542,-0.0181 0.309573,-0.0235 0,0 -0.321161,0.25145 -0.428098,0.58945 -0.106983,0.33795 -0.171241,0.18753 -0.335935,0.41429 -0.164695,0.22676 -0.611593,0.69864 -0.564341,0.49049 0.04722,-0.20815 -0.0211,-0.6386 0.353626,-1.05921 0.257637,-0.28915 0.452293,-0.37849 0.665164,-0.4116 z" /><path
         id="path12"
         style="opacity:1;fill:#4d0000;fill-opacity:1;stroke:none;stroke-width:0.3;stroke-linecap:square;stroke-dasharray:none;stroke-opacity:1;paint-order:markers stroke fill"
         d="m 103.54818,121.21117 c -0.19054,0.004 -0.35327,0.0221 -0.4749,0.0568 -0.48652,0.13901 -1.25109,0.17363 -1.25109,0.17363 0,0 -0.34741,1.63337 -0.86868,1.94613 -0.52127,0.31276 -2.224281,2.46744 -2.328531,2.91921 -0.10426,0.45177 -0.416897,3.19729 -0.590657,3.75325 -0.173757,0.55603 -0.903817,2.43241 -0.903817,2.43241 h 5.2e-4 c 0.24326,0.59077 0.2779,0.69505 0.72967,0.83406 0.451767,0.139 1.042444,-0.10443 1.285701,0.0346 0.24326,0.139 0.729667,-0.0346 0.729667,-0.0346 0,0 0.035,0.76442 -0.34727,0.72967 -0.382257,-0.0348 -0.139027,-0.66003 -0.695044,-0.62528 -0.556027,0.0348 -0.729937,0.10426 -1.077444,0.55604 -0.34752,0.45176 -0.20851,1.04219 0,1.49396 0.208507,0.45177 0.556037,0.31266 0.556037,1.00769 0,0.69504 -0.24327,1.21674 -0.13901,1.56425 0.10425,0.34752 0.451917,-0.0348 0.938434,0.13901 0.486517,0.17376 1.146844,-0.0699 1.668114,0.24288 0.52127,0.31277 1.07683,0.38266 1.80661,0.31316 0.72978,-0.0695 1.84213,-0.24354 2.01589,-0.4868 0.17376,-0.2432 0.6948,-1.14656 0.90331,-0.9033 0.20851,0.24326 0,0.5209 0,0.5209 l 0.34778,-0.34727 c 0,0 1.04232,-0.10425 1.45934,0 0.41702,0.10426 1.00808,0.13902 1.04283,0.27802 0.0348,0.13901 -2.8e-4,0.20864 -0.76481,0.10439 -0.76453,-0.10426 -1.59861,-0.2436 -1.94613,-0.0351 -0.34751,0.2085 -0.48628,0.66043 -0.34727,0.93844 0.139,0.27801 1.00757,-0.27801 1.59835,0 0.59078,0.27801 1.25097,0.48641 1.70274,0.72967 0.45178,0.24326 1.91153,0.0695 2.46755,0.13901 0.55603,0.0695 0.86897,0.27803 2.05052,0.69505 1.18155,0.41701 7.40201,1.45973 10.39058,1.21647 2.98863,-0.24326 5.07348,-1.49451 5.66426,-2.05053 0.59077,-0.55602 0.6952,-1.28585 1.63349,-1.66811 0.93829,-0.38227 2.71056,-0.86881 3.09283,-0.69505 0.38226,0.17375 1.98115,0.0347 2.15491,-0.13901 0.17376,-0.17376 -0.0695,-0.69466 1.11208,-0.79892 1.18155,-0.10425 2.01514,-0.48693 2.91868,-0.86919 0.90354,-0.38227 1.52911,-1.00758 1.52911,-1.45935 0,-0.45177 0.10425,-1.07708 -0.13901,-1.59835 -0.24326,-0.52127 -0.97281,-1.84228 -1.18132,-2.3983 -0.20851,-0.55603 -0.24315,-1.73725 -0.45166,-2.18902 -0.20851,-0.45171 -0.24355,-0.7647 -1.32085,-1.7725 -1.0773,-1.00779 -1.56373,-1.91125 -1.70273,-2.11976 -0.13901,-0.20851 0.24315,-0.55577 0.59066,-0.0693 0.34752,0.48652 1.21622,1.18134 1.70274,1.73736 0.48646,0.55603 1.14684,0.97309 1.66811,1.3901 0.52127,0.41702 1.42512,0.93808 1.87689,1.59835 0.45177,0.66028 1.98064,1.56413 2.43241,2.15491 0.45177,0.59077 1.73749,0.52129 1.84175,0.83405 0.10425,0.31277 0.73006,0.24326 0.90382,0 0.17376,-0.24326 -2.08516,-1.52898 -2.50218,-2.11976 -0.41702,-0.59078 -0.66017,-1.21673 -1.00769,-1.56425 -0.34751,-0.34751 -1.52899,-0.48617 -2.25877,-1.07694 -0.72979,-0.59072 -1.7379,-2.18941 -2.57194,-2.64118 -0.83403,-0.45177 -2.05029,-1.63324 -3.23184,-1.84175 -1.18155,-0.20851 -1.42464,-0.278 -3.26647,0.13901 -1.84183,0.41702 -3.0585,1.07708 -4.10104,1.45935 -1.04255,0.38226 -2.46707,1.11195 -3.99614,1.28571 -1.52907,0.17375 -2.15466,0.24339 -2.9192,0.24339 -0.76453,0 -1.70289,-0.13888 -2.50218,-0.17363 -0.79922,-0.0348 -1.11182,0.0691 -1.32033,0.10387 -0.20851,0.0347 -0.38253,1.3e-4 -0.34778,0.24339 0.0347,0.24326 0.0696,1.87664 -0.17363,2.22416 -0.24326,0.34752 -0.41717,0.97307 -0.66043,1.39009 -0.24326,0.41702 -0.31265,0.69492 -0.59066,1.00769 -0.27802,0.31276 -0.83406,0.41703 -0.83406,0.41703 l -0.24339,0.0351 c 0,0 0.24372,-0.31317 0.73018,-0.86919 0.48652,-0.55603 1.07694,-1.21623 1.21595,-2.11977 0.139,-0.90353 0.13901,-1.87651 0.13901,-2.11977 0,-0.24326 -0.34726,-0.48627 -0.34726,-0.48627 0,0 -1.07721,-0.31277 -1.56373,-0.41703 -0.48653,-0.10425 -0.83406,-0.13901 -0.83406,-0.13901 0,0 -0.2434,0.2779 -0.10439,0.72967 0.139,0.45177 -0.0696,0.97313 -0.10438,1.39009 -0.0348,0.41702 -0.13876,0.79931 -0.20826,1.25109 -0.0695,0.45176 -0.13901,0.83406 -0.27802,0.83406 -0.13901,0 -0.13901,-1.04285 -0.13901,-1.59887 0,-0.55602 0.10426,-1.38977 0.13901,-1.77198 0.0256,-0.28172 0.0549,-0.59159 0.0765,-0.81959 -0.0199,-0.007 -0.0447,-0.0223 -0.0765,-0.0496 -0.24326,-0.20851 -0.76494,-0.1735 -0.8692,-0.20826 -0.10425,-0.0348 0.0698,0.27803 0.0351,0.55604 -0.0348,0.27801 0.0345,0.59082 -0.0698,1.25109 -0.10426,0.66028 -0.13888,0.97282 -0.17363,1.32033 -0.0348,0.34752 -0.24327,1.07722 -0.13901,1.84175 0.10425,0.76454 -0.13901,1.52899 -0.27802,1.98076 -0.139,0.45171 -0.20852,0.90357 -0.41703,1.5291 -0.20851,0.62553 -0.31252,0.93858 -0.48628,1.18184 -0.17375,0.24326 -0.0348,-0.13928 0,-0.48679 0.0347,-0.34752 0.20826,-0.66005 0.48628,-1.32033 0.27801,-0.66028 0.5559,-1.1816 0.45165,-1.94614 -0.10426,-0.76453 -0.1735,-2.29366 -0.0692,-2.78019 0.1042,-0.48652 0.13914,-0.83408 0.24339,-1.66812 0.10426,-0.83404 0.13875,-1.11208 -0.0698,-1.39009 -0.20851,-0.27801 -0.52142,-0.41703 -0.52142,-0.41703 l -0.10387,0.2434 c 0,0 -0.0698,0.59067 -0.0351,0.86868 0.0348,0.27801 0.0697,0.86882 -0.0346,1.25108 -0.10426,0.38227 -0.45192,1.14685 -0.52142,1.80713 -0.0695,0.66028 -0.1735,1.59849 -0.20825,2.25877 -0.0348,0.66028 -0.20865,0.97309 -0.38241,1.3901 -0.17376,0.41702 -0.27802,1.11209 -0.41703,1.3901 -0.139,0.27802 -0.83405,0.20877 -0.83405,0.20877 0,0 0.45204,-0.76483 0.76481,-1.32085 0.31276,-0.55603 0.5559,-0.55606 0.59066,-1.25109 0.0348,-0.69503 0.10439,-1.63324 0.10439,-2.25877 0,-0.62552 0.34726,-1.28566 0.34726,-2.01538 0,-0.72978 0.0348,-1.21622 0.13901,-1.70274 0.10425,-0.48652 0.34766,-0.7647 0.10439,-0.93845 -0.24326,-0.17376 -2.05046,-1.04271 -2.78019,-1.35547 -0.72978,-0.31277 -2.2243,-0.9033 -3.1626,-1.04231 -0.70372,-0.10426 -1.52475,-0.20889 -2.09652,-0.19586 z m 10.47895,3.26854 c 0.13226,0.0476 0.0274,-0.29249 0.0274,-0.29249 0,0 -0.0197,0.21112 -0.0274,0.29249 z m 20.04426,0.64544 c 0,0 0.0699,0.1739 -0.10387,0.66042 -0.17376,0.48658 -0.24357,0.1044 -0.6258,0.52142 -0.38227,0.41702 -0.55605,1.14658 -0.97307,1.32033 -0.41702,0.17376 -0.59041,0.20852 -0.79892,0.27802 -0.20851,0.0695 -0.83406,1.0772 -1.11208,1.56373 -0.27801,0.48652 -0.76482,1.52947 -0.90382,1.14721 -0.13901,-0.38227 -0.0696,-0.52155 0.17364,-0.76481 0.24326,-0.24326 0.38254,-0.83418 0.76481,-0.93844 0.38226,-0.10425 0.1739,-0.52103 0.3824,-0.62529 0.20851,-0.10425 0.38203,-0.27803 0.48628,-0.55604 0.10426,-0.27797 1.18158,-0.83382 1.39009,-1.45934 0.2085,-0.62553 1.32034,-1.14721 1.32034,-1.14721 z m 2.49648,0.33796 c 0.1124,-0.003 0.22328,0.0273 0.31885,0.1142 0.38227,0.34752 0.27763,0.13902 0.38189,0.41703 0.10421,0.27802 0.10438,0.41666 -0.0346,0.93793 -0.139,0.52128 -0.59053,1.04271 -0.76429,1.35547 -0.17376,0.31277 -0.69543,0.10425 -0.59118,-0.27802 0.10426,-0.38227 0.76464,-0.73007 0.79944,-1.04283 0.0347,-0.31277 0.13901,-0.48641 0.13901,-0.86868 0,-0.38227 -0.27777,-0.38227 -0.48628,-0.27802 -0.20851,0.10426 -0.69545,0.5213 -1.00821,0.97307 -0.31277,0.45177 -0.24301,0.90383 -0.48627,1.32085 -0.24326,0.41701 -0.76464,0.72968 -0.79944,1.00769 -0.0348,0.27801 0.13901,0.4864 0,0.59066 -0.139,0.10425 -0.4514,0.0695 -0.79891,0.41703 -0.15971,0.1597 -0.36845,0.4194 -0.52297,0.6227 -0.0488,0.0839 -0.0955,0.15886 -0.13746,0.21136 -0.15025,0.18782 -0.0443,0.0277 0.13746,-0.21136 0.27452,-0.47174 0.63934,-1.35637 0.90485,-1.7694 0.31277,-0.48652 0.72995,-0.76469 1.07746,-1.21646 0.34752,-0.45177 0.45147,-0.52104 0.48627,-0.90331 0.0348,-0.38226 0.34754,-0.83419 0.69505,-1.07745 0,0 0.35217,-0.31269 0.68936,-0.32246 z m -1.73167,0.0444 c 0,0 0.17374,0.24315 -0.27802,1.00769 -0.45177,0.76453 -1.07758,1.45961 -1.18184,1.80713 -0.10425,0.34751 -0.41652,0.83393 -0.69453,1.00769 -0.27801,0.17376 -1.42486,1.70288 -1.80713,2.22415 -0.38226,0.52127 -1.3556,1.49435 -1.18184,1.25109 0.17376,-0.24326 -1.2e-4,-0.27778 0.45165,-0.7643 0.45177,-0.48652 1.11222,-1.49462 1.35548,-1.73788 0.24326,-0.24326 0.66017,-1.28558 1.00769,-1.59835 0.34751,-0.31276 1.00795,-1.11196 1.21646,-1.56373 0.20851,-0.45177 1.11208,-1.63349 1.11208,-1.63349 z m 0.82682,3.57188 c 0.0552,0.009 0.0311,0.17027 0.007,0.52865 -0.0348,0.52127 -0.55631,0.90383 -0.76482,1.18184 -0.20851,0.27802 -0.41704,0.3124 -0.97306,1.21594 -0.55603,0.90354 -0.90318,1.28624 -0.93793,1.84227 -0.0348,0.55602 -0.41703,0.93792 -0.41703,0.93792 0,0 0.0345,-0.83368 0.20826,-1.35495 0.17375,-0.52127 0.72967,-1.25136 0.72967,-1.59887 0,-0.34752 -0.31251,-0.24328 -0.0692,-0.69505 0.24326,-0.45177 0.20828,-0.62554 0.62529,-0.41703 0.41702,0.20851 0.52142,0.20864 0.79943,-0.17363 0.27801,-0.38226 -0.17362,-0.79943 0.10439,-0.93844 0.27802,-0.139 0.55604,-0.45166 0.55604,-0.45166 0.0651,-0.0543 0.1067,-0.0812 0.13177,-0.077 z m -21.78213,0.56379 c 0,0 0.20852,0.0348 0.27802,0.27802 0.0695,0.24326 -1.3e-4,0.13876 -0.10439,0.9033 -0.10425,0.76453 -0.24314,0.48642 -0.31264,0.86868 -0.0695,0.38227 -0.34767,1.32067 -0.66043,2.08514 -0.31276,0.76454 -0.52077,1.49449 -0.69453,1.49449 -0.17376,0 0.10421,-0.48654 0.13901,-0.83406 0.0347,-0.34751 0.34701,-0.62543 0.55552,-1.28571 0.20851,-0.66028 0.3478,-1.11209 0.4868,-1.66812 0.13895,-0.55602 0.31264,-1.38997 0.31264,-1.84174 z m 1.47743,1.40043 c 0.14087,8.4e-4 0.29507,0.0655 0.29507,0.1633 0,0.17371 -0.13901,0.7647 -0.27802,1.35547 -0.139,0.59078 -0.79956,2.15414 -0.90382,2.64066 -0.10425,0.48652 -0.13876,0.76468 -0.34727,0.66043 -0.20851,-0.10426 -0.10451,-1.38997 0.20826,-1.70274 0.31276,-0.31276 0.52142,-1.80727 0.66042,-2.18953 0.13901,-0.38227 0.13901,-0.79892 0.13901,-0.79892 0.0152,-0.0912 0.11678,-0.12933 0.22635,-0.12867 z" /><path
         style="opacity:1;fill:#4d0000;fill-opacity:1;stroke:none;stroke-width:0.3;stroke-linecap:square;stroke-dasharray:none;stroke-opacity:1;paint-order:markers stroke fill"
         d="m 98.764079,138.22663 -0.27801,-0.17376 c 0,0 -0.139007,-0.139 -0.243257,0.24326 -0.10425,0.38227 -0.660277,1.63332 -0.695027,2.11985 -0.0348,0.48652 -0.66028,0.86878 -0.76453,1.2163 -0.10426,0.34752 -0.79929,0.90354 -0.79929,0.90354 0,0 -0.24326,0.17376 0.17376,0.41702 0.41702,0.24326 1.35531,0.20851 1.737567,0.59078 0.38227,0.38226 0.695037,0.52127 0.764537,0.76453 0.0695,0.24326 0.0695,0.41702 -0.24326,0.24326 -0.312767,-0.17376 -0.973044,-0.86879 -1.494314,-0.97304 -0.52127,-0.10426 -0.97304,-0.76454 -1.2163,-0.55603 -0.24326,0.20851 -0.31277,0.69503 -0.48652,0.90354 -0.17376,0.20851 -0.20851,0.69503 -0.0348,0.86879 0.17375,0.17376 0.62552,0 1.07729,0.24326 0.45177,0.24326 0.72978,0.13901 1.0078,0.45177 0.27801,0.31276 0.45177,0.83404 0.31276,0.69503 -0.13901,-0.13901 -0.76453,-0.76453 -1.2163,-0.93829 -0.45177,-0.17376 -1.42482,-0.52127 -1.63333,-0.38227 -0.2085,0.13901 -0.62552,0.48652 -1.00779,0.76454 -0.38227,0.27801 -0.69503,1.00779 -0.83404,1.42481 -0.139,0.41702 -0.0347,0.27801 0.52128,0.72978 0.55602,0.45177 1.59857,0.90354 2.01559,1.11205 0.41701,0.20851 1.1468,0.27801 1.45956,0 0.31276,-0.27801 0.97304,-0.69503 1.181547,-1.49432 0.20851,-0.79928 0.31277,-1.32055 0.486517,-1.66807 0.17376,-0.34751 0.31277,-0.59077 0.521277,-0.86879 0.2085,-0.27801 0.38226,-1.1468 0.556017,-1.35531 0.17376,-0.2085 1.390057,-1.11205 1.876577,-1.70282 0.48652,-0.59078 1.0078,-1.28581 1.28581,-1.63332 0.27801,-0.34752 0.83404,-0.59078 1.0773,-1.11205 0.24326,-0.52127 0.72978,-0.62553 0.34751,-1.1468 -0.38227,-0.52127 -3.85742,-1.11205 -4.378687,-0.83404 -0.521267,0.27801 -1.077294,1.1468 -1.077294,1.1468 z"
         id="path18" /><path
         style="opacity:1;fill:#4d0000;fill-opacity:1;stroke:none;stroke-width:0.3;stroke-linecap:square;stroke-dasharray:none;stroke-opacity:1;paint-order:markers stroke fill"
         d="m 105.85591,139.19234 c 0,0 0.22361,0.35372 0.40283,0.84813 0.17931,0.49438 0.67336,1.21658 0.78968,1.66541 0.11637,0.4488 0.39729,1.43886 0.44678,1.609 0.0495,0.17017 0.32252,0.69405 0.32252,0.69405 0,0 0.21441,-0.19013 0.69795,-0.0895 0.48355,0.10066 0.62419,0.14493 0.75269,0.39146 0.1285,0.24653 -0.039,0.45142 -0.039,0.45142 0,0 -0.13112,-0.40192 -0.38158,-0.50651 -0.25045,-0.10459 -0.79825,-0.32852 -0.96447,-0.0459 -0.16622,0.28257 -0.0937,-0.0295 -0.0177,0.79302 0.076,0.82252 -0.0702,1.36901 -0.14267,1.6811 -0.0725,0.31209 -0.0725,0.31209 -0.0725,0.31209 0,0 0.6606,-0.46188 1.00221,-0.48314 0.3416,-0.0213 0.72877,-0.10553 0.9458,-0.14027 0.21703,-0.0348 0.47962,-0.13243 0.82515,0.0794 0.34552,0.21179 0.35075,0.52257 0.35075,0.52257 0,0 -0.50091,-0.20918 -1.15461,-0.26033 -0.65368,-0.0512 -0.7127,0.13635 -1.00742,0.1724 -0.29472,0.036 -0.57079,0.25827 -0.97399,0.31173 -0.40324,0.0534 -0.039,0.45142 -0.039,0.45142 0,0 -0.039,0.45142 -0.0807,0.74745 -0.0416,0.29602 -0.0416,0.29602 -0.0416,0.29602 0,0 0.55208,-0.44451 0.98875,-0.3586 0.43666,0.0859 0.79825,0.32851 1.00052,0.34064 0.20228,0.0121 0.25574,0.41535 0.25574,0.41535 0,0 -0.95233,-0.24819 -1.2818,-0.42917 -0.32946,-0.18097 -0.83598,0.2006 -0.83598,0.2006 0,0 -0.18359,0.17407 -0.17965,0.40716 0.004,0.23308 0.26485,0.95924 0.26485,0.95924 0,0 0.74352,-0.15241 1.07167,-0.0491 0.32815,0.10327 1.58212,-0.19763 2.0778,-0.29924 0.49568,-0.10161 0.69831,-0.99101 0.69831,-0.99101 0,0 -0.13111,-0.40192 -0.12029,-0.68189 0.0108,-0.27997 0.008,-0.43535 0.008,-0.43535 0,0 0.0807,-0.74745 0.0741,-1.13593 -0.007,-0.38848 -0.51663,-1.14152 -0.4776,-1.59295 0.039,-0.45141 0.44655,-1.17328 0.35315,-2.10432 -0.0934,-0.93105 -0.68117,-1.68278 -0.43036,-2.47973 0.25083,-0.79694 0.26558,-0.84382 0.34626,-1.59127 0.0807,-0.74745 0.15873,-1.65029 0.15873,-1.65029 0,0 0.059,-0.18752 -0.51437,-0.0846 -0.57337,0.10292 -2.08732,0.6569 -2.67545,0.80669 -0.58813,0.14981 -2.40369,1.25289 -2.40369,1.25289 z"
         id="path19" /><path
         style="opacity:1;fill:#4d0000;fill-opacity:1;stroke:none;stroke-width:0.3;stroke-linecap:square;stroke-dasharray:none;stroke-opacity:1;paint-order:markers stroke fill"
         d="m 134.45389,137.42735 c 0,0 1.42481,1.2858 1.70283,1.73757 0.27801,0.45177 1.87658,1.52907 1.91133,1.94609 0.0348,0.41702 0.17376,2.57161 0.17376,2.78012 0,0.20851 0.0695,1.91133 0,2.2936 -0.0695,0.38227 -0.24326,1.28581 -0.34752,1.80708 -0.10425,0.52127 0.97304,1.39006 1.32056,1.66807 0.34752,0.27801 2.18935,-0.139 2.95388,-0.79928 0.76453,-0.66028 0.62553,-2.05034 0.52127,-2.39786 -0.10425,-0.34751 -0.27801,-1.25105 -0.27801,-1.80708 0,-0.55602 0.52127,-2.64111 0.48652,-3.26664 -0.0348,-0.62553 -0.17375,-1.94609 -0.41702,-2.39786 -0.24326,-0.45176 -1.04254,-1.56381 -1.39006,-1.80707 -0.34751,-0.24327 -1.2163,-0.97305 -1.2163,-0.97305 0,0 -3.4404,-0.31276 -3.64891,0.0348 -0.20851,0.34752 -2.11985,0.20852 -2.11985,0.20852 z"
         id="path20" /><path
         style="opacity:1;fill:#4d0000;fill-opacity:1;stroke:none;stroke-width:0.3;stroke-linecap:square;stroke-dasharray:none;stroke-opacity:1;paint-order:markers stroke fill"
         d="m 131.61676,136.008 c 0,0 5.44652,2.11063 5.77341,2.22858 0.32688,0.11796 2.85945,0.92744 3.20878,1.47466 0.34933,0.54722 2.05469,1.55967 2.49758,1.64875 2.14789,0.43197 1.85396,3.53265 1.94555,3.8317 0.0916,0.29905 0.27625,1.73264 0.71778,2.10624 0.56431,0.29965 1.74286,-0.24304 2.1036,-0.60789 0.36073,-0.36489 1.34321,-1.42904 1.25432,-1.83796 -0.0889,-0.40893 -0.46204,-1.20977 -0.89008,-2.13268 -0.42805,-0.9229 -1.49917,-3.53226 -2.07507,-4.70064 -0.57591,-1.16837 -1.26494,-1.16573 -2.15069,-1.80307 -0.88576,-0.63734 -1.09145,-2.25589 -1.81645,-2.72439 -0.72502,-0.4685 -2.14511,-0.83314 -2.14511,-0.83314 z"
         id="path21" /></g></g></svg>
