<?xml version="1.0" encoding="UTF-8" standalone="no"?>
<!-- Created with Inkscape (http://www.inkscape.org/) -->

<svg
   width="80mm"
   height="50mm"
   viewBox="0 0 80 50"
   version="1.1"
   id="svg1"
   xml:space="preserve"
   xmlns="http://www.w3.org/2000/svg"
   xmlns:svg="http://www.w3.org/2000/svg"><defs
     id="defs1" /><g
     id="layer1"
     transform="translate(-73.81875,-108.47916)"><g
       id="g28"
       transform="translate(-79.375004)"><path
         style="fill:#4d0000;fill-opacity:1;stroke-width:1;stroke-linecap:square;paint-order:markers stroke fill"
         d="m 181.93227,120.25 c 0,0 -0.30897,-1.01256 0.0179,-1.37948 0.32695,-0.36694 0.5822,-2.21957 0.35462,-3.02795 -0.0617,-0.3912 -0.31536,-0.69165 -0.50606,-0.49852 -0.19069,0.19315 -0.82036,0.62817 -0.9623,1.06955 -0.14227,0.44128 -0.30095,0.67207 -0.43411,1.00958 -0.13317,0.33748 -0.37365,1.11929 -0.56725,1.34705 -0.19364,0.22777 -0.15415,0.99836 -0.20926,1.23783 -0.0551,0.23947 -0.0551,0.23947 -0.0551,0.23947 0,0 0.20141,0.5053 0.5594,0.39605 0.35799,-0.10924 0.31214,-0.39212 0.31214,-0.39212 0,0 -0.32872,-0.23704 -0.30529,-0.51406 0.0234,-0.27702 0.24628,-0.85107 0.30728,-1.15979 0.061,-0.30873 0.18857,-0.57688 0.35606,-0.91156 0.16777,-0.33456 0.65893,-0.7813 0.80914,-0.90809 0.15023,-0.12681 0.12438,-0.23362 0.12438,-0.23362 0,0 -0.0751,0.0634 -0.041,0.4848 0.0342,0.42138 0.13508,0.46478 -0.0673,0.79644 -0.20245,0.33162 -0.19363,0.22776 -0.3702,0.66621 -0.17657,0.43845 -0.37848,0.35164 -0.4341,1.00956 -0.0556,0.65794 -0.2234,0.99251 0.0536,1.01593 0.27703,0.0234 1.05738,-0.2473 1.05738,-0.2473 z"
         id="path5-8" /><path
         id="path6-1"
         style="fill:#4d0000;fill-opacity:1;stroke:none;stroke-width:1.14054;stroke-linecap:square;stroke-opacity:1;paint-order:markers stroke fill"
         d="m 181.64654,119.7392 c -0.002,2.6e-4 -1.10075,0.16021 -1.40231,0.38076 -0.30183,0.22076 -1.32963,0.29598 -1.86576,0.57358 -0.53608,0.2776 -1.47085,0.54474 -2.06381,0.58805 -0.59294,0.0433 -1.84039,0.37242 -2.27234,0.44372 -0.43192,0.0713 -0.92565,0.38556 -1.2188,0.7249 -0.29316,0.33932 -1.51943,1.50209 -1.69399,1.83277 -0.17452,0.33069 -1.04612,0.91086 -1.22067,1.24152 -0.17452,0.3307 -0.38578,0.70368 -0.88813,0.89932 -0.50235,0.19566 -1.49566,0.74544 -2.11082,1.02879 -0.61517,0.28339 -1.41084,0.8184 -1.64226,0.91479 -0.2314,0.0964 -0.52429,0.43542 -0.52429,0.43542 0,0 -1.25221,-0.82263 -1.87116,-1.13509 -0.61893,-0.31246 -1.53295,-1.39766 -2.01975,-2.07743 -0.48681,-0.67979 -0.99174,-2.15359 -1.17585,-2.49783 -0.1841,-0.34422 -0.32013,-0.57231 -0.32013,-0.57231 0,0 -0.20664,-0.10458 -0.20574,0.45177 8.5e-4,0.55631 0.46972,2.07203 0.55256,2.66211 0.0829,0.59008 1.10437,2.06529 1.38487,2.64092 0.28049,0.57561 1.19729,1.70126 1.42092,2.04259 0.22365,0.34134 -0.17441,0.33066 -0.17441,0.33066 0,0 0.21372,1.29591 0.15486,1.57839 -0.0588,0.28248 -0.12227,1.04181 -0.13589,1.40045 -0.0136,0.35864 -0.0302,0.67811 0.26105,0.85554 0.29114,0.17743 0.66033,-0.20719 0.66033,-0.20719 0,0 0.48399,-0.9893 0.76359,-0.96999 0.27969,0.0184 0.54032,0.31808 0.54032,0.31808 0,0 -0.43772,-0.007 -0.62671,0.1256 -0.18899,0.13301 -0.73015,0.88762 -0.67618,1.08239 l 0.0539,0.19523 c 0,0 0.38479,0.3693 0.62775,0.43104 0.24298,0.0617 0.64661,0.15106 0.90113,0.37093 0.25449,0.21986 0.68876,-0.36825 0.68876,-0.36825 0,0 -0.22756,-0.93704 -0.22557,-1.45384 0.002,-0.51677 -0.0749,-1.02767 -0.13465,-1.30151 -0.0598,-0.27383 -0.0637,-0.86939 -0.20533,-1.17696 -0.14169,-0.3076 -0.39623,-0.52763 -0.71047,-1.0213 -0.31425,-0.49368 -0.6504,-0.74719 0.0302,-0.67769 0.68068,0.0695 0.63582,0.54926 0.81703,0.85395 0.18122,0.30472 0.39652,0.52773 0.28948,0.69452 -0.10707,0.16677 -0.0382,0.55911 0.0606,0.83001 0.0993,0.27094 0.11433,1.02495 0.18272,1.41738 0.0684,0.39239 -0.0798,1.07873 0.18618,1.4567 0.26605,0.378 0.77955,0.34082 0.77955,0.34082 0,0 0.30756,-0.14186 0.45414,-0.31152 0.14662,-0.16967 0.38983,-0.10806 0.20571,-0.45234 -0.18411,-0.34422 -0.46187,-0.88035 -0.38081,-1.40292 0.081,-0.52256 -0.007,-0.63493 -0.0385,-1.06978 -0.0318,-0.43482 -0.58031,-0.8717 -0.7249,-1.21879 -0.14458,-0.34713 -0.24921,-0.69747 -0.19325,-1.0195 0.0559,-0.32199 0.0382,-0.55905 0.0181,-0.83574 -0.0201,-0.27671 -0.15597,-0.5054 0.0869,-0.44369 0.24296,0.0617 0.38453,0.3695 0.4105,0.72528 0.026,0.35576 0.0837,1.1461 0.26782,1.49034 0.1841,0.34421 0.19859,0.54234 0.40001,1.12374 0.20144,0.58141 -0.0261,1.27352 0.079,1.62352 0.10504,0.35 0.16279,1.1405 0.41152,1.28129 0.24873,0.1408 0.40976,0.16893 0.64119,0.0725 0.2314,-0.0964 0.16,-0.52875 0.16,-0.52875 0,0 -0.15106,-0.98224 -0.12597,-1.18277 0.025,-0.20053 0.27857,-0.53685 -0.0328,-0.991 -0.31137,-0.45418 -0.40212,-0.6064 -0.34904,-0.96792 0.053,-0.36158 0.12951,-0.40695 -0.18745,-0.94014 -0.31714,-0.53319 -0.32883,-0.69134 -0.36927,-1.24476 -0.0404,-0.55342 -0.24475,-1.1747 -0.24475,-1.1747 0,0 -0.14742,-0.38635 0.46862,-0.11347 0.61603,0.27297 0.63064,0.47044 0.63064,0.47044 0,0 -0.26532,0.17837 -0.24218,0.49462 0.0232,0.31625 0.074,0.47151 0.2668,0.93433 0.19276,0.46281 0.49071,1.27535 0.39811,1.63978 -0.0925,0.36446 -0.10936,0.68363 10e-4,1.11269 0.11082,0.42906 0.19092,0.97947 0.22557,1.45383 0.0347,0.47436 0.01,0.67508 0.22453,0.89781 0.21499,0.22275 0.98453,-0.66789 1.37406,-0.77582 0.38953,-0.10792 1.48197,-0.38672 1.8917,-0.21799 0.40977,0.16871 1.03638,0.0435 1.47982,0.13115 0.44349,0.0868 1.88869,-0.25747 2.39392,-0.41359 0.50523,-0.15612 1.53895,-1.78104 1.57092,-2.97558 0.032,-1.19459 0.71517,-3.27166 0.74514,-3.94946 0.0302,-0.67778 0.24909,-1.48867 0.74766,-2.28017 0.49857,-0.79149 2.11925,-0.90947 2.42219,-2.20331 0.30294,-1.29383 -0.058,-2.42048 -0.058,-2.42048 z m -10.20396,6.00601 c 0.0977,-0.007 0.19837,-0.002 0.31046,0.002 0,0 -0.34121,0.22351 -0.47622,0.55129 -0.13507,0.32774 -0.18643,0.17244 -0.36964,0.38453 -0.18321,0.21206 -0.66827,0.64462 -0.60365,0.4412 0.0643,-0.20355 0.0327,-0.63811 0.44159,-1.02566 0.28108,-0.26642 0.48256,-0.33904 0.69748,-0.3541 z" /><path
         id="path12-3"
         style="fill:#4d0000;fill-opacity:1;stroke:none;stroke-width:0.3;stroke-linecap:square;stroke-dasharray:none;stroke-opacity:1;paint-order:markers stroke fill"
         d="m 183.38148,119.77425 c -0.19051,-0.005 -0.35392,0.005 -0.47705,0.0343 -0.49254,0.1159 -1.25789,0.11442 -1.25789,0.11442 0,0 -0.42408,1.61516 -0.95952,1.90298 -0.53545,0.28782 -2.33822,2.35975 -2.46367,2.8061 -0.12546,0.44635 -0.56728,3.17406 -0.76707,3.72121 -0.1998,0.54721 -1.01757,2.38706 -1.01757,2.38706 l 5.2e-4,2e-5 c 0.21512,0.60159 0.2448,0.70739 0.68951,0.86756 0.44471,0.16016 1.04621,-0.0551 1.28264,0.0952 0.23644,0.15032 0.73049,-1.4e-4 0.73049,-1.4e-4 0,0 -0.001,0.76522 -0.3813,0.71247 -0.38019,-0.0528 -0.10774,-0.66585 -0.66478,-0.65737 -0.55705,0.009 -0.73405,0.0697 -1.10248,0.50459 -0.36845,0.43486 -0.25745,1.03119 -0.0705,1.49229 0.18696,0.46111 0.54067,0.33855 0.50788,1.03281 -0.42805,2.9654 0.15615,0.78207 2.37299,2.06038 0.50593,0.33701 1.05757,0.43304 1.78982,0.39804 0.73225,-0.035 1.85157,-0.15636 2.03661,-0.39115 0.18504,-0.23473 0.74812,-1.11251 0.94492,-0.85968 0.1968,0.25283 -0.0246,0.52032 -0.0246,0.52032 l 0.36377,-0.33048 c 0,0 1.04608,-0.055 1.45772,0.0688 0.41164,0.12382 1.0004,0.18643 1.02855,0.32691 0.0282,0.1405 -0.0101,0.20839 -0.76888,0.0682 -0.75876,-0.14021 -1.58534,-0.31874 -1.94231,-0.12687 -0.35696,0.19187 -0.5169,0.63675 -0.39116,0.92101 0.12573,0.28426 1.01957,-0.23017 1.59657,0.0754 0.57701,0.30557 1.22663,0.54488 1.66642,0.80918 0.43981,0.26431 1.90613,0.15961 2.45825,0.25527 0.55213,0.0957 0.85488,0.31872 2.01545,0.79102 1.16056,0.47228 7.3249,1.80731 10.32162,1.70531 2.99677,-0.10199 5.13833,-1.25349 5.75469,-1.78102 0.61634,-0.52753 0.75509,-1.25162 1.71037,-1.58919 0.95527,-0.33758 2.74853,-0.73997 3.12217,-0.54837 0.37364,0.19159 1.97731,0.12813 2.15907,-0.0372 0.18176,-0.16537 -0.0367,-0.69716 1.14853,-0.74556 1.18516,-0.0484 2.03587,-0.39132 2.95644,-0.73053 0.92057,-0.33922 1.57494,-0.93432 1.59626,-1.38559 0.0213,-0.45126 0.15494,-1.07096 -0.0634,-1.60313 -0.2184,-0.53216 -0.88482,-1.88612 -1.06686,-2.45136 -0.18205,-0.56524 -0.16092,-1.74678 -0.34789,-2.20789 -0.18697,-0.46104 -0.2072,-0.77534 -1.23576,-1.83284 -1.02855,-1.05749 -1.47182,-1.98289 -1.60083,-2.19773 -0.12901,-0.21483 0.2691,-0.54368 0.59328,-0.0413 0.32418,0.50237 1.15913,1.2374 1.61888,1.81575 0.45968,0.57836 1.09965,1.02611 1.60067,1.46725 0.50101,0.44115 1.37927,1.00427 1.79939,1.68512 0.42012,0.68086 1.90464,1.65583 2.32804,2.26726 0.4234,0.61143 1.71096,0.60268 1.80035,0.92001 0.0894,0.31734 0.71777,0.27743 0.90282,0.0426 0.18504,-0.23479 -2.01071,-1.62565 -2.39939,-2.23544 -0.38869,-0.6098 -0.60204,-1.24652 -0.93278,-1.61005 -0.33072,-0.36352 -1.50435,-0.55776 -2.20544,-1.18231 -0.70111,-0.62449 -1.63268,-2.26896 -2.44448,-2.75957 -0.81178,-0.49062 -1.97095,-1.72815 -3.14135,-1.99217 -1.1704,-0.26402 -1.40994,-0.3449 -3.26939,-0.0153 -1.85945,0.32967 -3.10591,0.93159 -4.16532,1.26425 -1.05942,0.33265 -2.51678,0.99432 -4.05235,1.09575 -1.53556,0.10142 -2.16374,0.14147 -2.92743,0.1054 -0.76368,-0.0361 -1.69444,-0.21906 -2.4912,-0.29148 -0.79669,-0.0725 -1.11384,0.0166 -1.32376,0.0415 -0.20992,0.0248 -0.38211,-0.0179 -0.35888,0.22672 0.0232,0.24462 -0.019,1.87783 -0.27836,2.21349 -0.25939,0.33565 -0.46262,0.9523 -0.72528,1.35738 -0.26266,0.40508 -0.34509,0.6794 -0.63754,0.97871 -0.29247,0.29929 -0.85281,0.37721 -0.85281,0.37721 l -0.24477,0.0236 c 0,0 0.25822,-0.30132 0.77037,-0.83377 0.51221,-0.53246 1.13312,-1.16407 1.3146,-2.06005 0.18147,-0.89596 0.22739,-1.86786 0.23886,-2.11085 0.0115,-0.24299 -0.32393,-0.50211 -0.32393,-0.50211 0,0 -1.06126,-0.36324 -1.54232,-0.49034 -0.48107,-0.12709 -0.82657,-0.1782 -0.82657,-0.1782 0,0 -0.25624,0.2661 -0.1387,0.72393 0.11754,0.45782 -0.11543,0.96876 -0.16984,1.38362 -0.0544,0.41491 -0.17632,0.79187 -0.26705,1.23987 -0.0907,0.44798 -0.17821,0.82657 -0.31706,0.82001 -0.13886,-0.007 -0.0897,-1.04824 -0.0634,-1.60364 0.0262,-0.5554 0.16971,-1.38331 0.22246,-1.76345 0.0389,-0.2802 0.0827,-0.58834 0.11508,-0.81507 -0.0195,-0.008 -0.0436,-0.0244 -0.0741,-0.0531 -0.23315,-0.21976 -0.7559,-0.2094 -0.8584,-0.24904 -0.1025,-0.0397 0.0566,0.28101 0.009,0.55708 -0.0479,0.27606 0.007,0.59179 -0.12874,1.2464 -0.1353,0.65463 -0.18462,0.96519 -0.23573,1.31067 -0.0512,0.34549 -0.29382,1.06454 -0.22574,1.83314 0.0681,0.76861 -0.21099,1.52073 -0.37116,1.96544 -0.16015,0.44465 -0.25091,0.89273 -0.4887,1.50772 -0.23779,0.615 -0.35645,0.92279 -0.5415,1.15759 -0.18503,0.23479 -0.0282,-0.14077 0.023,-0.48625 0.0511,-0.3455 0.23917,-0.64949 0.54803,-1.29592 0.30885,-0.64643 0.61102,-1.15406 0.54296,-1.92267 -0.0681,-0.76859 -0.0651,-2.29929 0.062,-2.78036 0.12703,-0.48106 0.17833,-0.82658 0.32181,-1.65478 0.14349,-0.82819 0.19106,-1.10429 -0.004,-1.39183 -0.19516,-0.28754 -0.50116,-0.44117 -0.50116,-0.44117 l -0.11524,0.23823 c 0,0 -0.0976,0.58672 -0.076,0.86606 0.0216,0.27934 0.0286,0.87114 -0.0936,1.24805 -0.12218,0.37693 -0.50552,1.12426 -0.60609,1.78052 -0.10058,0.65627 -0.24872,1.58853 -0.31458,2.24643 -0.0659,0.65791 -0.25433,0.96217 -0.44757,1.37051 -0.19324,0.40836 -0.33018,1.09774 -0.48215,1.36888 -0.15196,0.27115 -0.84297,0.16919 -0.84297,0.16919 0,0 0.48762,-0.74265 0.82628,-1.2833 0.33864,-0.54065 0.58151,-0.52921 0.64902,-1.22183 0.0676,-0.69261 0.18133,-1.62649 0.21084,-2.25133 0.0295,-0.62482 0.40752,-1.26784 0.44195,-1.99675 0.0344,-0.72897 0.0921,-1.21322 0.21919,-1.69429 0.12708,-0.48106 0.38335,-0.74744 0.14854,-0.93248 -0.23479,-0.18504 -1.99898,-1.13828 -2.71314,-1.48512 -0.71422,-0.34685 -2.17921,-1.00723 -3.10991,-1.19035 -0.69802,-0.13735 -1.5132,-0.28059 -2.08494,-0.29455 z m 10.31308,3.75927 c 0.12987,0.0538 0.0412,-0.29087 0.0412,-0.29087 0,0 -0.0296,0.20995 -0.0412,0.29087 z m 19.99149,1.59035 c 0,0 0.0616,0.17701 -0.13491,0.65479 -0.19652,0.47784 -0.24822,0.0928 -0.6497,0.49131 -0.40152,0.39852 -0.60952,1.11907 -1.03428,1.27296 -0.42475,0.15389 -0.59959,0.18043 -0.81114,0.24002 -0.21156,0.0596 -0.88395,1.03665 -1.18462,1.50952 -0.30065,0.47286 -0.83612,1.49168 -0.95693,1.10329 -0.12082,-0.3884 -0.0449,-0.52425 0.20953,-0.75576 0.25446,-0.23152 0.42146,-0.81521 0.80823,-0.90132 0.38675,-0.0861 0.19828,-0.51224 0.41147,-0.60655 0.2132,-0.0943 0.39472,-0.2597 0.51197,-0.53248 0.11726,-0.27274 1.2196,-0.77715 1.45739,-1.39213 0.23778,-0.615 1.37299,-1.08365 1.37299,-1.08365 z m 2.47776,0.45536 c 0.11242,0.002 0.22174,0.0378 0.31311,0.12912 0.36545,0.36517 0.27076,0.15196 0.36179,0.43458 0.091,0.28263 0.0846,0.42112 -0.0788,0.93525 -0.16344,0.51415 -0.63907,1.01369 -0.82739,1.31791 -0.18832,0.30422 -0.69957,0.0713 -0.5774,-0.3056 0.12217,-0.37693 0.79823,-0.69319 0.84774,-1.00396 0.0494,-0.31078 0.16181,-0.47931 0.17984,-0.86115 0.018,-0.38185 -0.25943,-0.39495 -0.47262,-0.30065 -0.2132,0.0943 -0.71927,0.48791 -1.053,0.92442 -0.33373,0.43651 -0.28538,0.89136 -0.54804,1.29644 -0.26266,0.40507 -0.79821,0.69279 -0.84609,0.96885 -0.0479,0.27606 0.11591,0.49242 -0.0279,0.59 -0.14377,0.0976 -0.45418,0.0481 -0.8177,0.37888 -0.16707,0.15199 -0.38782,0.40155 -0.55176,0.59733 -0.0527,0.0815 -0.10289,0.15418 -0.14728,0.20464 -0.15895,0.18052 -0.0456,0.0256 0.14728,-0.20464 0.29647,-0.45826 0.70261,-1.3247 0.98731,-1.72474 0.33538,-0.47122 0.76522,-0.7294 1.13365,-1.16427 0.36845,-0.43488 0.47555,-0.49916 0.52835,-0.87937 0.0528,-0.38019 0.38651,-0.81686 0.74511,-1.04346 0,0 0.36652,-0.29572 0.7038,-0.28958 z m -1.73184,-0.0373 c 0,0 0.16208,0.25107 -0.32525,0.99345 -0.48733,0.74237 -1.14524,1.40715 -1.26578,1.74936 -0.12052,0.34221 -0.45539,0.81335 -0.74129,0.9738 -0.2859,0.16045 -1.50361,1.63377 -1.91005,2.13642 -0.40643,0.50266 -1.42459,1.42873 -1.23955,1.19394 0.18505,-0.23479 0.013,-0.27747 0.48721,-0.74214 0.47422,-0.46466 1.18149,-1.44048 1.43596,-1.672 0.25446,-0.23151 0.72008,-1.253 1.08197,-1.54903 0.36188,-0.29601 1.05929,-1.06317 1.28888,-1.5046 0.22959,-0.44143 1.1879,-1.5792 1.1879,-1.5792 z m 0.65739,3.60691 c 0.0547,0.0116 0.023,0.17155 -0.018,0.52839 -0.0593,0.51905 -0.59833,0.87658 -0.81972,1.14444 -0.22139,0.26788 -0.43131,0.29238 -1.02934,1.16868 -0.59804,0.8763 -0.96286,1.2422 -1.0238,1.79597 -0.061,0.55376 -0.46081,0.9172 -0.46081,0.9172 0,0 0.0738,-0.83112 0.27195,-1.34361 0.19814,-0.5125 0.78789,-1.21555 0.80428,-1.56267 0.0164,-0.34713 -0.30068,-0.25775 -0.0363,-0.69754 0.2643,-0.43979 0.23756,-0.61502 0.64427,-0.38707 0.40672,0.22796 0.511,0.23301 0.80673,-0.13572 0.29574,-0.36872 -0.13571,-0.80673 0.14855,-0.93247 0.28427,-0.12573 0.57673,-0.42492 0.57673,-0.42492 0.0676,-0.0512 0.11041,-0.0761 0.13525,-0.0707 z m -21.78447,-0.46446 c 0,0 0.20664,0.0446 0.26459,0.29083 0.0579,0.24626 -0.007,0.1386 -0.14689,0.89737 -0.1402,0.75876 -0.26581,0.4744 -0.35327,0.85296 -0.0875,0.37856 -0.40959,1.3028 -0.75807,2.05166 -0.34848,0.74893 -0.59069,1.46826 -0.76426,1.46006 -0.17357,-0.008 0.12705,-0.48108 0.1782,-0.82657 0.0511,-0.34549 0.37613,-0.60837 0.61556,-1.25807 0.23943,-0.64971 0.39988,-1.09445 0.56496,-1.6433 0.16502,-0.54885 0.37786,-1.37367 0.39918,-1.82494 z m 1.40971,1.46857 c 0.14068,0.007 0.29166,0.0794 0.28704,0.17704 -0.008,0.17352 -0.17493,0.75729 -0.34166,1.34084 -0.16671,0.58357 -0.90029,2.11402 -1.02739,2.59508 -0.12709,0.48106 -0.17468,0.75729 -0.37804,0.64332 -0.20336,-0.11398 -0.0388,-1.39336 0.28836,-1.69102 0.32717,-0.29766 0.6061,-1.78066 0.76298,-2.15594 0.15689,-0.37528 0.17655,-0.79147 0.17655,-0.79147 0.0195,-0.0904 0.12275,-0.12368 0.23216,-0.11785 z" /><path
         style="fill:#4d0000;fill-opacity:1;stroke:none;stroke-width:0.3;stroke-linecap:square;stroke-dasharray:none;stroke-opacity:1;paint-order:markers stroke fill"
         d="m 182.37245,138.22663 -0.27801,-0.17376 c 0,0 -0.13901,-0.139 -0.24326,0.24326 -0.10425,0.38227 -0.66028,1.63332 -0.69503,2.11985 -0.0348,0.48652 -0.66028,0.86878 -0.76453,1.2163 -0.10426,0.34752 -0.79929,0.90354 -0.79929,0.90354 0,0 -0.24326,0.17376 0.17376,0.41702 0.41702,0.24326 1.35531,0.20851 1.73757,0.59078 0.38227,0.38226 0.69504,0.52127 0.76454,0.76453 0.0695,0.24326 0.0695,0.41702 -0.24326,0.24326 -0.31277,-0.17376 -0.97305,-0.86879 -1.49432,-0.97304 -0.52127,-0.10426 -0.97304,-0.76454 -1.2163,-0.55603 -0.24326,0.20851 -0.31277,0.69503 -0.48652,0.90354 -0.17376,0.20851 -0.20851,0.69503 -0.0348,0.86879 0.17375,0.17376 0.62552,0 1.07729,0.24326 0.45177,0.24326 0.72978,0.13901 1.0078,0.45177 0.27801,0.31276 0.45177,0.83404 0.31276,0.69503 -0.13901,-0.13901 -0.76453,-0.76453 -1.2163,-0.93829 -0.45177,-0.17376 -1.42482,-0.52127 -1.63333,-0.38227 -0.2085,0.13901 -0.62552,0.48652 -1.00779,0.76454 -0.38227,0.27801 -0.69503,1.00779 -0.83404,1.42481 -0.139,0.41702 -0.0347,0.27801 0.52128,0.72978 0.55602,0.45177 1.59857,0.90354 2.01559,1.11205 0.41701,0.20851 1.1468,0.27801 1.45956,0 0.31276,-0.27801 0.97304,-0.69503 1.18155,-1.49432 0.20851,-0.79928 0.31277,-1.32055 0.48652,-1.66807 0.17376,-0.34751 0.31277,-0.59077 0.52128,-0.86879 0.2085,-0.27801 0.38226,-1.1468 0.55602,-1.35531 0.17376,-0.2085 1.39006,-1.11205 1.87658,-1.70282 0.48652,-0.59078 1.0078,-1.28581 1.28581,-1.63332 0.27801,-0.34752 0.83404,-0.59078 1.0773,-1.11205 0.24326,-0.52127 0.72978,-0.62553 0.34751,-1.1468 -0.38227,-0.52127 -3.85742,-1.11205 -4.37869,-0.83404 -0.52127,0.27801 -1.0773,1.1468 -1.0773,1.1468 z"
         id="path18-0" /><path
         style="fill:#4d0000;fill-opacity:1;stroke:none;stroke-width:0.3;stroke-linecap:square;stroke-dasharray:none;stroke-opacity:1;paint-order:markers stroke fill"
         d="m 212.7706,135.31067 c 0,0 1.42481,1.2858 1.70283,1.73757 0.27801,0.45177 1.87658,1.52907 1.91133,1.94609 0.0348,0.41702 0.17376,2.57161 0.17376,2.78012 0,0.20851 0.0695,1.91133 0,2.2936 -0.0695,0.38227 -0.24326,1.28581 -0.34752,1.80708 -0.10425,0.52127 0.97304,1.39006 1.32056,1.66807 0.34752,0.27801 2.18935,-0.139 2.95388,-0.79928 0.76453,-0.66028 0.62553,-2.05034 0.52127,-2.39786 -0.10425,-0.34751 -0.27801,-1.25105 -0.27801,-1.80708 0,-0.55602 0.52127,-2.64111 0.48652,-3.26664 -0.0348,-0.62553 -0.17375,-1.94609 -0.41702,-2.39786 -0.24326,-0.45176 -1.04254,-1.56381 -1.39006,-1.80707 -0.34751,-0.24327 -1.2163,-0.97305 -1.2163,-0.97305 0,0 -3.4404,-0.31276 -3.64891,0.0348 -0.20851,0.34752 -2.11985,0.20852 -2.11985,0.20852 z"
         id="path20-5" /><path
         style="fill:#4d0000;fill-opacity:1;stroke:none;stroke-width:0.3;stroke-linecap:square;stroke-dasharray:none;stroke-opacity:1;paint-order:markers stroke fill"
         d="m 217.90973,126.80306 c 0,0 1.47439,3.63681 1.76926,5.30777 0.29488,1.67097 1.2778,1.08121 0.78634,2.35901 -0.49146,1.2778 -1.47438,2.35902 -1.47438,2.35902 0,0 1.17951,1.67097 0.19658,4.02998 -0.37993,0.91184 -2.5556,2.4573 -2.65389,3.34193 -0.0983,0.88463 -2.06413,2.4573 -2.55559,2.94876 -0.49147,0.49146 -0.98293,0.0983 -1.08122,0.78634 -0.0983,0.68805 -1.76926,1.08122 -2.94877,0.49147 -1.1795,-0.58976 0,-2.06414 0.49146,-2.45731 0.49147,-0.39317 0.58976,-0.58975 0.58976,-0.58975 0,0 0.68804,0.29487 1.08121,0.58975 l 0.39317,0.29487 c 0,0 0.29488,-0.78633 -0.29488,-1.1795 -0.58975,-0.39317 -1.08121,-0.39317 -1.08121,-0.39317 0,0 0.19658,-1.96584 1.37609,-1.96584 1.17951,0 1.96585,-0.78634 1.37609,-1.67097 -0.58975,-0.88463 -2.85047,-2.94877 -2.75218,-3.63681 0.0983,-0.68805 3.04706,-0.58975 4.42315,-3.53852 1.37609,-2.94876 2.35901,-7.07703 2.35901,-7.07703 z"
         id="path24-8" /><path
         style="opacity:1;fill:#4d0000;fill-opacity:1;stroke:none;stroke-width:0.3;stroke-linecap:square;stroke-dasharray:none;stroke-opacity:1;paint-order:markers stroke fill"
         d="m 180.42931,136.6026 c -1.2778,0.29488 -1.67097,0.98292 -1.67097,1.67097 0,0.68804 -0.19658,2.06413 0.78634,2.5556 0.98292,0.49146 2.26072,1.08121 2.26072,1.08121 0,0 1.76926,1.08121 2.75218,1.1795 0.98292,0.0983 2.16243,-1.1795 2.16243,-1.76925 0,-0.58976 0,-2.16243 0,-2.16243 0,0 -2.26072,-0.0983 -2.65389,-0.39317 -0.39317,-0.29488 -0.19659,0.29487 -0.78634,-0.98292 -0.58975,-1.2778 -2.85047,-1.17951 -2.85047,-1.17951 z"
         id="path26" /></g></g></svg>
