<?xml version="1.0" encoding="UTF-8" standalone="no"?>
<!-- Created with Inkscape (http://www.inkscape.org/) -->

<svg
   width="80mm"
   height="50mm"
   viewBox="0 0 80 50"
   version="1.1"
   id="svg1"
   xml:space="preserve"
   xmlns="http://www.w3.org/2000/svg"
   xmlns:svg="http://www.w3.org/2000/svg"><defs
     id="defs1" /><g
     id="layer1"
     transform="translate(-73.81875,-108.47916)"><g
       id="g26"
       transform="translate(79.375004)"><path
         style="fill:#4d0000;fill-opacity:1;stroke-width:1;stroke-linecap:square;paint-order:markers stroke fill"
         d="m 23.042108,121.28643 c 0,0 -0.592273,-0.87745 -0.3873,-1.32412 0.204993,-0.44667 -0.09418,-2.29272 -0.548782,-2.99883 -0.173756,-0.3559 -0.504295,-0.56878 -0.629992,-0.32822 -0.125687,0.24056 -0.600121,0.84109 -0.606401,1.30469 -0.0063,0.4636 -0.09066,0.73076 -0.11901,1.09248 -0.02834,0.3617 -0.02901,1.17966 -0.147355,1.45418 -0.118342,0.27452 0.145356,0.99967 0.162875,1.24478 0.01747,0.24511 0.01747,0.24511 0.01747,0.24511 0,0 0.340714,0.42402 0.650936,0.21462 0.310229,-0.2094 0.183457,-0.46641 0.183457,-0.46641 0,0 -0.383766,-0.13024 -0.442602,-0.40195 -0.05884,-0.27171 -0.01404,-0.88589 -0.04627,-1.19892 -0.03218,-0.31305 0.01082,-0.60681 0.07314,-0.97588 0.06232,-0.36906 0.40089,-0.94017 0.507322,-1.10544 0.106445,-0.16528 0.05042,-0.25982 0.05042,-0.25982 0,0 -0.05322,0.0826 0.102964,0.4755 0.15618,0.39287 0.265423,0.40477 0.169156,0.78119 -0.09628,0.37641 -0.118343,0.27452 -0.158595,0.74548 -0.04024,0.47095 -0.258739,0.44714 -0.119002,1.09247 0.139737,0.64532 0.07742,1.01439 0.349135,0.95555 0.271722,-0.0588 0.938388,-0.54645 0.938388,-0.54645 z"
         id="path5-7" /><path
         id="path6-5"
         style="fill:#4d0000;fill-opacity:1;stroke:none;stroke-width:1.14054;stroke-linecap:square;stroke-opacity:1;paint-order:markers stroke fill"
         d="m 22.465257,120.73139 c -0.0017,10e-4 -0.930247,0.6099 -1.110526,0.93713 -0.180421,0.32753 -1.080418,0.82958 -1.449246,1.30755 -0.368804,0.47795 -1.103443,1.11472 -1.6227,1.40427 -0.519247,0.28956 -1.511165,1.11449 -1.872657,1.36147 -0.361452,0.24697 -0.676381,0.74026 -0.798886,1.17163 -0.122519,0.43136 -0.743352,2.00309 -0.762001,2.37656 -0.01866,0.37345 -0.563849,1.26731 -0.582503,1.64076 -0.01866,0.37346 -0.05269,0.80076 -0.4255,1.19016 -0.372802,0.38942 -1.041208,1.30713 -1.479263,1.82367 -0.438043,0.51658 -0.933514,1.33746 -1.102604,1.52253 -0.169094,0.18506 -0.291487,0.61604 -0.291487,0.61604 0,0 -1.4824357,-0.21716 -2.1754221,-0.23915 -0.6929877,-0.022 -1.9796724,-0.61992 -2.7079244,-1.03066 -0.728262,-0.41077 -1.808132,-1.53368 -2.120339,-1.76803 -0.312205,-0.23433 -0.531808,-0.38368 -0.531808,-0.38368 0,0 -0.231477,-0.008 0.0042,0.49639 0.235642,0.50394 1.300476,1.6801 1.624659,2.18006 0.324179,0.49996 1.872957,1.40608 2.370221,1.80951 0.4972557,0.40341 1.8035381,1.03684 2.1503578,1.25187 0.346822,0.21503 -0.01853,0.37339 -0.01853,0.37339 0,0 0.7407817,1.08456 0.8066737,1.36549 0.06594,0.2809 0.328871,0.99607 0.467988,1.3269 0.139121,0.33085 0.258969,0.62746 0.597804,0.6654 0.338844,0.038 0.511156,-0.46658 0.511156,-0.46658 0,0 0.02115,-1.10115 0.282772,-1.20165 0.261383,-0.10121 0.624088,0.0603 0.624088,0.0603 0,0 -0.399968,0.17797 -0.515112,0.3784 -0.115177,0.20036 -0.28723,1.11288 -0.156086,1.26668 l 0.131225,0.15424 c 0,0 0.504735,0.17235 0.75105,0.12577 0.246401,-0.0462 0.65002,-0.13564 0.973468,-0.0442 0.323527,0.0919 0.468938,-0.62458 0.468938,-0.62458 0,0 -0.601839,-0.7534 -0.818179,-1.22274 -0.216332,-0.46932 -0.501719,-0.9 -0.671464,-1.12302 -0.169752,-0.22302 -0.424696,-0.76128 -0.682978,-0.9803 -0.25829,-0.21904 -0.581914,-0.31105 -1.07518,-0.62593 -0.493268,-0.31488 -0.905012,-0.40282 -0.258621,-0.62712 0.646381,-0.22438 0.808243,0.22953 1.10114,0.42924 0.292911,0.19975 0.582221,0.31103 0.55559,0.50741 -0.02663,0.19639 0.200973,0.52313 0.405327,0.72686 0.204357,0.2037 0.536287,0.88089 0.763944,1.20777 0.227651,0.32685 0.382963,1.01162 0.783684,1.24197 0.400746,0.23035 0.850545,-0.0201 0.850545,-0.0201 0,0 0.218958,-0.25843 0.280211,-0.4741 0.06125,-0.2157 0.307769,-0.26252 -0.0045,-0.49691 -0.3122,-0.23432 -0.790315,-0.6031 -0.937422,-1.11104 -0.147105,-0.50792 -0.274172,-0.57274 -0.486523,-0.95353 -0.21234,-0.38078 -0.894047,-0.54526 -1.171633,-0.7989 -0.277591,-0.25364 -0.520327,-0.52707 -0.605529,-0.84262 -0.0852,-0.31554 -0.201247,-0.52298 -0.336345,-0.7653 -0.135122,-0.24232 -0.354744,-0.39232 -0.108435,-0.43892 0.246402,-0.0462 0.504553,0.17265 0.678294,0.48421 0.173734,0.31155 0.55969,1.00366 0.871899,1.238 0.312198,0.23432 0.408962,0.40783 0.83699,0.84985 0.428027,0.44204 0.513962,1.1655 0.756931,1.43845 0.242972,0.27295 0.629008,0.96518 0.913922,0.98781 0.284912,0.0226 0.442774,-0.0198 0.611851,-0.20493 0.169098,-0.18504 -0.07822,-0.54686 -0.07822,-0.54686 0,0 -0.551579,-0.82666 -0.613478,-1.01904 -0.06192,-0.19239 0.02591,-0.60428 -0.44806,-0.88455 -0.473969,-0.28028 -0.620499,-0.37997 -0.725,-0.73013 -0.104513,-0.35016 -0.0542,-0.42361 -0.566774,-0.77312 -0.512572,-0.3495 -0.589939,-0.48792 -0.860196,-0.97255 -0.270265,-0.48465 -0.717757,-0.96159 -0.717757,-0.96159 0,0 -0.296739,-0.28801 0.376918,-0.30069 0.673692,-0.0126 0.770286,0.16027 0.770286,0.16027 0,0 -0.165229,0.27369 -0.0108,0.55063 0.154435,0.27693 0.266153,0.39618 0.63627,0.73437 0.370121,0.3382 0.983215,0.94902 1.053099,1.31848 0.06988,0.36948 0.189453,0.66588 0.471038,1.00806 0.281577,0.34218 0.586528,0.80734 0.818181,1.22275 0.231645,0.41539 0.293639,0.60794 0.582542,0.7191 0.288912,0.11119 0.610581,-1.02105 0.918136,-1.28333 0.307573,-0.26227 1.180216,-0.97616 1.622884,-0.99614 0.442701,-0.0199 0.957974,-0.39782 1.396865,-0.50581 0.438699,-0.1085 1.603476,-1.03067 1.995581,-1.38547 0.39211,-0.3548 0.643305,-2.26419 0.168031,-3.3606 -0.475309,-1.09642 -0.732724,-3.26777 -0.99167,-3.89487 -0.259005,-0.62706 -0.402587,-1.45468 -0.284724,-2.38266 0.117858,-0.92797 1.537269,-1.71907 1.265721,-3.01985 -0.27154,-1.30079 -1.074329,-2.16977 -1.074329,-2.16977 z m -6.714988,9.75202 c 0.08572,-0.0475 0.179223,-0.085 0.282565,-0.12861 0,0 -0.214964,0.34664 -0.199004,0.7008 0.0159,0.35413 -0.09622,0.23501 -0.172777,0.50461 -0.07656,0.2696 -0.333693,0.86649 -0.360988,0.65479 -0.02733,-0.21168 -0.239655,-0.5923 -0.03264,-1.1162 0.142347,-0.36017 0.294347,-0.51106 0.482807,-0.61543 z" /><path
         id="path12-9"
         style="fill:#4d0000;fill-opacity:1;stroke:none;stroke-width:0.3;stroke-linecap:square;stroke-dasharray:none;stroke-opacity:1;paint-order:markers stroke fill"
         d="m 24.12628,120.9788 c -0.18932,0.0219 -0.349627,0.0552 -0.467452,0.1012 -0.471293,0.18414 -1.22922,0.2905 -1.22922,0.2905 0,0 -0.192285,1.6588 -0.681836,2.01919 -0.489552,0.36039 -1.982421,2.66566 -2.043729,3.12523 -0.06132,0.45957 -0.114411,3.22233 -0.235124,3.79216 -0.120703,0.56991 -0.671092,2.50662 -0.671092,2.50662 l 5.18e-4,-5e-5 c 0.297732,0.56528 0.342024,0.66584 0.804864,0.76176 0.462835,0.0959 1.028008,-0.20199 1.283263,-0.0864 0.255253,0.11551 0.723184,-0.10306 0.723184,-0.10306 0,0 0.106724,0.75774 -0.27712,0.75909 -0.383839,0.001 -0.200477,-0.64403 -0.750766,-0.55715 -0.550294,0.0869 -0.716902,0.17243 -1.020389,0.65489 -0.303501,0.48243 -0.109588,1.05717 0.140478,1.48734 0.250063,0.43016 0.582973,0.25899 0.648327,0.95094 0.06536,0.69196 -0.127782,1.23422 0.0087,1.57039 0.136465,0.33618 0.446645,-0.0771 0.947353,0.0502 0.500703,0.12724 1.135196,-0.17743 1.683567,0.0849 0.54837,0.26237 1.108041,0.27971 1.828052,0.1419 0.720009,-0.13782 1.811065,-0.41568 1.961181,-0.6742 0.150122,-0.25846 0.583911,-1.20681 0.814371,-0.98424 0.23046,0.22258 0.04898,0.5186 0.04898,0.5186 l 0.313585,-0.37844 c 0,0 1.027899,-0.2018 1.452874,-0.13722 0.424976,0.0646 1.016686,0.0436 1.064352,0.17873 0.04772,0.13512 0.01934,0.20774 -0.751605,0.17584 -0.770947,-0.0319 -1.614433,-0.0922 -1.940808,0.14805 -0.326365,0.24026 -0.422025,0.70323 -0.25749,0.96694 0.164526,0.26371 0.976965,-0.37152 1.591268,-0.15029 0.614304,0.22122 1.291165,0.36662 1.763804,0.56632 0.472652,0.19971 1.909596,-0.11054 2.469689,-0.0936 0.560101,0.0169 0.891263,0.19509 2.10679,0.49916 1.215524,0.30407 7.506467,0.75725 10.458922,0.23406 2.952512,-0.52321 4.910469,-1.96495 5.446349,-2.57406 0.535866,-0.60911 0.571208,-1.34552 1.469396,-1.81432 0.898188,-0.4688 2.616856,-1.11983 3.013771,-0.98279 0.396904,0.13704 1.975632,-0.15174 2.132289,-0.34102 0.156651,-0.18933 -0.134512,-0.68505 1.03203,-0.89995 1.166512,-0.21489 1.960425,-0.67425 2.824018,-1.13978 0.863588,-0.46554 1.427589,-1.1469 1.385109,-1.59667 -0.04248,-0.44977 0.0025,-1.08211 -0.288688,-1.57819 -0.291197,-0.49609 -1.14173,-1.74265 -1.401599,-2.2766 -0.259866,-0.53396 -0.405423,-1.70669 -0.65549,-2.13685 -0.25006,-0.4301 -0.314376,-0.73841 -1.481666,-1.64045 -1.16729,-0.90202 -1.736517,-1.75574 -1.894508,-1.95026 -0.158,-0.19451 0.189814,-0.57617 0.581527,-0.12453 0.391728,0.45169 1.321913,1.06174 1.85856,1.56955 0.536589,0.50783 1.233256,0.86094 1.791428,1.22709 0.558173,0.36616 1.507014,0.79992 2.018868,1.41479 0.511854,0.61487 2.11894,1.37096 2.624259,1.91664 0.505316,0.54567 1.778806,0.3556 1.912013,0.65717 0.133198,0.30158 0.749699,0.17354 0.899815,-0.085 0.150117,-0.25853 -2.219691,-1.32614 -2.690412,-1.87509 -0.470723,-0.54895 -0.771654,-1.14927 -1.150312,-1.46257 -0.378647,-0.31329 -1.56793,-0.34024 -2.350027,-0.85977 -0.782102,-0.51948 -1.936071,-2.0163 -2.808893,-2.38764 -0.872815,-0.37135 -2.19478,-1.43322 -3.390701,-1.5297 -1.195921,-0.0965 -1.444465,-0.14281 -3.238923,0.44554 -1.794457,0.58836 -2.943671,1.3599 -3.945644,1.83851 -1.001986,0.47859 -2.351582,1.339 -3.857538,1.65577 -1.505955,0.31676 -2.122225,0.44491 -2.883377,0.5168 -0.761143,0.0719 -1.708404,0.0219 -2.507421,0.0624 -0.798948,0.0405 -1.100393,0.17334 -1.30471,0.22756 -0.204323,0.0542 -0.380823,0.0361 -0.323353,0.27502 0.05742,0.23892 0.245753,1.86178 0.03628,2.23063 -0.209505,0.36885 -0.323824,1.00798 -0.526793,1.44603 -0.20297,0.43805 -0.245922,0.72124 -0.49329,1.05877 -0.247379,0.33751 -0.791151,0.4936 -0.791151,0.4936 l -0.239011,0.0578 c 0,0 0.213192,-0.33469 0.645214,-0.93399 0.432081,-0.59932 0.957806,-1.31211 1.01124,-2.22472 0.05343,-0.91259 -0.03805,-1.88126 -0.06093,-2.12345 -0.02287,-0.24218 -0.391446,-0.45146 -0.391446,-0.45146 0,0 -1.101847,-0.21009 -1.596015,-0.26814 -0.494177,-0.058 -0.843435,-0.06 -0.843435,-0.06 0,0 -0.216191,0.29956 -0.03532,0.73625 0.180864,0.4367 0.02221,0.97537 0.02679,1.39375 0.0046,0.41844 -0.06299,0.80881 -0.0897,1.26513 -0.02671,0.45629 -0.05997,0.84343 -0.198361,0.8565 -0.138394,0.0131 -0.236454,-1.02515 -0.288736,-1.57871 -0.05228,-0.55356 -0.02688,-1.39342 -0.02823,-1.7772 -10e-4,-0.28288 -9.71e-4,-0.59413 -9.05e-4,-0.82315 -0.02047,-0.005 -0.0466,-0.018 -0.08082,-0.0422 -0.261786,-0.18471 -0.777862,-0.1008 -0.884929,-0.12561 -0.10706,-0.0248 0.09563,0.27024 0.08723,0.55028 -0.0085,0.28005 0.0899,0.58496 0.04815,1.25211 -0.04171,0.66716 -0.04679,0.98157 -0.04871,1.33081 -0.002,0.34925 -0.140901,1.09532 0.03479,1.84666 0.175678,0.75135 0.0054,1.53528 -0.09054,1.99812 -0.09591,0.46278 -0.122634,0.91918 -0.271401,1.56154 -0.148767,0.64237 -0.22288,0.96381 -0.372997,1.22233 -0.150106,0.25852 -0.04774,-0.13539 -0.04577,-0.48463 0.0019,-0.34924 0.145273,-0.67671 0.359975,-1.36021 0.214692,-0.68349 0.442331,-1.22863 0.266653,-1.97998 -0.175687,-0.75134 -0.388405,-2.26719 -0.330316,-2.76137 0.05799,-0.49416 0.0601,-0.84347 0.08546,-1.68361 0.02537,-0.84015 0.03357,-1.1202 -0.200201,-1.37737 -0.233728,-0.25717 -0.558324,-0.36615 -0.558324,-0.36615 l -0.08052,0.25208 c 0,0 -0.01395,0.59462 0.04674,0.86814 0.06079,0.2735 0.151087,0.85841 0.08319,1.24879 -0.06785,0.39038 -0.342079,1.18426 -0.349185,1.84815 -0.0071,0.66389 -0.02243,1.60772 0.0051,2.26834 0.02744,0.66063 -0.116226,0.9884 -0.250004,1.4199 -0.133778,0.43151 -0.172218,1.13331 -0.284471,1.42316 -0.112242,0.28986 -0.810724,0.28627 -0.810724,0.28627 0,0 0.37812,-0.80395 0.637221,-1.38692 0.259091,-0.58297 0.501151,-0.60586 0.470403,-1.30108 -0.03071,-0.69522 -0.04965,-1.63582 -0.108465,-2.25858 -0.05882,-0.62275 0.22483,-1.31262 0.156214,-2.0391 -0.06862,-0.72655 -0.07972,-1.21411 -0.02172,-1.70827 0.05804,-0.49417 0.274215,-0.794 0.01569,-0.94411 -0.258521,-0.15011 -2.139421,-0.84528 -2.895327,-1.08804 -0.755954,-0.24276 -2.29938,-0.69015 -3.246593,-0.74031 -0.710406,-0.0376 -1.537637,-0.0646 -2.105648,0.002 z m 10.739857,2.26872 c 0.13615,0.035 -2.24e-4,-0.29377 -2.24e-4,-0.29377 0,0 2.39e-4,0.21204 2.24e-4,0.29377 z m 20.016133,-1.24219 c 0,0 0.08594,0.16656 -0.04131,0.66726 -0.127236,0.50077 -0.232674,0.12684 -0.573998,0.57796 -0.341363,0.45111 -0.445773,1.19378 -0.844607,1.40598 -0.398834,0.2122 -0.568187,0.26311 -0.769238,0.35191 -0.201051,0.0888 -0.729075,1.15085 -0.960115,1.66137 -0.23103,0.5105 -0.617615,1.59461 -0.79194,1.22711 -0.174339,-0.3675 -0.118333,-0.51269 0.100952,-0.77775 0.219309,-0.26505 0.302407,-0.86645 0.67318,-1.0062 0.370764,-0.13973 0.124137,-0.53507 0.32191,-0.65847 0.197783,-0.1234 0.354194,-0.31272 0.43184,-0.5993 0.07766,-0.28655 1.097941,-0.94123 1.246709,-1.58359 0.148758,-0.64236 1.206618,-1.26628 1.206617,-1.26628 z m 2.517194,0.10172 c 0.11162,-0.0136 0.224858,0.006 0.328176,0.0837 0.413253,0.31004 0.289472,0.1123 0.419411,0.37928 0.129891,0.26699 0.143096,0.405 0.05375,0.93702 -0.08937,0.53204 -0.489867,1.09362 -0.633448,1.42134 -0.14358,0.32772 -0.682546,0.16917 -0.614703,-0.2212 0.06785,-0.39038 0.692603,-0.79874 0.69784,-1.11339 0.0051,-0.31464 0.09266,-0.49732 0.05671,-0.8779 -0.03594,-0.38057 -0.312484,-0.35446 -0.510268,-0.23106 -0.197782,0.1234 -0.64335,0.58438 -0.912245,1.06356 -0.268904,0.47918 -0.156945,0.92268 -0.359912,1.36072 -0.202971,0.43804 -0.69264,0.79835 -0.701145,1.0784 -0.0085,0.28005 0.184131,0.47117 0.05554,0.58804 -0.128581,0.11686 -0.442865,0.11164 -0.756157,0.49031 -0.143985,0.17401 -0.327381,0.45218 -0.4621,0.66911 -0.04069,0.0881 -0.08014,0.16714 -0.116977,0.22335 -0.131923,0.20112 -0.0415,0.0317 0.116977,-0.22335 0.228946,-0.49546 0.508968,-1.41048 0.734464,-1.84664 0.265636,-0.51378 0.654812,-0.82994 0.958302,-1.31239 0.303497,-0.48244 0.400473,-0.56118 0.399174,-0.94503 -0.0013,-0.38384 0.267561,-0.86317 0.590657,-1.13803 0,0 0.321208,-0.34442 0.655985,-0.38585 z m -1.719819,0.20703 c 0,0 0.19583,0.22574 -0.182035,1.02937 -0.37788,0.80362 -0.935558,1.55447 -1.006679,1.91025 -0.07111,0.35578 -0.33626,0.8694 -0.596699,1.06854 -0.26044,0.19913 -1.258425,1.82931 -1.589986,2.38422 -0.331551,0.5549 -1.209077,1.61519 -1.058963,1.35667 0.150116,-0.25852 -0.02624,-0.27654 0.377781,-0.80338 0.404021,-0.52685 0.966753,-1.59258 1.186061,-1.85764 0.219309,-0.26505 0.536362,-1.34196 0.852932,-1.68602 0.316561,-0.34405 0.898926,-1.20181 1.064032,-1.67118 0.165106,-0.46938 0.953556,-1.73083 0.953556,-1.73083 z m 1.159018,3.47831 c 0.0558,0.004 0.04697,0.16659 0.05668,0.52565 0.01437,0.52223 -0.468858,0.95214 -0.650299,1.24852 -0.181444,0.2964 -0.385817,0.35023 -0.854414,1.30205 -0.468606,0.95182 -0.778233,1.36547 -0.760545,1.9223 0.01764,0.55683 -0.326989,0.97298 -0.326989,0.97298 0,0 -0.04404,-0.83323 0.07993,-1.36853 0.123965,-0.5353 0.608771,-1.31443 0.576094,-1.6604 -0.03268,-0.34598 -0.334001,-0.21281 -0.134249,-0.68546 0.199702,-0.47264 0.148538,-0.64235 0.583306,-0.47398 0.434779,0.16838 0.538729,0.15869 0.779562,-0.24803 0.240831,-0.40671 -0.248022,-0.77956 0.01568,-0.9441 0.263718,-0.16452 0.511106,-0.50194 0.511106,-0.50194 0.05971,-0.0602 0.09859,-0.0909 0.123946,-0.089 z m -21.632595,2.60947 c 0,0 0.210868,0.015 0.30293,0.25065 0.09207,0.23565 0.01292,0.13816 -0.01899,0.90911 -0.0319,0.77095 -0.196324,0.50713 -0.229569,0.89423 -0.03325,0.38711 -0.221947,1.34751 -0.461438,2.138 -0.239484,0.79056 -0.377935,1.53684 -0.550925,1.55318 -0.17299,0.0163 0.058,-0.49419 0.05997,-0.84344 0.0019,-0.34923 0.286663,-0.65529 0.432163,-1.33225 0.1455,-0.67696 0.241689,-1.13986 0.327789,-1.7065 0.08605,-0.56662 0.180553,-1.41321 0.138073,-1.86298 z m 1.602567,1.2553 c 0.140324,-0.0124 0.299921,0.0375 0.309117,0.13484 0.01633,0.17294 -0.06649,0.77438 -0.149333,1.3756 -0.08283,0.60124 -0.593463,2.21978 -0.651513,2.71395 -0.05804,0.49417 -0.06624,0.77434 -0.283631,0.69016 -0.21739,-0.0842 -0.234746,-1.37399 0.04723,-1.71478 0.281966,-0.34078 0.349172,-1.84829 0.451612,-2.24193 0.102449,-0.39365 0.06327,-0.80845 0.06327,-0.80845 0.0066,-0.0922 0.104102,-0.13974 0.213248,-0.14939 z" /><path
         style="opacity:1;fill:#4d0000;fill-opacity:1;stroke:none;stroke-width:0.3;stroke-linecap:square;stroke-dasharray:none;stroke-opacity:1;paint-order:markers stroke fill"
         d="m 20.80285,135.91456 c 0,0 -0.09829,1.1795 -0.393168,1.96584 -0.294875,0.78634 -0.688044,2.4573 -0.491461,3.04706 0.196586,0.58975 0.294878,1.08121 0.294878,1.08121 0,0 0.294876,-0.39317 1.081212,-0.58975 0.786339,-0.19659 0.688046,0 1.572676,-0.19659 0.884629,-0.19658 0.982921,0.19659 -0.294876,0.29488 -1.2778,0.0983 -2.162429,0.58975 -2.162429,0.58975 0,0 0.294878,0.49146 0.294878,0.98292 0,0.49147 0.393168,0.58976 0.393168,0.58976 0,0 0.393169,0.0983 1.37609,-0.29488 0.982922,-0.39317 0.982922,-0.39317 0.982922,-0.39317 0,0 0.688044,0.88463 -0.294878,0.88463 -0.982919,0 -1.670965,0.29488 -1.670965,0.29488 0,0 -0.09829,1.1795 0.884629,1.47438 0.982921,0.29488 1.769258,0.78634 2.850472,1.08121 1.081215,0.29488 1.670968,-1.27779 1.965844,-2.75218 0.294875,-1.47438 -0.688046,-1.76925 -1.179505,-1.86755 -0.491461,-0.0983 -1.474382,0.68805 -1.965843,-0.49146 -0.491461,-1.17951 0,-1.76926 0.294875,-2.4573 0.294876,-0.68805 1.965844,-0.98292 2.555597,-1.57268 0.589751,-0.58975 1.179505,-1.2778 1.179505,-1.67096 0,-0.39317 -1.769258,-1.57268 -2.850473,-1.47439 -1.081214,0.0983 -4.423148,1.47439 -4.423148,1.47439 z"
         id="path22" /><path
         style="opacity:1;fill:#4d0000;fill-opacity:1;stroke:none;stroke-width:0.3;stroke-linecap:square;stroke-dasharray:none;stroke-opacity:1;paint-order:markers stroke fill"
         d="m 28.666224,143.58135 c 0.786337,0 1.179505,0.39316 1.769259,-0.0983 0.589753,-0.49146 0.786339,-1.08121 1.572675,-0.98292 0.786336,0.0983 0.786336,1.76926 1.179507,2.65389 0.393168,0.88463 0.491458,2.16243 -0.09829,2.16243 -0.589754,0 -2.457305,-0.88463 -2.850473,-1.17951 -0.393171,-0.29488 -1.37609,0.39317 -1.37609,0.39317 0,0 -0.393171,-0.0983 -0.393171,-0.78634 0,-0.68804 0,-1.08121 0,-1.08121 0,0 -0.589751,-0.19659 -0.688044,0.39317 -0.09829,0.58975 -0.09829,1.08121 -0.09829,1.08121 l -0.786337,0.0983 c 0,0 -1.2778,-1.08121 -1.2778,-1.47438 0,-0.39317 0.294879,-3.24364 0.196586,-3.83339 -0.09829,-0.58976 -0.589754,-2.26072 -0.589754,-3.04706 0,-0.78634 1.572676,-1.57268 2.359012,-1.96584 0.786339,-0.39317 2.457304,1.08121 2.457304,1.08121 0,0 -0.49146,1.86755 -0.786336,2.65389 -0.294878,0.78633 -1.179507,3.34193 -0.589754,3.93169 z"
         id="path23" /><path
         style="opacity:1;fill:#4d0000;fill-opacity:1;stroke:none;stroke-width:0.3;stroke-linecap:square;stroke-dasharray:none;stroke-opacity:1;paint-order:markers stroke fill"
         d="m 60.218009,123.62804 c 0,0 1.474382,3.63681 1.769259,5.30777 0.294876,1.67097 1.277796,1.08121 0.786337,2.35901 -0.491461,1.2778 -1.474382,2.35902 -1.474382,2.35902 0,0 1.179506,1.67097 0.196584,4.02998 -0.379932,0.91184 -2.555596,2.4573 -2.653889,3.34193 -0.09829,0.88463 -2.064135,2.4573 -2.555596,2.94876 -0.491461,0.49146 -0.982921,0.0983 -1.081213,0.78634 -0.09829,0.68805 -1.769259,1.08122 -2.948765,0.49147 -1.179506,-0.58976 -10e-7,-2.06414 0.49146,-2.45731 0.491461,-0.39317 0.589753,-0.58975 0.589753,-0.58975 0,0 0.688045,0.29487 1.081214,0.58975 l 0.393169,0.29487 c 0,0 0.294876,-0.78633 -0.294877,-1.1795 -0.589753,-0.39317 -1.081214,-0.39317 -1.081214,-0.39317 0,0 0.196585,-1.96584 1.376091,-1.96584 1.179506,0 1.965843,-0.78634 1.37609,-1.67097 -0.589753,-0.88463 -2.850473,-2.94877 -2.752181,-3.63681 0.09829,-0.68805 3.047058,-0.58975 4.423148,-3.53852 1.37609,-2.94876 2.359012,-7.07703 2.359012,-7.07703 z"
         id="path24" /><path
         style="opacity:1;fill:#4d0000;fill-opacity:1;stroke:none;stroke-width:0.3;stroke-linecap:square;stroke-dasharray:none;stroke-opacity:1;paint-order:markers stroke fill"
         d="m 56.876075,142.50013 c 0,0 0,0.49146 -0.393168,1.2778 -0.393169,0.78634 -0.393169,2.06413 0.49146,2.26072 0.88463,0.19658 3.735102,-0.88463 4.029979,-1.57268 0.294877,-0.68804 -0.491461,-2.35901 -0.491461,-2.35901 0,0 -0.294876,-1.08121 -0.196584,-2.26072 0.09829,-1.1795 -0.09829,-2.35901 -0.09829,-2.35901 l -0.786338,0.19658 z"
         id="path25" /></g></g></svg>
